<?xml version="1.0" encoding="UTF-8"?>
<svg id="_レイヤー_2" data-name="レイヤー 2" xmlns="http://www.w3.org/2000/svg" viewBox="0 0 88 88">
  <defs>
    <style>
      .cls-1 {
        fill: #ccc;
      }

      .cls-1, .cls-2, .cls-3, .cls-4 {
        stroke-width: 0px;
      }

      .cls-2 {
        fill: #333;
      }

      .cls-3 {
        fill: #fff;
      }

      .cls-4 {
        fill: #f0b30c;
      }
    </style>
  </defs>
  <g id="_レイヤー_1-2" data-name="レイヤー 1">
    <g>
      <circle class="cls-3" cx="44" cy="44" r="44"/>
      <g>
        <g>
          <path class="cls-4" d="M22.82,23.12c-1.76,0-3.19-1.43-3.19-3.19s1.43-3.19,3.19-3.19h42.36c1.76,0,3.19,1.43,3.19,3.19s-1.43,3.19-3.19,3.19H22.82Z"/>
          <path class="cls-3" d="M65.18,17.61c1.28,0,2.32,1.04,2.32,2.32s-1.04,2.32-2.32,2.32H22.82c-1.28,0-2.32-1.04-2.32-2.32s1.04-2.32,2.32-2.32h42.36M65.18,15.87H22.82c-2.24,0-4.06,1.82-4.06,4.06s1.82,4.06,4.06,4.06h42.36c2.24,0,4.06-1.82,4.06-4.06s-1.82-4.06-4.06-4.06h0Z"/>
        </g>
        <g>
          <path class="cls-2" d="M22.82,71.55c-1.92,0-3.48-1.56-3.48-3.48s1.56-3.48,3.48-3.48h38.88V31.53c0-1.92,1.56-3.48,3.48-3.48s3.48,1.56,3.48,3.48v36.54c0,1.92-1.56,3.48-3.48,3.48H22.82Z"/>
          <path class="cls-3" d="M65.18,29.21c1.28,0,2.32,1.04,2.32,2.32v36.54c0,1.28-1.04,2.32-2.32,2.32H22.82c-1.28,0-2.32-1.04-2.32-2.32s1.04-2.32,2.32-2.32h40.04V31.53c0-1.28,1.04-2.32,2.32-2.32M65.18,26.89c-2.56,0-4.64,2.08-4.64,4.64v31.9H22.82c-2.56,0-4.64,2.08-4.64,4.64s2.08,4.64,4.64,4.64h42.36c2.56,0,4.64-2.08,4.64-4.64V31.53c0-2.56-2.08-4.64-4.64-4.64h0Z"/>
        </g>
      </g>
      <g>
        <g>
          <g>
            <circle class="cls-1" cx="27.64" cy="34.95" r="2.49"/>
            <path class="cls-3" d="M27.64,32.75c1.22,0,2.2.99,2.2,2.2s-.99,2.2-2.2,2.2-2.2-.99-2.2-2.2.99-2.2,2.2-2.2M27.64,32.17c-1.54,0-2.78,1.25-2.78,2.78s1.25,2.78,2.78,2.78,2.78-1.25,2.78-2.78-1.25-2.78-2.78-2.78h0Z"/>
          </g>
          <g>
            <path class="cls-1" d="M34.61,37.44c-1.38,0-2.49-1.12-2.49-2.49s1.12-2.49,2.49-2.49h17.63c1.38,0,2.49,1.12,2.49,2.49s-1.12,2.49-2.49,2.49h-17.63Z"/>
            <path class="cls-3" d="M52.24,32.75c1.22,0,2.2.99,2.2,2.2s-.99,2.2-2.2,2.2h-17.63c-1.22,0-2.2-.99-2.2-2.2s.99-2.2,2.2-2.2h17.63M52.24,32.17h-17.63c-1.54,0-2.78,1.25-2.78,2.78s1.25,2.78,2.78,2.78h17.63c1.54,0,2.78-1.25,2.78-2.78s-1.25-2.78-2.78-2.78h0Z"/>
          </g>
        </g>
        <g>
          <g>
            <circle class="cls-1" cx="27.64" cy="44" r="2.49"/>
            <path class="cls-3" d="M27.64,41.8c1.22,0,2.2.99,2.2,2.2s-.99,2.2-2.2,2.2-2.2-.99-2.2-2.2.99-2.2,2.2-2.2M27.64,41.22c-1.54,0-2.78,1.25-2.78,2.78s1.25,2.78,2.78,2.78,2.78-1.25,2.78-2.78-1.25-2.78-2.78-2.78h0Z"/>
          </g>
          <g>
            <path class="cls-1" d="M34.61,46.49c-1.38,0-2.49-1.12-2.49-2.49s1.12-2.49,2.49-2.49h17.63c1.38,0,2.49,1.12,2.49,2.49s-1.12,2.49-2.49,2.49h-17.63Z"/>
            <path class="cls-3" d="M52.24,41.8c1.22,0,2.2.99,2.2,2.2s-.99,2.2-2.2,2.2h-17.63c-1.22,0-2.2-.99-2.2-2.2s.99-2.2,2.2-2.2h17.63M52.24,41.22h-17.63c-1.54,0-2.78,1.25-2.78,2.78s1.25,2.78,2.78,2.78h17.63c1.54,0,2.78-1.25,2.78-2.78s-1.25-2.78-2.78-2.78h0Z"/>
          </g>
        </g>
        <g>
          <g>
            <circle class="cls-1" cx="27.64" cy="53.05" r="2.49"/>
            <path class="cls-3" d="M27.64,50.85c1.22,0,2.2.99,2.2,2.2s-.99,2.2-2.2,2.2-2.2-.99-2.2-2.2.99-2.2,2.2-2.2M27.64,50.27c-1.54,0-2.78,1.25-2.78,2.78s1.25,2.78,2.78,2.78,2.78-1.25,2.78-2.78-1.25-2.78-2.78-2.78h0Z"/>
          </g>
          <g>
            <path class="cls-1" d="M34.61,55.54c-1.38,0-2.49-1.12-2.49-2.49s1.12-2.49,2.49-2.49h17.63c1.38,0,2.49,1.12,2.49,2.49s-1.12,2.49-2.49,2.49h-17.63Z"/>
            <path class="cls-3" d="M52.24,50.85c1.22,0,2.2.99,2.2,2.2s-.99,2.2-2.2,2.2h-17.63c-1.22,0-2.2-.99-2.2-2.2s.99-2.2,2.2-2.2h17.63M52.24,50.27h-17.63c-1.54,0-2.78,1.25-2.78,2.78s1.25,2.78,2.78,2.78h17.63c1.54,0,2.78-1.25,2.78-2.78s-1.25-2.78-2.78-2.78h0Z"/>
          </g>
        </g>
      </g>
    </g>
  </g>
</svg>