<?xml version="1.0" encoding="UTF-8"?>
<svg id="_レイヤー_2" data-name="レイヤー 2" xmlns="http://www.w3.org/2000/svg" viewBox="0 0 440.9 224.19">
  <defs>
    <style>
      .cls-1 {
        fill: #333;
      }

      .cls-1, .cls-2, .cls-3, .cls-4, .cls-5, .cls-6, .cls-7, .cls-8 {
        stroke-width: 0px;
      }

      .cls-2 {
        fill: #cc3327;
      }

      .cls-3 {
        fill: #f0b30c;
      }

      .cls-4 {
        fill: #1d6cd4;
      }

      .cls-5 {
        fill: #000;
      }

      .cls-6 {
        fill: #5ab834;
      }

      .cls-7 {
        fill: #ccc;
      }

      .cls-8 {
        fill: #fff;
      }
    </style>
  </defs>
  <g id="_レイヤー_1-2" data-name="レイヤー 1">
    <g>
      <g>
        <g>
          <g>
            <path class="cls-3" d="M8,36.67c-3.03,0-5.5-2.47-5.5-5.5s2.47-5.5,5.5-5.5h73c3.03,0,5.5,2.47,5.5,5.5s-2.47,5.5-5.5,5.5H8Z"/>
            <path class="cls-8" d="M81,27.17c2.21,0,4,1.79,4,4s-1.79,4-4,4H8c-2.21,0-4-1.79-4-4s1.79-4,4-4h73M81,24.17H8c-3.86,0-7,3.14-7,7s3.14,7,7,7h73c3.86,0,7-3.14,7-7s-3.14-7-7-7h0Z"/>
          </g>
          <g>
            <path class="cls-1" d="M8,120.15c-3.31,0-6-2.69-6-6s2.69-6,6-6h67v-56.97c0-3.31,2.69-6,6-6s6,2.69,6,6v62.97c0,3.31-2.69,6-6,6H8Z"/>
            <path class="cls-8" d="M81,47.17c2.21,0,4,1.79,4,4v62.97c0,2.21-1.79,4-4,4H8c-2.21,0-4-1.79-4-4s1.79-4,4-4h69v-58.97c0-2.21,1.79-4,4-4M81,43.17c-4.41,0-8,3.59-8,8v54.97H8c-4.41,0-8,3.59-8,8s3.59,8,8,8h73c4.41,0,8-3.59,8-8v-62.97c0-4.41-3.59-8-8-8h0Z"/>
          </g>
        </g>
        <g>
          <g>
            <g>
              <path class="cls-7" d="M16.3,61.36c-2.37,0-4.3-1.93-4.3-4.3s1.93-4.3,4.3-4.3,4.3,1.93,4.3,4.3-1.93,4.3-4.3,4.3Z"/>
              <path class="cls-8" d="M16.3,53.26c2.1,0,3.8,1.7,3.8,3.8s-1.7,3.8-3.8,3.8-3.8-1.7-3.8-3.8,1.7-3.8,3.8-3.8M16.3,52.26c-2.65,0-4.8,2.15-4.8,4.8s2.15,4.8,4.8,4.8,4.8-2.15,4.8-4.8-2.15-4.8-4.8-4.8h0Z"/>
            </g>
            <g>
              <path class="cls-7" d="M28.31,61.36c-2.37,0-4.3-1.93-4.3-4.3s1.93-4.3,4.3-4.3h30.39c2.37,0,4.3,1.93,4.3,4.3s-1.93,4.3-4.3,4.3h-30.39Z"/>
              <path class="cls-8" d="M58.7,53.26c2.1,0,3.8,1.7,3.8,3.8s-1.7,3.8-3.8,3.8h-30.39c-2.1,0-3.8-1.7-3.8-3.8s1.7-3.8,3.8-3.8h30.39M58.7,52.26h-30.39c-2.65,0-4.8,2.15-4.8,4.8s2.15,4.8,4.8,4.8h30.39c2.65,0,4.8-2.15,4.8-4.8s-2.15-4.8-4.8-4.8h0Z"/>
            </g>
          </g>
          <g>
            <g>
              <path class="cls-7" d="M16.3,76.96c-2.37,0-4.3-1.93-4.3-4.3s1.93-4.3,4.3-4.3,4.3,1.93,4.3,4.3-1.93,4.3-4.3,4.3Z"/>
              <path class="cls-8" d="M16.3,68.86c2.1,0,3.8,1.7,3.8,3.8s-1.7,3.8-3.8,3.8-3.8-1.7-3.8-3.8,1.7-3.8,3.8-3.8M16.3,67.86c-2.65,0-4.8,2.15-4.8,4.8s2.15,4.8,4.8,4.8,4.8-2.15,4.8-4.8-2.15-4.8-4.8-4.8h0Z"/>
            </g>
            <g>
              <path class="cls-7" d="M28.31,76.96c-2.37,0-4.3-1.93-4.3-4.3s1.93-4.3,4.3-4.3h30.39c2.37,0,4.3,1.93,4.3,4.3s-1.93,4.3-4.3,4.3h-30.39Z"/>
              <path class="cls-8" d="M58.7,68.86c2.1,0,3.8,1.7,3.8,3.8s-1.7,3.8-3.8,3.8h-30.39c-2.1,0-3.8-1.7-3.8-3.8s1.7-3.8,3.8-3.8h30.39M58.7,67.86h-30.39c-2.65,0-4.8,2.15-4.8,4.8s2.15,4.8,4.8,4.8h30.39c2.65,0,4.8-2.15,4.8-4.8s-2.15-4.8-4.8-4.8h0Z"/>
            </g>
          </g>
          <g>
            <g>
              <path class="cls-7" d="M16.3,92.56c-2.37,0-4.3-1.93-4.3-4.3s1.93-4.3,4.3-4.3,4.3,1.93,4.3,4.3-1.93,4.3-4.3,4.3Z"/>
              <path class="cls-8" d="M16.3,84.46c2.1,0,3.8,1.7,3.8,3.8s-1.7,3.8-3.8,3.8-3.8-1.7-3.8-3.8,1.7-3.8,3.8-3.8M16.3,83.46c-2.65,0-4.8,2.15-4.8,4.8s2.15,4.8,4.8,4.8,4.8-2.15,4.8-4.8-2.15-4.8-4.8-4.8h0Z"/>
            </g>
            <g>
              <path class="cls-7" d="M28.31,92.56c-2.37,0-4.3-1.93-4.3-4.3s1.93-4.3,4.3-4.3h30.39c2.37,0,4.3,1.93,4.3,4.3s-1.93,4.3-4.3,4.3h-30.39Z"/>
              <path class="cls-8" d="M58.7,84.46c2.1,0,3.8,1.7,3.8,3.8s-1.7,3.8-3.8,3.8h-30.39c-2.1,0-3.8-1.7-3.8-3.8s1.7-3.8,3.8-3.8h30.39M58.7,83.46h-30.39c-2.65,0-4.8,2.15-4.8,4.8s2.15,4.8,4.8,4.8h30.39c2.65,0,4.8-2.15,4.8-4.8s-2.15-4.8-4.8-4.8h0Z"/>
            </g>
          </g>
        </g>
        <g>
          <g>
            <path class="cls-1" d="M137,120.18c-3.03,0-5.5-2.47-5.5-5.5V30.7c0-3.03,2.47-5.5,5.5-5.5s5.5,2.47,5.5,5.5v83.98c0,3.03-2.47,5.5-5.5,5.5Z"/>
            <path class="cls-8" d="M137,26.7c2.21,0,4,1.79,4,4v83.98c0,2.21-1.79,4-4,4s-4-1.79-4-4V30.7c0-2.21,1.79-4,4-4M137,23.7c-3.86,0-7,3.14-7,7v83.98c0,3.86,3.14,7,7,7s7-3.14,7-7V30.7c0-3.86-3.14-7-7-7h0Z"/>
          </g>
          <g>
            <path class="cls-2" d="M157,119.65c-1.47,0-2.85-.57-3.89-1.61-1.04-1.04-1.61-2.42-1.61-3.89s.57-2.85,1.61-3.89l38.12-38.12c1.04-1.04,2.42-1.61,3.89-1.61s2.85.57,3.89,1.61c1.04,1.04,1.61,2.42,1.61,3.89s-.57,2.85-1.61,3.89l-38.12,38.12c-1.04,1.04-2.42,1.61-3.89,1.61Z"/>
            <path class="cls-8" d="M195.12,72.03c1.02,0,2.05.39,2.83,1.17,1.56,1.56,1.56,4.09,0,5.66l-38.12,38.12c-.78.78-1.8,1.17-2.83,1.17s-2.05-.39-2.83-1.17c-1.56-1.56-1.56-4.09,0-5.66l38.12-38.12c.78-.78,1.8-1.17,2.83-1.17M195.12,69.03c-1.87,0-3.63.73-4.95,2.05l-38.12,38.12c-1.32,1.32-2.05,3.08-2.05,4.95s.73,3.63,2.05,4.95c1.32,1.32,3.08,2.05,4.95,2.05s3.63-.73,4.95-2.05l38.12-38.12c1.32-1.32,2.05-3.08,2.05-4.95s-.73-3.63-2.05-4.95c-1.32-1.32-3.08-2.05-4.95-2.05h0Z"/>
          </g>
        </g>
        <g>
          <g>
            <path class="cls-4" d="M274.8,28.5c-7.44,0-13.5-6.06-13.5-13.5s6.06-13.5,13.5-13.5,13.5,6.06,13.5,13.5-6.06,13.5-13.5,13.5Z"/>
            <path class="cls-8" d="M274.8,3c6.63,0,12,5.37,12,12s-5.37,12-12,12-12-5.37-12-12,5.37-12,12-12M274.8,0c-8.27,0-15,6.73-15,15s6.73,15,15,15,15-6.73,15-15-6.73-15-15-15h0Z"/>
          </g>
          <g>
            <g>
              <path class="cls-1" d="M239.99,45.5c-3.03,0-5.5-2.47-5.5-5.5s2.47-5.5,5.5-5.5h74.86c3.03,0,5.5,2.47,5.5,5.5s-2.47,5.5-5.5,5.5h-74.86Z"/>
              <path class="cls-8" d="M314.85,36c2.21,0,4,1.79,4,4s-1.79,4-4,4h-74.86c-2.21,0-4-1.79-4-4s1.79-4,4-4h74.86M314.85,33h-74.86c-3.86,0-7,3.14-7,7s3.14,7,7,7h74.86c3.86,0,7-3.14,7-7s-3.14-7-7-7h0Z"/>
            </g>
            <g>
              <path class="cls-1" d="M235.12,117.9c-.79,0-1.56-.17-2.29-.5-1.34-.61-2.35-1.71-2.87-3.08-.51-1.38-.46-2.87.15-4.21l23.99-52.4c.89-1.95,2.86-3.21,5-3.21.79,0,1.56.17,2.29.5,2.76,1.26,3.97,4.53,2.71,7.29l-23.99,52.4c-.89,1.95-2.86,3.21-5,3.21Z"/>
              <path class="cls-8" d="M259.11,56c.56,0,1.12.12,1.66.36,2.01.92,2.89,3.29,1.97,5.3l-23.99,52.4c-.67,1.47-2.12,2.34-3.64,2.34-.56,0-1.12-.12-1.66-.36-2.01-.92-2.89-3.29-1.97-5.3l23.99-52.4c.67-1.47,2.12-2.34,3.64-2.34M259.11,53h0c-2.73,0-5.23,1.6-6.37,4.09l-23.99,52.4c-.78,1.7-.85,3.6-.2,5.35.65,1.75,1.95,3.15,3.65,3.92.92.42,1.9.64,2.91.64,2.73,0,5.23-1.6,6.37-4.09l23.99-52.4c1.61-3.51.06-7.67-3.45-9.28-.92-.42-1.9-.64-2.91-.64h0Z"/>
            </g>
            <g>
              <path class="cls-1" d="M289.8,119.65c-.93,0-1.86-.24-2.67-.69l-9-5c-2.65-1.47-3.61-4.83-2.14-7.48.97-1.75,2.81-2.83,4.81-2.83.93,0,1.85.24,2.67.69l3.23,1.8,22.94-67.89c.76-2.24,2.85-3.74,5.21-3.74.6,0,1.19.1,1.76.29,1.39.47,2.52,1.45,3.17,2.77.65,1.32.75,2.81.28,4.2l-25.06,74.14c-.52,1.55-1.7,2.78-3.23,3.37-.63.25-1.3.37-1.98.37Z"/>
              <path class="cls-8" d="M314.85,36c.42,0,.86.07,1.28.21,2.09.71,3.22,2.98,2.51,5.07l-25.06,74.14c-.38,1.12-1.24,2.02-2.35,2.45-.47.18-.96.27-1.44.27-.67,0-1.34-.17-1.94-.5l-9-5c-1.93-1.07-2.63-3.51-1.55-5.44.73-1.32,2.09-2.06,3.5-2.06.66,0,1.32.16,1.94.5l4.8,2.67,23.52-69.6c.56-1.67,2.12-2.72,3.79-2.72M314.85,33h0c-3,0-5.67,1.91-6.63,4.76l-22.37,66.19-1.66-.92c-1.04-.58-2.21-.88-3.4-.88-2.54,0-4.89,1.38-6.12,3.6-1.87,3.37-.65,7.64,2.72,9.52l9,5c1.04.58,2.21.88,3.4.88.87,0,1.72-.16,2.53-.47,1.94-.75,3.44-2.31,4.1-4.29l25.06-74.14c.6-1.77.47-3.67-.36-5.35-.83-1.68-2.26-2.93-4.03-3.53-.72-.25-1.48-.37-2.24-.37h0Z"/>
            </g>
          </g>
        </g>
        <g>
          <g>
            <path class="cls-1" d="M354.82,58.29c-1.48-.01-2.86-.6-3.89-1.65-1.03-1.05-1.59-2.44-1.57-3.9l.12-12.78c.03-3,2.5-5.45,5.5-5.45,1.52.01,2.9.6,3.93,1.65,1.03,1.05,1.59,2.44,1.57,3.9l-.12,12.78c-.03,3-2.5,5.45-5.5,5.45h-.04Z"/>
            <path class="cls-8" d="M355.02,36c2.21.02,3.98,1.83,3.96,4.04l-.12,12.78c-.02,2.2-1.81,3.96-4,3.96h-.04c-2.21-.02-3.98-1.83-3.96-4.04l.12-12.78c.02-2.2,1.81-3.96,4-3.96h.04M355.02,33h-.04c-3.82,0-6.96,3.11-7,6.93l-.12,12.78c-.04,3.86,3.07,7.03,6.93,7.07,0,0,.06,0,.07,0,3.82,0,6.96-3.11,7-6.93l.12-12.78c.04-3.86-3.07-7.03-6.93-7.07,0,0-.02,0-.03,0h0Z"/>
          </g>
          <g>
            <path class="cls-1" d="M396.46,28.5c-7.44,0-13.5-6.06-13.5-13.5s6.06-13.5,13.5-13.5,13.5,6.06,13.5,13.5-6.06,13.5-13.5,13.5Z"/>
            <path class="cls-8" d="M396.46,3c6.63,0,12,5.37,12,12s-5.37,12-12,12-12-5.37-12-12,5.37-12,12-12M396.46,0c-8.27,0-15,6.73-15,15s6.73,15,15,15,15-6.73,15-15S404.74,0,396.46,0h0Z"/>
          </g>
          <g>
            <g>
              <path class="cls-1" d="M370.98,45.5c-3.03,0-5.5-2.47-5.5-5.5s2.47-5.5,5.5-5.5h62.92c3.03,0,5.5,2.47,5.5,5.5s-2.47,5.5-5.5,5.5h-62.92Z"/>
              <path class="cls-8" d="M433.9,36c2.21,0,4,1.79,4,4s-1.79,4-4,4h-62.92c-2.21,0-4-1.79-4-4s1.79-4,4-4h62.92M433.9,33h-62.92c-3.86,0-7,3.14-7,7s3.14,7,7,7h62.92c3.86,0,7-3.14,7-7s-3.14-7-7-7h0Z"/>
            </g>
            <g>
              <path class="cls-6" d="M390.84,119.65c-1.51,0-2.97-.51-4-1.4-1.03-.89-1.58-2.12-1.5-3.37.08-1.29.83-2.48,2.03-3.28.18-.12,17.7-11.77,27.05-23.08,9.25-11.18,14.03-30.14,14.08-30.33.52-2.12,2.74-3.61,5.39-3.61.31,0,.63.02.94.07,1.65.23,3.06,1.05,3.86,2.25.64.95.84,2.06.58,3.13-.21.85-5.24,20.91-15.76,33.62-10.31,12.46-28.46,24.51-29.23,25.02-.97.64-2.2.99-3.45.99Z"/>
              <path class="cls-8" d="M433.9,56.07c.24,0,.49.02.73.05,2.17.31,3.6,1.89,3.2,3.53-.21.83-5.17,20.59-15.46,33.02-10.2,12.33-28.14,24.22-28.9,24.73-.76.5-1.7.75-2.63.75-1.12,0-2.22-.35-3.02-1.04-1.45-1.26-1.28-3.17.38-4.26.18-.12,17.82-11.82,27.38-23.37,9.49-11.47,14.33-30.74,14.38-30.93.36-1.45,2.05-2.47,3.93-2.47M433.9,53.07h0c-3.34,0-6.15,1.95-6.84,4.75-.05.18-4.77,18.85-13.78,29.74-9.29,11.23-26.54,22.67-26.71,22.78-1.61,1.06-2.59,2.68-2.71,4.44-.11,1.72.62,3.39,2.01,4.6,1.32,1.14,3.08,1.77,4.98,1.77,1.55,0,3.07-.44,4.28-1.24.77-.51,19.08-12.65,29.56-25.32,10.73-12.97,15.85-33.36,16.06-34.22.37-1.49.09-3.02-.79-4.33-1.04-1.55-2.83-2.6-4.9-2.89-.38-.05-.77-.08-1.15-.08h0Z"/>
            </g>
          </g>
        </g>
      </g>
      <g>
        <path class="cls-5" d="M108.01,158.45l8.33-8.3h1.53l-8.54,8.44,9.04,9.2h-1.59l-8.3-8.41-.48.45v7.96h-1.16v-17.64h1.16v8.3Z"/>
        <path class="cls-5" d="M154.69,162.42c0,3.2-2.46,5.66-5.66,5.66s-5.66-2.46-5.66-5.66,2.46-5.66,5.66-5.66,5.66,2.46,5.66,5.66ZM153.58,162.42c0-2.62-1.96-4.65-4.55-4.65s-4.55,2.04-4.55,4.65,1.96,4.65,4.55,4.65,4.55-2.03,4.55-4.65Z"/>
        <path class="cls-5" d="M183.17,156.99h1.06v1.4c.4-.93,1.22-1.64,2.38-1.64.29,0,.74.05,1.14.26l-.53.95c-.11-.08-.32-.21-.79-.21-2.17,0-2.19,2.88-2.19,4.23v5.79h-1.06v-10.79Z"/>
        <path class="cls-5" d="M217.83,162.52c0,2.75,2.01,4.55,4.28,4.55,1.74,0,3.07-1.03,3.75-2.46l.9.53c-.64,1.22-2.06,2.93-4.73,2.93-3.36,0-5.31-2.48-5.31-5.63,0-3.75,2.59-5.68,5.23-5.68,2.91,0,5.1,2.33,5.1,5.76h-9.23ZM225.94,161.52c-.26-2.14-1.85-3.75-3.99-3.75s-3.75,1.67-4.05,3.75h8.04Z"/>
        <path class="cls-5" d="M253.71,158.45l8.33-8.3h1.53l-8.54,8.44,9.04,9.2h-1.59l-8.3-8.41-.48.45v7.96h-1.16v-17.64h1.16v8.3Z"/>
        <path class="cls-5" d="M298.94,156.99h1.06v10.79h-1.06v-1.93c-1.08,1.67-2.8,2.22-4.2,2.22-2.83,0-5.26-2.14-5.26-5.68,0-3.33,2.12-5.63,5.26-5.63,1.69,0,3.17.66,4.2,2.11v-1.88ZM290.59,162.31c0,2.43,1.51,4.76,4.23,4.76s4.18-2.27,4.18-4.76c0-3.2-2.35-4.55-4.2-4.55-2.14,0-4.2,1.61-4.2,4.55Z"/>
        <path class="cls-5" d="M328.33,156.99v6.5c0,.77.03,1.91.69,2.7.66.79,1.64.87,2.14.87s1.48-.08,2.14-.87c.66-.79.69-1.93.69-2.7v-6.5h1.06v6.8c0,.87-.08,2.01-.82,2.96-.82,1.06-2.12,1.32-3.07,1.32s-2.25-.26-3.07-1.32c-.74-.95-.82-2.09-.82-2.96v-6.8h1.06Z"/>
      </g>
      <g>
        <path class="cls-5" d="M18.14,209.16c.1-.18.23-.24.44-.18,1.7.63,3.18,1.41,4.59,2.37.26.18.23.34.13.55-.18.37-.44.81-.68,1.12-.16.21-.29.24-.5.05-1.44-1.12-3.08-1.98-4.8-2.64.34-.5.63-1.02.81-1.28ZM22.19,219.15c2.4-1.25,4.72-2.61,7.18-4.49,2.24-1.75,5.09-4.28,7.44-7.23.1.68.23,1.1.5,1.7.13.26.08.47-.13.7-2.19,2.56-4.46,4.54-6.89,6.39-2.32,1.8-4.88,3.34-7.62,4.88-.57.31-.99.6-1.25.89-.23.24-.5.18-.73-.08-.34-.39-.84-1.12-1.23-1.75.91-.21,1.72-.5,2.74-1.02ZM21.22,203.21c.16-.24.23-.24.47-.13,1.62.68,3.13,1.64,4.54,2.72.23.18.21.29.08.52-.21.34-.5.84-.76,1.12-.16.18-.26.13-.47-.05-1.28-1.18-2.98-2.22-4.67-2.95.26-.37.55-.86.81-1.23Z"/>
        <path class="cls-5" d="M45.59,204.62c.18-.18.31-.16.47-.05,1.46.81,3.18,2.04,4.7,3.47.18.18.21.29.08.5-.21.31-.68.91-.89,1.12-.16.18-.23.21-.42.03-1.54-1.51-3.26-2.84-4.96-3.86.34-.42.73-.89,1.02-1.2ZM47.93,218.45c2.82-1.49,5.12-2.9,7.54-4.85,2.64-2.17,4.8-4.1,7.05-7.02.11.73.26,1.23.44,1.72.16.34.13.55-.18.91-1.75,2.06-4.05,4.15-6.34,6-2.22,1.77-4.83,3.44-7.83,5.09-.7.42-1.2.81-1.44,1.02-.26.23-.47.23-.7-.03-.39-.42-.86-1.05-1.28-1.78,1.02-.29,1.8-.6,2.74-1.07Z"/>
        <path class="cls-5" d="M74.99,206.88c-1.54,0-2.98.05-4.38.16-.31.03-.42-.08-.47-.42-.03-.37-.11-1.18-.13-1.62,1.62.16,3.08.21,5.01.21h9.24c.76,0,1.02-.08,1.3-.23.21-.13.47-.1.68.03.44.31.86.71,1.17,1.07.21.29.18.57-.08.81-.23.21-.39.47-.57.89-1.25,3.32-3.08,6.26-5.12,8.56-2.11,2.38-4.52,4.52-7.75,6.29-.31.21-.65.21-.89-.05-.31-.31-.81-.65-1.36-.89,3.99-1.98,6.24-3.94,8.43-6.45,1.96-2.19,3.81-5.09,4.91-8.35h-10ZM92.03,202.71c0,1.46-1.18,2.64-2.64,2.64s-2.64-1.18-2.64-2.64,1.17-2.64,2.64-2.64,2.64,1.18,2.64,2.64ZM87.75,202.71c0,.91.73,1.64,1.64,1.64s1.64-.73,1.64-1.64-.73-1.64-1.64-1.64-1.64.73-1.64,1.64Z"/>
        <path class="cls-5" d="M101.91,205.95c.29.1.31.34.18.65-.16.37-.23.99-.26,2.04-.1,2.98-.65,5.22-1.62,7.15-.94,1.96-2.19,3.34-3.73,4.65-.29.26-.52.29-.73.1-.39-.31-.84-.5-1.38-.65,1.77-1.28,3.26-2.82,4.2-4.85.86-1.83,1.41-3.94,1.41-6.76,0-1.15-.03-1.83-.23-2.71.91.08,1.72.24,2.17.39ZM107.34,217.8c1.72-.91,3.05-1.75,4.44-2.77,1.51-1.07,3.08-2.51,4.62-4.36.05.57.18,1.15.44,1.64.1.23.13.39-.16.68-1.3,1.33-2.71,2.61-4.12,3.66-1.41,1.02-2.87,1.98-4.51,2.92-.5.29-.65.37-.86.57-.23.21-.5.21-.7.03-.37-.29-.76-.65-1.02-1.02-.16-.24-.1-.42-.05-.65.08-.31.1-.81.1-2.58v-7.41c0-2.51-.08-3.73-.26-4.57.7.08,1.7.21,2.17.34.39.13.31.39.16.76-.16.37-.23,1.33-.23,3.45v9.32Z"/>
        <path class="cls-5" d="M132.51,205.61c.24-.05.31,0,.34.16.05.31.1.78.13,1.12.03.24-.03.29-.23.31-1.41.29-2.82.52-4.36.76-1.51,4.1-3.39,8.04-5.25,11.01-.13.21-.26.18-.42.08-.39-.23-.81-.55-1.04-.78-.16-.13-.16-.24-.03-.44,2.17-3.26,3.65-6.34,4.91-9.71-1.12.1-2.17.18-3.29.18-.39,0-.78,0-1.38-.05-.24-.03-.26-.05-.31-.31-.08-.34-.13-.81-.16-1.3.84.08,1.51.1,2.06.1,1.2,0,2.27-.08,3.55-.21.31-.99.55-1.96.78-3.05.16-.76.23-1.28.21-2.04.76.13,1.51.31,2.04.52.16.05.23.16.23.29s-.05.24-.21.39c-.13.16-.21.34-.37.81-.29.94-.57,1.91-.84,2.82,1.18-.16,2.3-.34,3.63-.65ZM134.1,211.92c0-.52-.03-.99-.16-1.67.71.08,1.23.16,1.78.34.18.05.29.16.29.31,0,.1-.05.23-.16.47-.1.29-.1.7-.1,1.23,0,1.57.13,3.13.31,4.8,1.91.76,3.37,1.51,4.93,2.61.21.13.18.21.11.42-.13.34-.42.81-.63,1.15-.13.18-.26.16-.42.03-1.17-1.04-2.58-1.85-3.97-2.48.03,2.64-1.31,4.07-4.67,4.07-1.98,0-4.05-1.02-4.05-3.18,0-1.96,1.88-3.29,4.44-3.29.78,0,1.8.13,2.61.31-.16-1.62-.29-3.71-.31-5.12ZM131.89,218.16c-2.09,0-3.03.81-3.03,1.77,0,1.2.97,1.75,2.69,1.75,2.14,0,2.92-1.12,2.92-2.45,0-.34,0-.5-.03-.62-.81-.26-1.72-.44-2.56-.44ZM136.32,206.47c.13-.21.21-.24.44-.16,1.75.55,3.63,1.38,5.12,2.45.18.16.18.26.05.47-.16.34-.39.76-.6,1.04-.13.18-.21.16-.37.05-1.51-1.15-3.45-2.09-5.32-2.66.26-.44.47-.89.68-1.2Z"/>
        <path class="cls-5" d="M154.74,221.34c-.26.05-.5.18-.81.34-1.54.84-3.78,1.75-6.29,2.32-.5.1-.5.08-.73-.39-.18-.34-.44-.68-.73-.91,2.43-.34,5.04-1.18,6.55-2.01.34-.18.65-.42.89-.7.47.26.86.5,1.15.73.18.16.26.21.26.34,0,.1-.1.26-.29.29ZM167.99,205.29c0,1.25.05,1.59.05,1.72,0,.18-.03.21-.21.21-.16,0-1.07-.05-3.65-.05h-13c-2.58,0-3.47.05-3.63.05-.18,0-.21-.03-.21-.21,0-.13.05-.47.05-1.72v-1.46c0-1.25-.05-1.62-.05-1.75,0-.18.03-.21.21-.21.16,0,1.04.05,3.63.05h13c2.58,0,3.5-.05,3.65-.05.18,0,.21.03.21.21,0,.13-.05.5-.05,1.75v1.46ZM153.72,203.15h-4.78v2.79h4.78v-2.79ZM165.62,216.8c0,1.91.05,2.61.05,2.77s-.03.18-.21.18c-.16,0-1.07-.05-3.68-.05h-8.17c-2.58,0-3.5.05-3.65.05-.18,0-.21-.03-.21-.18s.05-.86.05-2.77v-5.12c0-1.9-.05-2.58-.05-2.74,0-.18.03-.21.21-.21.16,0,1.07.05,3.65.05h8.17c2.61,0,3.52-.05,3.68-.05.18,0,.21.03.21.21,0,.13-.05.84-.05,2.74v5.12ZM164.05,210.07h-12.71v1.93h12.71v-1.93ZM164.05,213.2h-12.71v1.96h12.71v-1.96ZM164.05,216.36h-12.71v2.06h12.71v-2.06ZM159.96,203.15h-4.78v2.79h4.78v-2.79ZM161.08,220.14c.23-.18.29-.13.42-.05,2.01,1.33,4.57,2.22,7.28,2.64-.26.29-.5.65-.63.96-.21.5-.23.52-.73.42-2.24-.5-5.22-1.77-7.1-3.05-.16-.1-.13-.16.16-.39l.6-.52ZM166.45,203.15h-5.04v2.79h5.04v-2.79Z"/>
        <path class="cls-5" d="M176.49,204.98c.16.08.23.18.23.29,0,.13-.05.29-.1.47-.11.31-.21,1.04-.21,2.4,0,1.67.03,3.26.37,5.92.39,3.08,1.51,5.32,2.77,5.32,1.04,0,2.03-1.67,2.79-4.1.29.68.52.99.86,1.3.21.18.29.39.21.65-.73,2.11-2.14,4.1-3.89,4.1-2.19,0-3.84-3.03-4.41-7.13-.37-2.61-.47-5.56-.47-7.28,0-.99-.03-1.62-.21-2.51.73.08,1.57.31,2.06.55ZM188.94,206.99c.16-.08.29-.1.39,0,2.66,2.32,4.44,5.53,5.09,9.03.03.18-.05.26-.18.34-.39.26-.76.44-1.2.6-.18.05-.31-.03-.34-.21-.73-3.99-2.38-6.76-4.91-9.06.5-.34.89-.57,1.15-.71Z"/>
        <path class="cls-5" d="M207.3,207.59c0,.18-.03.21-.21.21-.13,0-.68-.05-2.51-.05h-.13v5.35c.89-.44,1.8-.94,2.79-1.54-.03.37-.03.65.03,1.04.08.52.05.52-.42.78-.78.42-1.57.84-2.4,1.25v4.75c0,3.11.05,4.49.05,4.62,0,.18-.03.18-.21.18h-1.2c-.18,0-.21,0-.21-.18,0-.16.05-1.51.05-4.59v-4.04c-.76.34-1.52.7-2.32,1.04-.52.24-.76.39-.89.52-.1.1-.26.21-.37.21s-.21-.05-.29-.21c-.24-.44-.44-.91-.65-1.49.68-.16,1.43-.39,2.32-.73.73-.29,1.46-.57,2.19-.89v-6.08h-2.27c-.18,1.15-.42,2.32-.76,3.37-.08.29-.1.39-.21.39s-.21-.05-.42-.16c-.26-.1-.68-.21-.94-.26.89-2.38,1.2-4.75,1.3-6.76.05-.52.03-.99-.03-1.46.44.05,1.02.13,1.41.21.24.05.31.16.31.24,0,.13-.03.18-.1.34-.08.18-.13.39-.16.71l-.21,2.01h2.06v-2.11c0-1.85-.03-2.56-.18-3.58.65.03,1.15.05,1.67.13.18.03.29.1.29.23,0,.16-.05.26-.1.47-.11.31-.16.97-.16,2.69v2.17h.13c1.83,0,2.38-.05,2.51-.05.18,0,.21.03.21.18v1.1ZM217.58,205.87c2.19,0,2.9-.05,3.03-.05.21,0,.26.08.26.26-.03.6-.05,1.2-.05,1.77-.05,5.3-.29,8.66-.84,12.06-.42,2.58-1.25,3.97-3.34,3.97-.6,0-1.49-.05-2.32-.13q-.5-.05-.6-.6c-.1-.5-.21-.84-.39-1.18,1.2.21,2.14.31,3.08.31,1.33,0,1.83-1.17,2.09-2.87.5-3.21.78-6.32.84-12.19h-1.36c-1.72,7.31-4.39,11.87-9.34,15.5-.18.13-.31.21-.39.21-.1,0-.21-.1-.37-.31-.29-.37-.58-.6-.89-.78,5.09-3.45,7.96-7.88,9.47-14.62h-2.53c-1.36,4.59-3.13,7.15-5.98,9.53-.18.16-.29.23-.37.23-.11,0-.21-.1-.37-.29-.26-.31-.6-.57-.89-.71,2.85-2.03,4.99-4.78,6.08-8.77h-2.4c-.6,1.02-1.3,2.01-2.17,3.03-.18.21-.26.31-.37.31s-.18-.08-.36-.26c-.29-.29-.52-.44-.84-.57,2.14-2.24,3.37-4.59,4.1-6.89.26-.84.42-1.49.47-2.19.6.1,1.02.21,1.51.34.18.05.29.13.29.26,0,.16-.08.26-.21.42-.18.21-.31.63-.52,1.23-.34.99-.7,1.98-1.2,2.98h6.86Z"/>
        <path class="cls-5" d="M230.49,206.42c0-1.64-.1-2.84-.29-3.78.71.08,1.62.26,2.14.42.34.1.34.39.24.63-.18.34-.26,1.1-.26,2.74v4.41c0,1.36.03,2.32.08,3.44,0,.31-.11.42-.39.42h-1.23c-.26,0-.37-.1-.34-.39.03-1.12.05-2.3.05-3.57v-4.31ZM241.43,211.11c0,4.05-.94,6.42-2.27,8.12-1.25,1.54-3.39,3-5.71,3.84-.29.1-.47.1-.73-.13-.37-.39-.76-.68-1.3-.96,2.66-.78,4.83-2.09,6.08-3.58,1.28-1.56,2.09-3.71,2.09-7.12v-4.49c0-2.56-.08-3.63-.29-4.57.78.08,1.64.24,2.22.42.31.11.31.39.18.65-.18.36-.26,1.15-.26,3.42v4.41Z"/>
        <path class="cls-5" d="M265.79,204.75c.89,0,1.18-.03,1.49-.21.16-.1.34-.05.52.08.37.29.76.68,1.07,1.07.16.21.1.39-.13.6-.26.21-.5.52-.76.96-1.15,1.96-2.48,3.89-3.86,5.61,2.69,1.96,5.12,4.04,7.49,6.55.23.21.23.29.03.55-.29.34-.63.65-.94.94-.18.16-.29.16-.47-.05-2.19-2.51-4.67-4.72-7.2-6.63-2.98,3.08-6.11,5.51-9.32,7.28-.29.16-.44.18-.65-.05-.34-.39-.81-.65-1.36-.94,3.94-1.96,7.02-4.36,9.61-7.07,1.7-1.8,3.42-4.12,4.96-6.99h-7.86c-1.46,0-2.58.08-3.76.16-.24,0-.26-.08-.31-.29-.08-.37-.16-1.15-.16-1.67,1.28.1,2.43.1,4.04.1h7.57Z"/>
        <path class="cls-5" d="M286.97,209.39c3,.86,5.9,2.09,8.51,3.63.21.11.26.24.18.42-.18.47-.42.94-.62,1.28-.16.21-.26.26-.5.1-2.43-1.59-5.22-2.82-7.59-3.5v6.05c0,1.59.05,3.63.08,5.33.03.26-.05.34-.34.34-.39.03-.91.03-1.33,0-.29,0-.37-.08-.37-.37.08-1.67.11-3.7.11-5.3v-11.61c0-1.96-.11-3.29-.29-4.18.91.08,1.7.18,2.17.34.42.1.31.39.18.78-.16.44-.18,1.23-.18,2.9v3.78Z"/>
        <path class="cls-5" d="M314.29,203.86c0,.18-.03.21-.21.21-.16,0-.78-.05-2.82-.05h-.91c.37.63.68,1.33.99,2.11.05.16,0,.21-.24.29l-.81.26c-.31.1-.37.08-.42-.13-.26-.81-.6-1.7-1.04-2.53h-2.38c-.62.91-1.33,1.72-2.17,2.51-.18.16-.29.24-.37.24-.1,0-.21-.08-.39-.24-.29-.26-.55-.42-.84-.52,1.62-1.36,2.69-2.71,3.52-4.49.16-.31.26-.68.31-1.07.55.08.99.18,1.44.31.18.05.26.16.26.26,0,.13-.08.24-.16.31-.16.16-.24.29-.42.65-.13.29-.29.52-.42.78h4.02c2.04,0,2.66-.05,2.82-.05.18,0,.21.03.21.21v.94ZM324.86,209.73c0,1.91.05,2.19.05,2.32,0,.18-.03.21-.21.21h-1.18c-.18,0-.21-.03-.21-.21v-2.95h-17.83v2.95c0,.18-.03.21-.21.21h-1.18c-.18,0-.21-.03-.21-.21,0-.16.05-.42.05-2.32v-.68c0-.65-.05-.97-.05-1.1,0-.18.03-.21.21-.21.16,0,1.07.05,3.63.05h5.64c0-.7-.03-1.33-.18-1.96.63,0,1.23.05,1.64.13.21.03.31.11.31.21,0,.16-.05.26-.16.47-.1.23-.1.65-.1,1.15h6.16c2.58,0,3.5-.05,3.65-.05.18,0,.21.03.21.21,0,.13-.05.44-.05.99v.78ZM322.25,221.89c0,1.44.05,1.85.05,1.98,0,.18-.03.21-.21.21h-1.15c-.18,0-.21-.03-.21-.21v-1.07h-11.41v1.1c0,.16-.03.18-.21.18h-1.15c-.18,0-.21-.03-.21-.18s.05-.91.05-3.08v-6.84c0-2.17-.05-2.95-.05-3.11,0-.18.03-.21.21-.21.16,0,1.23.05,3.63.05h5.43c2.35,0,3.26-.05,3.39-.05.18,0,.21.03.21.21,0,.16-.05.58-.05,1.72v1.15c0,1.15.05,1.59.05,1.75s-.03.18-.21.18c-.13,0-1.04-.05-3.39-.05h-7.7v1.98h9.03c2.48,0,3.57-.05,3.73-.05.18,0,.21.03.21.21,0,.16-.05.62-.05,2.04v2.09ZM319.06,211.97h-9.74v2.4h9.74v-2.4ZM320.73,218.84h-11.41v2.71h11.41v-2.71ZM325.72,203.86c0,.18-.03.21-.21.21-.13,0-.89-.05-3.24-.05h-1.8c.39.63.73,1.3,1.1,2.11.08.16.03.24-.23.31l-.76.21c-.29.08-.34.05-.42-.13-.31-.86-.68-1.72-1.15-2.51h-2.48c-.29.52-.63,1.02-.99,1.54-.16.18-.23.29-.34.29-.08,0-.21-.08-.42-.23-.29-.18-.55-.29-.89-.37,1.04-1.28,1.67-2.38,2.19-3.73.1-.26.21-.68.29-1.12.57.08,1.05.18,1.41.29.18.05.31.13.31.29,0,.13-.08.21-.21.31-.16.13-.24.34-.39.7-.1.26-.21.55-.34.78h5.12c2.35,0,3.1-.05,3.24-.05.18,0,.21.03.21.21v.94Z"/>
        <path class="cls-5" d="M333.93,216.88c1.15-.5,2.22-1.04,3.26-1.64-.05.29-.08.65-.08.99q.03.55-.42.81c-1.67.94-3.89,1.96-5.82,2.71-.55.21-.84.34-.94.42-.1.08-.21.16-.34.16-.08,0-.18-.05-.26-.23-.18-.44-.34-.94-.47-1.49.71-.1,1.46-.31,2.4-.65l1.12-.42v-6.52h-.42c-1.7,0-2.19.05-2.32.05-.18,0-.21-.03-.21-.21v-1.1c0-.18.03-.21.21-.21.13,0,.63.05,2.32.05h.42v-5.59h-.6c-1.83,0-2.38.05-2.53.05s-.18-.03-.18-.21v-1.12c0-.18.03-.21.18-.21s.7.05,2.53.05h2.66c1.85,0,2.37-.05,2.51-.05.18,0,.21.03.21.21v1.12c0,.18-.03.21-.21.21-.13,0-.65-.05-2.51-.05h-.52v5.59h.29c1.7,0,2.19-.05,2.35-.05.18,0,.18.03.18.21v1.1c0,.18,0,.21-.18.21-.16,0-.65-.05-2.35-.05h-.29v5.87ZM352.54,222.57c0,.18-.03.21-.18.21-.13,0-1.05-.05-3.71-.05h-9.55c-2.66,0-3.58.05-3.71.05-.18,0-.21-.03-.21-.21v-1.15c0-.18.03-.21.21-.21.13,0,1.04.05,3.71.05h4.46v-3.39h-2.01c-2.45,0-3.26.05-3.42.05-.18,0-.21-.03-.21-.21v-1.12c0-.18.03-.21.21-.21.16,0,.97.05,3.42.05h2.01v-2.98h-2.01c-2.43,0-3.29.05-3.42.05-.21,0-.23-.03-.23-.18s.05-.89.05-2.87v-5.27c0-1.96-.05-2.66-.05-2.82,0-.18.03-.21.23-.21.13,0,.99.05,3.42.05h5.8c2.43,0,3.26-.05,3.42-.05.18,0,.21.03.21.21,0,.13-.05.86-.05,2.82v5.27c0,1.98.05,2.71.05,2.87s-.03.18-.21.18c-.16,0-.99-.05-3.42-.05h-2.27v2.98h2.43c2.45,0,3.26-.05,3.42-.05.18,0,.21.03.21.21v1.12c0,.18-.03.21-.21.21-.16,0-.96-.05-3.42-.05h-2.43v3.39h3.58c2.66,0,3.57-.05,3.71-.05.16,0,.18.03.18.21v1.15ZM343.56,203.57h-4.12v3.55h4.12v-3.55ZM343.56,208.43h-4.12v3.68h4.12v-3.68ZM349.4,203.57h-4.33v3.55h4.33v-3.55ZM349.4,208.43h-4.33v3.68h4.33v-3.68Z"/>
        <path class="cls-5" d="M362.42,205.63c-2.06,0-3.6.1-4.86.23-.29.03-.39-.08-.44-.29-.11-.44-.24-1.25-.29-1.8,1.59.16,3.13.18,5.38.18h10.86c1.46,0,1.72-.08,1.96-.16.13-.05.29-.1.39-.1.13,0,.26.08.39.18.37.31.68.63.96,1.02.21.26.18.55-.13.76-.24.13-.42.42-.57.65-1.2,1.8-2.98,3.63-4.99,5.14-.21.16-.47.16-.68-.03-.39-.31-.81-.5-1.36-.65,2.24-1.43,4.05-3.16,5.3-5.14h-11.93ZM364.14,216.44c.97-2.01,1.3-4.1,1.3-6.42,0-.86-.08-1.46-.23-2.17.76.05,1.57.18,2.06.37.42.16.42.44.26.76-.13.23-.21.55-.21,1.28,0,2.22-.42,4.8-1.49,6.94-1.02,2.04-2.84,3.86-4.9,5.17-.26.16-.55.21-.78,0-.37-.34-.84-.6-1.41-.81,2.56-1.33,4.41-3.03,5.4-5.12Z"/>
        <path class="cls-5" d="M388.35,206.88c-1.54,0-2.98.05-4.39.16-.31.03-.42-.08-.47-.42-.03-.37-.1-1.18-.13-1.62,1.62.16,3.08.21,5.01.21h9.24c.76,0,1.02-.08,1.3-.23.21-.13.47-.1.68.03.44.31.86.71,1.18,1.07.21.29.18.57-.08.81-.24.21-.39.47-.58.89-1.25,3.32-3.08,6.26-5.12,8.56-2.11,2.38-4.51,4.52-7.75,6.29-.31.21-.65.21-.89-.05-.31-.31-.81-.65-1.36-.89,3.99-1.98,6.24-3.94,8.43-6.45,1.96-2.19,3.81-5.09,4.91-8.35h-9.99ZM405.39,202.71c0,1.46-1.17,2.64-2.64,2.64s-2.64-1.18-2.64-2.64,1.18-2.64,2.64-2.64,2.64,1.18,2.64,2.64ZM401.11,202.71c0,.91.73,1.64,1.64,1.64s1.64-.73,1.64-1.64-.73-1.64-1.64-1.64-1.64.73-1.64,1.64Z"/>
        <path class="cls-5" d="M413.28,206.42c0-1.64-.1-2.84-.29-3.78.71.08,1.62.26,2.14.42.34.1.34.39.24.63-.18.34-.26,1.1-.26,2.74v4.41c0,1.36.03,2.32.08,3.44,0,.31-.11.42-.39.42h-1.23c-.26,0-.37-.1-.34-.39.03-1.12.05-2.3.05-3.57v-4.31ZM424.22,211.11c0,4.05-.94,6.42-2.27,8.12-1.25,1.54-3.39,3-5.71,3.84-.29.1-.47.1-.73-.13-.37-.39-.76-.68-1.3-.96,2.66-.78,4.83-2.09,6.08-3.58,1.28-1.56,2.09-3.71,2.09-7.12v-4.49c0-2.56-.08-3.63-.29-4.57.78.08,1.64.24,2.22.42.31.11.31.39.18.65-.18.36-.26,1.15-.26,3.42v4.41Z"/>
      </g>
    </g>
  </g>
</svg>