<?xml version="1.0" encoding="utf-8"?>
<!-- Generator: Adobe Illustrator 28.3.0, SVG Export Plug-In . SVG Version: 6.00 Build 0)  -->
<svg version="1.1" id="_レイヤー_2" xmlns="http://www.w3.org/2000/svg" xmlns:xlink="http://www.w3.org/1999/xlink" x="0px"
	 y="0px" viewBox="0 0 440.9 204.7" style="enable-background:new 0 0 440.9 204.7;" xml:space="preserve">
<style type="text/css">
	.st0{fill:#F0B30C;}
	.st1{fill:#FFFFFF;}
	.st2{fill:#333333;}
	.st3{fill:#CCCCCC;}
	.st4{fill:#CC3327;}
	.st5{fill:#1D6CD4;}
	.st6{fill:#5AB834;}
</style>
<g id="_レイヤー_1-2">
	<g>
		<g>
			<g>
				<g>
					<path class="st0" d="M8,36.7c-3,0-5.5-2.5-5.5-5.5S5,25.7,8,25.7h73c3,0,5.5,2.5,5.5,5.5S84,36.7,81,36.7H8z"/>
					<path class="st1" d="M81,27.2c2.2,0,4,1.8,4,4s-1.8,4-4,4H8c-2.2,0-4-1.8-4-4s1.8-4,4-4L81,27.2 M81,24.2H8c-3.9,0-7,3.1-7,7
						s3.1,7,7,7h73c3.9,0,7-3.1,7-7S84.9,24.2,81,24.2C81,24.2,81,24.2,81,24.2z"/>
				</g>
				<g>
					<path class="st2" d="M8,120.2c-3.3,0-6-2.7-6-6s2.7-6,6-6h67v-57c0-3.3,2.7-6,6-6s6,2.7,6,6v63c0,3.3-2.7,6-6,6H8z"/>
					<path class="st1" d="M81,47.2c2.2,0,4,1.8,4,4v63c0,2.2-1.8,4-4,4H8c-2.2,0-4-1.8-4-4s1.8-4,4-4h69v-59
						C77,49,78.8,47.2,81,47.2 M81,43.2c-4.4,0-8,3.6-8,8v55H8c-4.4,0-8,3.6-8,8s3.6,8,8,8h73c4.4,0,8-3.6,8-8v-63
						C89,46.8,85.4,43.2,81,43.2L81,43.2z"/>
				</g>
			</g>
			<g>
				<g>
					<g>
						<path class="st3" d="M16.3,61.4c-2.4,0-4.3-1.9-4.3-4.3s1.9-4.3,4.3-4.3s4.3,1.9,4.3,4.3S18.7,61.4,16.3,61.4z"/>
						<path class="st1" d="M16.3,53.3c2.1,0,3.8,1.7,3.8,3.8s-1.7,3.8-3.8,3.8s-3.8-1.7-3.8-3.8S14.2,53.3,16.3,53.3 M16.3,52.3
							c-2.6,0-4.8,2.2-4.8,4.8s2.2,4.8,4.8,4.8s4.8-2.2,4.8-4.8S18.9,52.3,16.3,52.3L16.3,52.3z"/>
					</g>
					<g>
						<path class="st3" d="M28.3,61.4c-2.4,0-4.3-1.9-4.3-4.3s1.9-4.3,4.3-4.3h30.4c2.4,0,4.3,1.9,4.3,4.3s-1.9,4.3-4.3,4.3
							C58.7,61.4,28.3,61.4,28.3,61.4z"/>
						<path class="st1" d="M58.7,53.3c2.1,0,3.8,1.7,3.8,3.8s-1.7,3.8-3.8,3.8H28.3c-2.1,0-3.8-1.7-3.8-3.8s1.7-3.8,3.8-3.8H58.7
							 M58.7,52.3H28.3c-2.6,0-4.8,2.2-4.8,4.8s2.1,4.8,4.8,4.8h30.4c2.7,0,4.8-2.2,4.8-4.8S61.3,52.3,58.7,52.3L58.7,52.3z"/>
					</g>
				</g>
				<g>
					<g>
						<path class="st3" d="M16.3,77C13.9,77,12,75,12,72.7s1.9-4.3,4.3-4.3s4.3,1.9,4.3,4.3S18.7,77,16.3,77z"/>
						<path class="st1" d="M16.3,68.9c2.1,0,3.8,1.7,3.8,3.8s-1.7,3.8-3.8,3.8s-3.8-1.7-3.8-3.8S14.2,68.9,16.3,68.9 M16.3,67.9
							c-2.6,0-4.8,2.2-4.8,4.8s2.2,4.8,4.8,4.8s4.8-2.2,4.8-4.8S18.9,67.9,16.3,67.9L16.3,67.9z"/>
					</g>
					<g>
						<path class="st3" d="M28.3,77C25.9,77,24,75,24,72.7s1.9-4.3,4.3-4.3h30.4c2.4,0,4.3,1.9,4.3,4.3S61.1,77,58.7,77
							C58.7,77,28.3,77,28.3,77z"/>
						<path class="st1" d="M58.7,68.9c2.1,0,3.8,1.7,3.8,3.8s-1.7,3.8-3.8,3.8H28.3c-2.1,0-3.8-1.7-3.8-3.8s1.7-3.8,3.8-3.8H58.7
							 M58.7,67.9H28.3c-2.6,0-4.8,2.2-4.8,4.8s2.1,4.8,4.8,4.8h30.4c2.7,0,4.8-2.2,4.8-4.8S61.3,67.9,58.7,67.9L58.7,67.9z"/>
					</g>
				</g>
				<g>
					<g>
						<path class="st3" d="M16.3,92.6c-2.4,0-4.3-1.9-4.3-4.3s1.9-4.3,4.3-4.3s4.3,1.9,4.3,4.3S18.7,92.6,16.3,92.6z"/>
						<path class="st1" d="M16.3,84.5c2.1,0,3.8,1.7,3.8,3.8s-1.7,3.8-3.8,3.8s-3.8-1.7-3.8-3.8S14.2,84.5,16.3,84.5 M16.3,83.5
							c-2.6,0-4.8,2.2-4.8,4.8s2.2,4.8,4.8,4.8s4.8-2.2,4.8-4.8S18.9,83.5,16.3,83.5L16.3,83.5z"/>
					</g>
					<g>
						<path class="st3" d="M28.3,92.6c-2.4,0-4.3-1.9-4.3-4.3s1.9-4.3,4.3-4.3h30.4c2.4,0,4.3,1.9,4.3,4.3s-1.9,4.3-4.3,4.3
							C58.7,92.6,28.3,92.6,28.3,92.6z"/>
						<path class="st1" d="M58.7,84.5c2.1,0,3.8,1.7,3.8,3.8s-1.7,3.8-3.8,3.8H28.3c-2.1,0-3.8-1.7-3.8-3.8s1.7-3.8,3.8-3.8H58.7
							 M58.7,83.5H28.3c-2.6,0-4.8,2.2-4.8,4.8s2.1,4.8,4.8,4.8h30.4c2.7,0,4.8-2.2,4.8-4.8S61.3,83.5,58.7,83.5L58.7,83.5z"/>
					</g>
				</g>
			</g>
			<g>
				<g>
					<path class="st2" d="M137,120.2c-3,0-5.5-2.5-5.5-5.5v-84c0-3,2.5-5.5,5.5-5.5s5.5,2.5,5.5,5.5v84
						C142.5,117.7,140,120.2,137,120.2z"/>
					<path class="st1" d="M137,26.7c2.2,0,4,1.8,4,4v84c0,2.2-1.8,4-4,4s-4-1.8-4-4v-84C133,28.5,134.8,26.7,137,26.7 M137,23.7
						c-3.9,0-7,3.1-7,7v84c0,3.9,3.1,7,7,7s7-3.1,7-7v-84C144,26.8,140.9,23.7,137,23.7L137,23.7z"/>
				</g>
				<g>
					<path class="st4" d="M157,119.7c-1.5,0-2.9-0.6-3.9-1.6s-1.6-2.4-1.6-3.9s0.6-2.8,1.6-3.9l38.1-38.1c1-1,2.4-1.6,3.9-1.6
						s2.9,0.6,3.9,1.6s1.6,2.4,1.6,3.9s-0.6,2.8-1.6,3.9L160.9,118C159.9,119.1,158.5,119.6,157,119.7z"/>
					<path class="st1" d="M195.1,72c1,0,2.1,0.4,2.8,1.2c1.6,1.6,1.6,4.1,0,5.7L159.8,117c-0.8,0.8-1.8,1.2-2.8,1.2
						s-2.1-0.4-2.8-1.2c-1.6-1.6-1.6-4.1,0-5.7l38.1-38.1C193.1,72.4,194.1,72,195.1,72 M195.1,69c-1.9,0-3.6,0.7-4.9,2.1
						l-38.1,38.1c-1.3,1.3-2.1,3.1-2.1,4.9s0.7,3.6,2.1,4.9s3.1,2.1,4.9,2.1s3.6-0.7,4.9-2.1L200.1,81c1.3-1.3,2.1-3.1,2.1-4.9
						s-0.7-3.6-2.1-4.9S197,69,195.1,69L195.1,69z"/>
				</g>
			</g>
			<g>
				<g>
					<circle class="st5" cx="274.8" cy="15" r="13.5"/>
					<path class="st1" d="M274.8,3c6.6,0,12,5.4,12,12s-5.4,12-12,12s-12-5.4-12-12S268.2,3,274.8,3 M274.8,0c-8.3,0-15,6.7-15,15
						s6.7,15,15,15s15-6.7,15-15S283.1,0,274.8,0L274.8,0z"/>
				</g>
				<g>
					<g>
						<path class="st2" d="M240,45.5c-3,0-5.5-2.5-5.5-5.5s2.5-5.5,5.5-5.5h74.9c3,0,5.5,2.5,5.5,5.5s-2.5,5.5-5.5,5.5H240z"/>
						<path class="st1" d="M314.9,36c2.2,0,4,1.8,4,4s-1.8,4-4,4H240c-2.2,0-4-1.8-4-4s1.8-4,4-4H314.9 M314.9,33H240
							c-3.9,0-7,3.1-7,7s3.1,7,7,7h74.9c3.9,0,7-3.1,7-7S318.7,33,314.9,33L314.9,33z"/>
					</g>
					<g>
						<path class="st2" d="M235.1,117.9c-0.8,0-1.6-0.2-2.3-0.5c-1.3-0.6-2.4-1.7-2.9-3.1c-0.5-1.4-0.5-2.9,0.1-4.2l24-52.4
							c0.9-2,2.9-3.2,5-3.2c0.8,0,1.6,0.2,2.3,0.5c2.8,1.3,4,4.5,2.7,7.3l-24,52.4C239.2,116.6,237.2,117.9,235.1,117.9L235.1,117.9
							z"/>
						<path class="st1" d="M259.1,56c0.6,0,1.1,0.1,1.7,0.4c2,0.9,2.9,3.3,2,5.3l-24,52.4c-0.7,1.5-2.1,2.3-3.6,2.3
							c-0.6,0-1.1-0.1-1.7-0.4c-2-0.9-2.9-3.3-2-5.3l24-52.4C256.1,56.9,257.6,56,259.1,56 M259.1,53L259.1,53
							c-2.7,0-5.2,1.6-6.4,4.1l-24,52.4c-0.8,1.7-0.9,3.6-0.2,5.3c0.6,1.8,1.9,3.2,3.6,3.9c0.9,0.4,1.9,0.6,2.9,0.6
							c2.7,0,5.2-1.6,6.4-4.1l24-52.4c1.6-3.5,0.1-7.7-3.5-9.3C261.1,53.2,260.1,53,259.1,53L259.1,53L259.1,53z"/>
					</g>
					<g>
						<path class="st2" d="M289.8,119.7c-0.9,0-1.9-0.2-2.7-0.7l-9-5c-2.6-1.5-3.6-4.8-2.1-7.5c1-1.8,2.8-2.8,4.8-2.8
							c0.9,0,1.9,0.2,2.7,0.7l3.2,1.8l22.9-67.9c0.8-2.2,2.9-3.7,5.2-3.7c0.6,0,1.2,0.1,1.8,0.3c1.4,0.5,2.5,1.5,3.2,2.8
							c0.6,1.3,0.8,2.8,0.3,4.2L295,115.9c-0.5,1.6-1.7,2.8-3.2,3.4C291.1,119.5,290.5,119.7,289.8,119.7L289.8,119.7z"/>
						<path class="st1" d="M314.9,36c0.4,0,0.9,0.1,1.3,0.2c2.1,0.7,3.2,3,2.5,5.1l-25.1,74.1c-0.4,1.1-1.2,2-2.4,2.4
							c-0.5,0.2-1,0.3-1.4,0.3c-0.7,0-1.3-0.2-1.9-0.5l-9-5c-1.9-1.1-2.6-3.5-1.5-5.4c0.7-1.3,2.1-2.1,3.5-2.1
							c0.7,0,1.3,0.2,1.9,0.5l4.8,2.7l23.5-69.6C311.6,37,313.2,36,314.9,36 M314.9,33L314.9,33c-3,0-5.7,1.9-6.6,4.8L285.9,104
							l-1.7-0.9c-1-0.6-2.2-0.9-3.4-0.9c-2.5,0-4.9,1.4-6.1,3.6c-1.9,3.4-0.6,7.6,2.7,9.5l9,5c1,0.6,2.2,0.9,3.4,0.9
							c0.9,0,1.7-0.2,2.5-0.5c1.9-0.8,3.4-2.3,4.1-4.3l25.1-74.1c0.6-1.8,0.5-3.7-0.4-5.3s-2.3-2.9-4-3.5
							C316.4,33.1,315.6,33,314.9,33L314.9,33L314.9,33z"/>
					</g>
				</g>
			</g>
			<g>
				<g>
					<path class="st2" d="M354.8,58.3c-1.5,0-2.9-0.6-3.9-1.7c-1-1-1.6-2.4-1.6-3.9l0.1-12.8c0-3,2.5-5.5,5.5-5.5
						c1.5,0,2.9,0.6,3.9,1.7c1,1,1.6,2.4,1.6,3.9l-0.1,12.8C360.3,55.8,357.9,58.3,354.8,58.3L354.8,58.3L354.8,58.3z"/>
					<path class="st1" d="M355,36c2.2,0,4,1.8,4,4l-0.1,12.8c0,2.2-1.8,4-4,4h0c-2.2,0-4-1.8-4-4L351,40C351,37.8,352.8,36,355,36
						L355,36 M355,33L355,33c-3.9,0-7,3.1-7,6.9l-0.1,12.8c0,3.9,3.1,7,6.9,7.1c0,0,0.1,0,0.1,0c3.8,0,7-3.1,7-6.9l0.1-12.8
						C362,36.2,358.9,33,355,33C355,33,355,33,355,33L355,33z"/>
				</g>
				<g>
					<circle class="st2" cx="396.5" cy="15" r="13.5"/>
					<path class="st1" d="M396.5,3c6.6,0,12,5.4,12,12s-5.4,12-12,12s-12-5.4-12-12S389.8,3,396.5,3 M396.5,0c-8.3,0-15,6.7-15,15
						s6.7,15,15,15s15-6.7,15-15S404.7,0,396.5,0L396.5,0z"/>
				</g>
				<g>
					<g>
						<path class="st2" d="M371,45.5c-3,0-5.5-2.5-5.5-5.5s2.5-5.5,5.5-5.5h62.9c3,0,5.5,2.5,5.5,5.5s-2.5,5.5-5.5,5.5H371L371,45.5
							z"/>
						<path class="st1" d="M433.9,36c2.2,0,4,1.8,4,4s-1.8,4-4,4H371c-2.2,0-4-1.8-4-4s1.8-4,4-4H433.9 M433.9,33H371
							c-3.9,0-7,3.1-7,7s3.1,7,7,7h62.9c3.9,0,7-3.1,7-7S437.8,33,433.9,33L433.9,33L433.9,33z"/>
					</g>
					<g>
						<path class="st6" d="M390.8,119.7c-1.5,0-3-0.5-4-1.4s-1.6-2.1-1.5-3.4c0.1-1.3,0.8-2.5,2-3.3c0.2-0.1,17.7-11.8,27-23.1
							c9.2-11.2,14-30.1,14.1-30.3c0.5-2.1,2.7-3.6,5.4-3.6c0.3,0,0.6,0,0.9,0.1c1.6,0.2,3.1,1,3.9,2.2c0.6,1,0.8,2.1,0.6,3.1
							c-0.2,0.8-5.2,20.9-15.8,33.6c-10.3,12.5-28.5,24.5-29.2,25C393.3,119.3,392.1,119.7,390.8,119.7L390.8,119.7z"/>
						<path class="st1" d="M433.9,56.1c0.2,0,0.5,0,0.7,0c2.2,0.3,3.6,1.9,3.2,3.5c-0.2,0.8-5.2,20.6-15.5,33
							c-10.2,12.3-28.1,24.2-28.9,24.7c-0.8,0.5-1.7,0.8-2.6,0.8c-1.1,0-2.2-0.3-3-1c-1.5-1.3-1.3-3.2,0.4-4.3
							c0.2-0.1,17.8-11.8,27.4-23.4c9.5-11.5,14.3-30.7,14.4-30.9C430.3,57.1,432,56.1,433.9,56.1 M433.9,53.1L433.9,53.1
							c-3.3,0-6.1,2-6.8,4.8c0,0.2-4.8,18.8-13.8,29.7c-9.3,11.2-26.5,22.7-26.7,22.8c-1.6,1.1-2.6,2.7-2.7,4.4
							c-0.1,1.7,0.6,3.4,2,4.6c1.3,1.1,3.1,1.8,5,1.8c1.5,0,3.1-0.4,4.3-1.2c0.8-0.5,19.1-12.7,29.6-25.3
							c10.7-13,15.9-33.4,16.1-34.2c0.4-1.5,0.1-3-0.8-4.3c-1-1.5-2.8-2.6-4.9-2.9C434.7,53.1,434.3,53.1,433.9,53.1L433.9,53.1
							L433.9,53.1z"/>
					</g>
				</g>
			</g>
		</g>
		<g>
			<path d="M146.5,155.6l5.5-5.5h1l-5.6,5.6l6,6.1h-1.1l-5.5-5.5l-0.3,0.3v5.2h-0.8v-11.6h0.8V155.6L146.5,155.6z"/>
			<path d="M177.3,158.2c0,2.1-1.6,3.7-3.7,3.7s-3.7-1.6-3.7-3.7s1.6-3.7,3.7-3.7S177.3,156.1,177.3,158.2z M176.6,158.2
				c0-1.7-1.3-3.1-3-3.1s-3,1.3-3,3.1s1.3,3.1,3,3.1S176.6,160,176.6,158.2z"/>
			<path d="M196.1,154.7h0.7v0.9c0.3-0.6,0.8-1.1,1.6-1.1c0.2,0,0.5,0,0.8,0.2l-0.4,0.6c-0.1-0.1-0.2-0.1-0.5-0.1
				c-1.4,0-1.4,1.9-1.4,2.8v3.8h-0.7V154.7z"/>
			<path d="M218.9,158.3c0,1.8,1.3,3,2.8,3c1.1,0,2-0.7,2.5-1.6l0.6,0.4c-0.4,0.8-1.4,1.9-3.1,1.9c-2.2,0-3.5-1.6-3.5-3.7
				c0-2.5,1.7-3.7,3.4-3.7c1.9,0,3.4,1.5,3.4,3.8L218.9,158.3L218.9,158.3z M224.2,157.6c-0.2-1.4-1.2-2.5-2.6-2.5s-2.5,1.1-2.7,2.5
				H224.2z"/>
			<path d="M242.5,155.6l5.5-5.5h1l-5.6,5.6l6,6.1h-1.1l-5.5-5.5l-0.3,0.3v5.2h-0.8v-11.6h0.8V155.6L242.5,155.6z"/>
			<path d="M272.3,154.7h0.7v7.1h-0.7v-1.3c-0.7,1.1-1.9,1.5-2.8,1.5c-1.9,0-3.5-1.4-3.5-3.7c0-2.2,1.4-3.7,3.5-3.7
				c1.1,0,2.1,0.4,2.8,1.4V154.7L272.3,154.7z M266.8,158.2c0,1.6,1,3.1,2.8,3.1s2.8-1.5,2.8-3.1c0-2.1-1.5-3-2.8-3
				C268.2,155.2,266.8,156.2,266.8,158.2L266.8,158.2z"/>
			<path d="M291.7,154.7v4.3c0,0.5,0,1.3,0.5,1.8c0.4,0.5,1.1,0.6,1.4,0.6s1-0.1,1.4-0.6c0.4-0.5,0.5-1.3,0.5-1.8v-4.3h0.7v4.5
				c0,0.6,0,1.3-0.5,1.9c-0.5,0.7-1.4,0.9-2,0.9s-1.5-0.2-2-0.9c-0.5-0.6-0.5-1.4-0.5-1.9v-4.5H291.7L291.7,154.7z"/>
		</g>
	</g>
</g>
<g>
	<path class="st2" d="M65,195.6c0.1-0.1,0.1-0.1,0.3-0.1c1,0.4,2,0.9,2.8,1.5c0.2,0.1,0.1,0.2,0.1,0.3c-0.1,0.2-0.3,0.5-0.4,0.7
		c-0.1,0.1-0.2,0.1-0.3,0c-0.9-0.7-1.9-1.2-3-1.6C64.7,196.1,64.9,195.7,65,195.6z M67.5,201.7c1.5-0.8,2.9-1.6,4.4-2.8
		c1.4-1.1,3.1-2.6,4.6-4.5c0.1,0.4,0.1,0.7,0.3,1c0.1,0.2,0,0.3-0.1,0.4c-1.4,1.6-2.8,2.8-4.3,4c-1.4,1.1-3,2.1-4.7,3
		c-0.4,0.2-0.6,0.4-0.8,0.5c-0.1,0.1-0.3,0.1-0.5,0c-0.2-0.2-0.5-0.7-0.8-1.1C66.3,202.2,66.8,202.1,67.5,201.7z M66.9,191.9
		c0.1-0.1,0.1-0.1,0.3-0.1c1,0.4,1.9,1,2.8,1.7c0.1,0.1,0.1,0.2,0,0.3c-0.1,0.2-0.3,0.5-0.5,0.7c-0.1,0.1-0.2,0.1-0.3,0
		c-0.8-0.7-1.8-1.4-2.9-1.8C66.5,192.4,66.7,192.1,66.9,191.9z"/>
	<path class="st2" d="M85.4,192.8c0.1-0.1,0.2-0.1,0.3,0c0.9,0.5,2,1.3,2.9,2.1c0.1,0.1,0.1,0.2,0,0.3c-0.1,0.2-0.4,0.6-0.5,0.7
		c-0.1,0.1-0.1,0.1-0.3,0c-1-0.9-2-1.8-3.1-2.4C85,193.2,85.2,193,85.4,192.8z M86.9,201.3c1.7-0.9,3.2-1.8,4.7-3
		c1.6-1.3,3-2.5,4.4-4.3c0.1,0.5,0.2,0.8,0.3,1.1c0.1,0.2,0.1,0.3-0.1,0.6c-1.1,1.3-2.5,2.6-3.9,3.7c-1.4,1.1-3,2.1-4.8,3.1
		c-0.4,0.3-0.7,0.5-0.9,0.6c-0.2,0.1-0.3,0.1-0.4,0c-0.2-0.3-0.5-0.6-0.8-1.1C85.8,201.8,86.3,201.6,86.9,201.3z"/>
	<path class="st2" d="M107.4,194.2c-1,0-1.8,0-2.7,0.1c-0.2,0-0.3,0-0.3-0.3c0-0.2-0.1-0.7-0.1-1c1,0.1,1.9,0.1,3.1,0.1h5.7
		c0.5,0,0.6,0,0.8-0.1c0.1-0.1,0.3-0.1,0.4,0c0.3,0.2,0.5,0.4,0.7,0.7c0.1,0.2,0.1,0.4,0,0.5c-0.1,0.1-0.2,0.3-0.4,0.5
		c-0.8,2-1.9,3.9-3.2,5.3c-1.3,1.5-2.8,2.8-4.8,3.9c-0.2,0.1-0.4,0.1-0.5,0c-0.2-0.2-0.5-0.4-0.8-0.5c2.5-1.2,3.9-2.4,5.2-4
		c1.2-1.4,2.4-3.1,3-5.2H107.4z M117.9,191.6c0,0.9-0.7,1.6-1.6,1.6c-0.9,0-1.6-0.7-1.6-1.6c0-0.9,0.7-1.6,1.6-1.6
		C117.2,190,117.9,190.7,117.9,191.6z M115.3,191.6c0,0.6,0.5,1,1,1c0.6,0,1-0.5,1-1c0-0.6-0.5-1-1-1
		C115.7,190.6,115.3,191,115.3,191.6z"/>
	<path class="st2" d="M127.6,193.6c0.2,0.1,0.2,0.2,0.1,0.4c-0.1,0.2-0.1,0.6-0.2,1.3c-0.1,1.8-0.4,3.2-1,4.4
		c-0.6,1.2-1.4,2.1-2.3,2.9c-0.2,0.2-0.3,0.2-0.5,0.1c-0.2-0.2-0.5-0.3-0.9-0.4c1.1-0.8,2-1.7,2.6-3c0.5-1.1,0.9-2.4,0.9-4.2
		c0-0.7,0-1.1-0.1-1.7C126.8,193.4,127.3,193.5,127.6,193.6z M131,200.9c1.1-0.6,1.9-1.1,2.7-1.7c0.9-0.7,1.9-1.5,2.9-2.7
		c0,0.4,0.1,0.7,0.3,1c0.1,0.1,0.1,0.2-0.1,0.4c-0.8,0.8-1.7,1.6-2.5,2.3c-0.9,0.6-1.8,1.2-2.8,1.8c-0.3,0.2-0.4,0.2-0.5,0.4
		c-0.1,0.1-0.3,0.1-0.4,0c-0.2-0.2-0.5-0.4-0.6-0.6c-0.1-0.1-0.1-0.3,0-0.4c0-0.2,0.1-0.5,0.1-1.6v-4.6c0-1.5,0-2.3-0.2-2.8
		c0.4,0,1,0.1,1.3,0.2c0.2,0.1,0.2,0.2,0.1,0.5c-0.1,0.2-0.1,0.8-0.1,2.1V200.9z"/>
	<path class="st2" d="M151.5,193.4c0.1,0,0.2,0,0.2,0.1c0,0.2,0.1,0.5,0.1,0.7c0,0.1,0,0.2-0.1,0.2c-0.9,0.2-1.7,0.3-2.7,0.5
		c-0.9,2.5-2.1,5-3.2,6.8c-0.1,0.1-0.2,0.1-0.3,0c-0.2-0.1-0.5-0.3-0.6-0.5c-0.1-0.1-0.1-0.1,0-0.3c1.3-2,2.3-3.9,3-6
		c-0.7,0.1-1.3,0.1-2,0.1c-0.2,0-0.5,0-0.9,0c-0.1,0-0.2,0-0.2-0.2c0-0.2-0.1-0.5-0.1-0.8c0.5,0,0.9,0.1,1.3,0.1
		c0.7,0,1.4,0,2.2-0.1c0.2-0.6,0.3-1.2,0.5-1.9c0.1-0.5,0.1-0.8,0.1-1.3c0.5,0.1,0.9,0.2,1.3,0.3c0.1,0,0.1,0.1,0.1,0.2
		c0,0.1,0,0.1-0.1,0.2c-0.1,0.1-0.1,0.2-0.2,0.5c-0.2,0.6-0.4,1.2-0.5,1.7C150,193.7,150.7,193.6,151.5,193.4z M152.5,197.3
		c0-0.3,0-0.6-0.1-1c0.4,0,0.8,0.1,1.1,0.2c0.1,0,0.2,0.1,0.2,0.2c0,0.1,0,0.1-0.1,0.3c-0.1,0.2-0.1,0.4-0.1,0.8c0,1,0.1,1.9,0.2,3
		c1.2,0.5,2.1,0.9,3,1.6c0.1,0.1,0.1,0.1,0.1,0.3c-0.1,0.2-0.3,0.5-0.4,0.7c-0.1,0.1-0.2,0.1-0.3,0c-0.7-0.6-1.6-1.1-2.5-1.5
		c0,1.6-0.8,2.5-2.9,2.5c-1.2,0-2.5-0.6-2.5-2c0-1.2,1.2-2,2.7-2c0.5,0,1.1,0.1,1.6,0.2C152.6,199.4,152.5,198.2,152.5,197.3z
		 M151.1,201.1c-1.3,0-1.9,0.5-1.9,1.1c0,0.7,0.6,1.1,1.7,1.1c1.3,0,1.8-0.7,1.8-1.5c0-0.2,0-0.3,0-0.4
		C152.2,201.2,151.6,201.1,151.1,201.1z M153.9,193.9c0.1-0.1,0.1-0.1,0.3-0.1c1.1,0.3,2.2,0.9,3.2,1.5c0.1,0.1,0.1,0.2,0,0.3
		c-0.1,0.2-0.2,0.5-0.4,0.6c-0.1,0.1-0.1,0.1-0.2,0c-0.9-0.7-2.1-1.3-3.3-1.6C153.6,194.4,153.7,194.1,153.9,193.9z"/>
	<path class="st2" d="M169.9,203.1c-0.2,0-0.3,0.1-0.5,0.2c-1,0.5-2.3,1.1-3.9,1.4c-0.3,0.1-0.3,0-0.5-0.2c-0.1-0.2-0.3-0.4-0.5-0.6
		c1.5-0.2,3.1-0.7,4-1.2c0.2-0.1,0.4-0.3,0.5-0.4c0.3,0.2,0.5,0.3,0.7,0.5c0.1,0.1,0.2,0.1,0.2,0.2
		C170.1,203,170.1,203.1,169.9,203.1z M178.1,193.2c0,0.8,0,1,0,1.1c0,0.1,0,0.1-0.1,0.1c-0.1,0-0.7,0-2.3,0h-8c-1.6,0-2.1,0-2.2,0
		c-0.1,0-0.1,0-0.1-0.1c0-0.1,0-0.3,0-1.1v-0.9c0-0.8,0-1,0-1.1c0-0.1,0-0.1,0.1-0.1c0.1,0,0.6,0,2.2,0h8c1.6,0,2.2,0,2.3,0
		c0.1,0,0.1,0,0.1,0.1c0,0.1,0,0.3,0,1.1V193.2z M169.3,191.9h-3v1.7h3V191.9z M176.7,200.3c0,1.2,0,1.6,0,1.7c0,0.1,0,0.1-0.1,0.1
		c-0.1,0-0.7,0-2.3,0h-5c-1.6,0-2.2,0-2.3,0c-0.1,0-0.1,0-0.1-0.1c0-0.1,0-0.5,0-1.7v-3.2c0-1.2,0-1.6,0-1.7c0-0.1,0-0.1,0.1-0.1
		c0.1,0,0.7,0,2.3,0h5c1.6,0,2.2,0,2.3,0c0.1,0,0.1,0,0.1,0.1c0,0.1,0,0.5,0,1.7V200.3z M175.7,196.1h-7.9v1.2h7.9V196.1z
		 M175.7,198.1h-7.9v1.2h7.9V198.1z M175.7,200h-7.9v1.3h7.9V200z M173.2,191.9h-3v1.7h3V191.9z M173.9,202.4c0.1-0.1,0.2-0.1,0.3,0
		c1.2,0.8,2.8,1.4,4.5,1.6c-0.2,0.2-0.3,0.4-0.4,0.6c-0.1,0.3-0.1,0.3-0.5,0.3c-1.4-0.3-3.2-1.1-4.4-1.9c-0.1-0.1-0.1-0.1,0.1-0.2
		L173.9,202.4z M177.2,191.9h-3.1v1.7h3.1V191.9z"/>
	<path class="st2" d="M188.6,193c0.1,0,0.1,0.1,0.1,0.2c0,0.1,0,0.2-0.1,0.3c-0.1,0.2-0.1,0.6-0.1,1.5c0,1,0,2,0.2,3.7
		c0.2,1.9,0.9,3.3,1.7,3.3c0.6,0,1.3-1,1.7-2.5c0.2,0.4,0.3,0.6,0.5,0.8c0.1,0.1,0.2,0.2,0.1,0.4c-0.5,1.3-1.3,2.5-2.4,2.5
		c-1.4,0-2.4-1.9-2.7-4.4c-0.2-1.6-0.3-3.4-0.3-4.5c0-0.6,0-1-0.1-1.5C187.8,192.7,188.3,192.8,188.6,193z M196.3,194.2
		c0.1,0,0.2-0.1,0.2,0c1.6,1.4,2.7,3.4,3.1,5.6c0,0.1,0,0.2-0.1,0.2c-0.2,0.2-0.5,0.3-0.7,0.4c-0.1,0-0.2,0-0.2-0.1
		c-0.5-2.5-1.5-4.2-3-5.6C195.9,194.5,196.1,194.3,196.3,194.2z"/>
	<path class="st2" d="M212.8,194.6c0,0.1,0,0.1-0.1,0.1c-0.1,0-0.4,0-1.5,0H211v3.3c0.5-0.3,1.1-0.6,1.7-1c0,0.2,0,0.4,0,0.6
		c0,0.3,0,0.3-0.3,0.5c-0.5,0.3-1,0.5-1.5,0.8v2.9c0,1.9,0,2.8,0,2.9c0,0.1,0,0.1-0.1,0.1h-0.7c-0.1,0-0.1,0-0.1-0.1
		c0-0.1,0-0.9,0-2.8v-2.5c-0.5,0.2-0.9,0.4-1.4,0.6c-0.3,0.1-0.5,0.2-0.5,0.3c-0.1,0.1-0.2,0.1-0.2,0.1c-0.1,0-0.1,0-0.2-0.1
		c-0.1-0.3-0.3-0.6-0.4-0.9c0.4-0.1,0.9-0.2,1.4-0.5c0.5-0.2,0.9-0.4,1.4-0.5v-3.8h-1.4c-0.1,0.7-0.3,1.4-0.5,2.1
		c0,0.2-0.1,0.2-0.1,0.2c-0.1,0-0.1,0-0.3-0.1c-0.2-0.1-0.4-0.1-0.6-0.2c0.5-1.5,0.7-2.9,0.8-4.2c0-0.3,0-0.6,0-0.9
		c0.3,0,0.6,0.1,0.9,0.1c0.1,0,0.2,0.1,0.2,0.1c0,0.1,0,0.1-0.1,0.2c0,0.1-0.1,0.2-0.1,0.4l-0.1,1.2h1.3v-1.3c0-1.1,0-1.6-0.1-2.2
		c0.4,0,0.7,0,1,0.1c0.1,0,0.2,0.1,0.2,0.1c0,0.1,0,0.2-0.1,0.3c-0.1,0.2-0.1,0.6-0.1,1.7v1.3h0.1c1.1,0,1.5,0,1.5,0
		c0.1,0,0.1,0,0.1,0.1V194.6z M219.1,193.5c1.4,0,1.8,0,1.9,0c0.1,0,0.2,0,0.2,0.2c0,0.4,0,0.7,0,1.1c0,3.3-0.2,5.4-0.5,7.4
		c-0.3,1.6-0.8,2.4-2.1,2.4c-0.4,0-0.9,0-1.4-0.1c-0.3,0-0.3,0-0.4-0.4c-0.1-0.3-0.1-0.5-0.2-0.7c0.7,0.1,1.3,0.2,1.9,0.2
		c0.8,0,1.1-0.7,1.3-1.8c0.3-2,0.5-3.9,0.5-7.5h-0.8c-1.1,4.5-2.7,7.3-5.8,9.6c-0.1,0.1-0.2,0.1-0.2,0.1c-0.1,0-0.1-0.1-0.2-0.2
		c-0.2-0.2-0.4-0.4-0.5-0.5c3.1-2.1,4.9-4.9,5.9-9h-1.6c-0.8,2.8-1.9,4.4-3.7,5.9c-0.1,0.1-0.2,0.1-0.2,0.1c-0.1,0-0.1-0.1-0.2-0.2
		c-0.2-0.2-0.4-0.4-0.5-0.4c1.8-1.3,3.1-2.9,3.8-5.4h-1.5c-0.4,0.6-0.8,1.2-1.3,1.9c-0.1,0.1-0.2,0.2-0.2,0.2c-0.1,0-0.1,0-0.2-0.2
		c-0.2-0.2-0.3-0.3-0.5-0.4c1.3-1.4,2.1-2.8,2.5-4.3c0.2-0.5,0.3-0.9,0.3-1.4c0.4,0.1,0.6,0.1,0.9,0.2c0.1,0,0.2,0.1,0.2,0.2
		c0,0.1,0,0.2-0.1,0.3c-0.1,0.1-0.2,0.4-0.3,0.8c-0.2,0.6-0.4,1.2-0.7,1.8H219.1z"/>
	<path class="st2" d="M230.7,193.9c0-1-0.1-1.8-0.2-2.3c0.4,0,1,0.2,1.3,0.3c0.2,0.1,0.2,0.2,0.1,0.4c-0.1,0.2-0.2,0.7-0.2,1.7v2.7
		c0,0.8,0,1.4,0,2.1c0,0.2-0.1,0.3-0.2,0.3h-0.8c-0.2,0-0.2-0.1-0.2-0.2c0-0.7,0-1.4,0-2.2V193.9z M237.5,196.8c0,2.5-0.6,4-1.4,5
		c-0.8,1-2.1,1.9-3.5,2.4c-0.2,0.1-0.3,0.1-0.5-0.1c-0.2-0.2-0.5-0.4-0.8-0.6c1.6-0.5,3-1.3,3.8-2.2c0.8-1,1.3-2.3,1.3-4.4v-2.8
		c0-1.6,0-2.2-0.2-2.8c0.5,0,1,0.1,1.4,0.3c0.2,0.1,0.2,0.2,0.1,0.4c-0.1,0.2-0.2,0.7-0.2,2.1V196.8z"/>
	<path class="st2" d="M255.4,192.8c0.5,0,0.7,0,0.9-0.1c0.1-0.1,0.2,0,0.3,0c0.2,0.2,0.5,0.4,0.7,0.7c0.1,0.1,0.1,0.2-0.1,0.4
		c-0.2,0.1-0.3,0.3-0.5,0.6c-0.7,1.2-1.5,2.4-2.4,3.5c1.7,1.2,3.2,2.5,4.6,4c0.1,0.1,0.1,0.2,0,0.3c-0.2,0.2-0.4,0.4-0.6,0.6
		c-0.1,0.1-0.2,0.1-0.3,0c-1.4-1.5-2.9-2.9-4.5-4.1c-1.8,1.9-3.8,3.4-5.8,4.5c-0.2,0.1-0.3,0.1-0.4,0c-0.2-0.2-0.5-0.4-0.8-0.6
		c2.4-1.2,4.3-2.7,5.9-4.4c1-1.1,2.1-2.5,3.1-4.3h-4.9c-0.9,0-1.6,0-2.3,0.1c-0.1,0-0.2,0-0.2-0.2c0-0.2-0.1-0.7-0.1-1
		c0.8,0.1,1.5,0.1,2.5,0.1H255.4z"/>
	<path class="st2" d="M271.3,195.7c1.9,0.5,3.6,1.3,5.3,2.2c0.1,0.1,0.2,0.1,0.1,0.3c-0.1,0.3-0.3,0.6-0.4,0.8
		c-0.1,0.1-0.2,0.2-0.3,0.1c-1.5-1-3.2-1.7-4.7-2.2v3.7c0,1,0,2.2,0,3.3c0,0.2,0,0.2-0.2,0.2c-0.2,0-0.6,0-0.8,0
		c-0.2,0-0.2,0-0.2-0.2c0-1,0.1-2.3,0.1-3.3v-7.2c0-1.2-0.1-2-0.2-2.6c0.6,0,1,0.1,1.3,0.2c0.3,0.1,0.2,0.2,0.1,0.5
		c-0.1,0.3-0.1,0.8-0.1,1.8V195.7z"/>
	<path class="st2" d="M291.4,192.3c0,0.1,0,0.1-0.1,0.1c-0.1,0-0.5,0-1.7,0H289c0.2,0.4,0.4,0.8,0.6,1.3c0,0.1,0,0.1-0.1,0.2
		l-0.5,0.2c-0.2,0.1-0.2,0-0.3-0.1c-0.2-0.5-0.4-1-0.6-1.6h-1.5c-0.4,0.6-0.8,1.1-1.3,1.5c-0.1,0.1-0.2,0.1-0.2,0.1
		c-0.1,0-0.1,0-0.2-0.1c-0.2-0.2-0.3-0.3-0.5-0.3c1-0.8,1.7-1.7,2.2-2.8c0.1-0.2,0.2-0.4,0.2-0.7c0.3,0,0.6,0.1,0.9,0.2
		c0.1,0,0.2,0.1,0.2,0.2c0,0.1,0,0.1-0.1,0.2c-0.1,0.1-0.1,0.2-0.3,0.4c-0.1,0.2-0.2,0.3-0.3,0.5h2.5c1.3,0,1.6,0,1.7,0
		c0.1,0,0.1,0,0.1,0.1V192.3z M297.9,195.9c0,1.2,0,1.4,0,1.4c0,0.1,0,0.1-0.1,0.1h-0.7c-0.1,0-0.1,0-0.1-0.1v-1.8h-11v1.8
		c0,0.1,0,0.1-0.1,0.1h-0.7c-0.1,0-0.1,0-0.1-0.1c0-0.1,0-0.3,0-1.4v-0.4c0-0.4,0-0.6,0-0.7c0-0.1,0-0.1,0.1-0.1c0.1,0,0.7,0,2.2,0
		h3.5c0-0.4,0-0.8-0.1-1.2c0.4,0,0.8,0,1,0.1c0.1,0,0.2,0.1,0.2,0.1c0,0.1,0,0.2-0.1,0.3c-0.1,0.1-0.1,0.4-0.1,0.7h3.8
		c1.6,0,2.2,0,2.3,0c0.1,0,0.1,0,0.1,0.1c0,0.1,0,0.3,0,0.6V195.9z M296.3,203.4c0,0.9,0,1.1,0,1.2c0,0.1,0,0.1-0.1,0.1h-0.7
		c-0.1,0-0.1,0-0.1-0.1V204h-7v0.7c0,0.1,0,0.1-0.1,0.1h-0.7c-0.1,0-0.1,0-0.1-0.1c0-0.1,0-0.6,0-1.9v-4.2c0-1.3,0-1.8,0-1.9
		c0-0.1,0-0.1,0.1-0.1c0.1,0,0.8,0,2.2,0h3.4c1.5,0,2,0,2.1,0c0.1,0,0.1,0,0.1,0.1c0,0.1,0,0.4,0,1.1v0.7c0,0.7,0,1,0,1.1
		c0,0.1,0,0.1-0.1,0.1c-0.1,0-0.6,0-2.1,0h-4.8v1.2h5.6c1.5,0,2.2,0,2.3,0c0.1,0,0.1,0,0.1,0.1c0,0.1,0,0.4,0,1.3V203.4z
		 M294.3,197.3h-6v1.5h6V197.3z M295.4,201.6h-7v1.7h7V201.6z M298.4,192.3c0,0.1,0,0.1-0.1,0.1c-0.1,0-0.5,0-2,0h-1.1
		c0.2,0.4,0.5,0.8,0.7,1.3c0,0.1,0,0.1-0.1,0.2l-0.5,0.1c-0.2,0-0.2,0-0.3-0.1c-0.2-0.5-0.4-1.1-0.7-1.5h-1.5
		c-0.2,0.3-0.4,0.6-0.6,1c-0.1,0.1-0.1,0.2-0.2,0.2c0,0-0.1,0-0.3-0.1c-0.2-0.1-0.3-0.2-0.5-0.2c0.6-0.8,1-1.5,1.4-2.3
		c0.1-0.2,0.1-0.4,0.2-0.7c0.4,0,0.6,0.1,0.9,0.2c0.1,0,0.2,0.1,0.2,0.2c0,0.1,0,0.1-0.1,0.2c-0.1,0.1-0.1,0.2-0.2,0.4
		c-0.1,0.2-0.1,0.3-0.2,0.5h3.2c1.5,0,1.9,0,2,0c0.1,0,0.1,0,0.1,0.1V192.3z"/>
	<path class="st2" d="M308.7,200.3c0.7-0.3,1.4-0.6,2-1c0,0.2,0,0.4,0,0.6c0,0.3,0,0.3-0.3,0.5c-1,0.6-2.4,1.2-3.6,1.7
		c-0.3,0.1-0.5,0.2-0.6,0.3c-0.1,0-0.1,0.1-0.2,0.1c0,0-0.1,0-0.2-0.1c-0.1-0.3-0.2-0.6-0.3-0.9c0.4-0.1,0.9-0.2,1.5-0.4l0.7-0.3v-4
		h-0.3c-1,0-1.4,0-1.4,0c-0.1,0-0.1,0-0.1-0.1v-0.7c0-0.1,0-0.1,0.1-0.1c0.1,0,0.4,0,1.4,0h0.3v-3.5h-0.4c-1.1,0-1.5,0-1.6,0
		c-0.1,0-0.1,0-0.1-0.1v-0.7c0-0.1,0-0.1,0.1-0.1c0.1,0,0.4,0,1.6,0h1.6c1.1,0,1.5,0,1.5,0c0.1,0,0.1,0,0.1,0.1v0.7
		c0,0.1,0,0.1-0.1,0.1c-0.1,0-0.4,0-1.5,0h-0.3v3.5h0.2c1,0,1.4,0,1.5,0c0.1,0,0.1,0,0.1,0.1v0.7c0,0.1,0,0.1-0.1,0.1
		c-0.1,0-0.4,0-1.5,0h-0.2V200.3z M320.2,203.9c0,0.1,0,0.1-0.1,0.1c-0.1,0-0.6,0-2.3,0h-5.9c-1.6,0-2.2,0-2.3,0
		c-0.1,0-0.1,0-0.1-0.1v-0.7c0-0.1,0-0.1,0.1-0.1c0.1,0,0.6,0,2.3,0h2.8V201h-1.2c-1.5,0-2,0-2.1,0c-0.1,0-0.1,0-0.1-0.1v-0.7
		c0-0.1,0-0.1,0.1-0.1c0.1,0,0.6,0,2.1,0h1.2v-1.8h-1.2c-1.5,0-2,0-2.1,0c-0.1,0-0.1,0-0.1-0.1c0-0.1,0-0.5,0-1.8v-3.3
		c0-1.2,0-1.6,0-1.7c0-0.1,0-0.1,0.1-0.1c0.1,0,0.6,0,2.1,0h3.6c1.5,0,2,0,2.1,0c0.1,0,0.1,0,0.1,0.1c0,0.1,0,0.5,0,1.7v3.3
		c0,1.2,0,1.7,0,1.8c0,0.1,0,0.1-0.1,0.1c-0.1,0-0.6,0-2.1,0h-1.4v1.8h1.5c1.5,0,2,0,2.1,0c0.1,0,0.1,0,0.1,0.1v0.7
		c0,0.1,0,0.1-0.1,0.1c-0.1,0-0.6,0-2.1,0h-1.5v2.1h2.2c1.6,0,2.2,0,2.3,0c0.1,0,0.1,0,0.1,0.1V203.9z M314.6,192.1h-2.5v2.2h2.5
		V192.1z M314.6,195.1h-2.5v2.3h2.5V195.1z M318.2,192.1h-2.7v2.2h2.7V192.1z M318.2,195.1h-2.7v2.3h2.7V195.1z"/>
	<path class="st2" d="M330.5,193.4c-1.3,0-2.2,0.1-3,0.1c-0.2,0-0.2,0-0.3-0.2c-0.1-0.3-0.1-0.8-0.2-1.1c1,0.1,1.9,0.1,3.3,0.1h6.7
		c0.9,0,1.1,0,1.2-0.1c0.1,0,0.2-0.1,0.2-0.1c0.1,0,0.2,0,0.2,0.1c0.2,0.2,0.4,0.4,0.6,0.6c0.1,0.2,0.1,0.3-0.1,0.5
		c-0.1,0.1-0.3,0.3-0.4,0.4c-0.7,1.1-1.8,2.2-3.1,3.2c-0.1,0.1-0.3,0.1-0.4,0c-0.2-0.2-0.5-0.3-0.8-0.4c1.4-0.9,2.5-2,3.3-3.2H330.5
		z M331.6,200.1c0.6-1.2,0.8-2.5,0.8-4c0-0.5,0-0.9-0.1-1.3c0.5,0,1,0.1,1.3,0.2c0.3,0.1,0.3,0.3,0.2,0.5c-0.1,0.1-0.1,0.3-0.1,0.8
		c0,1.4-0.3,3-0.9,4.3c-0.6,1.3-1.8,2.4-3,3.2c-0.2,0.1-0.3,0.1-0.5,0c-0.2-0.2-0.5-0.4-0.9-0.5C329.8,202.4,331,201.4,331.6,200.1z
		"/>
	<path class="st2" d="M350.7,194.2c-1,0-1.8,0-2.7,0.1c-0.2,0-0.3,0-0.3-0.3c0-0.2-0.1-0.7-0.1-1c1,0.1,1.9,0.1,3.1,0.1h5.7
		c0.5,0,0.6,0,0.8-0.1c0.1-0.1,0.3-0.1,0.4,0c0.3,0.2,0.5,0.4,0.7,0.7c0.1,0.2,0.1,0.4,0,0.5c-0.1,0.1-0.2,0.3-0.4,0.5
		c-0.8,2-1.9,3.9-3.2,5.3c-1.3,1.5-2.8,2.8-4.8,3.9c-0.2,0.1-0.4,0.1-0.5,0c-0.2-0.2-0.5-0.4-0.8-0.5c2.5-1.2,3.9-2.4,5.2-4
		c1.2-1.4,2.4-3.1,3-5.2H350.7z M361.2,191.6c0,0.9-0.7,1.6-1.6,1.6c-0.9,0-1.6-0.7-1.6-1.6c0-0.9,0.7-1.6,1.6-1.6
		C360.5,190,361.2,190.7,361.2,191.6z M358.6,191.6c0,0.6,0.5,1,1,1s1-0.5,1-1c0-0.6-0.5-1-1-1S358.6,191,358.6,191.6z"/>
	<path class="st2" d="M369.5,193.9c0-1-0.1-1.8-0.2-2.3c0.4,0,1,0.2,1.3,0.3c0.2,0.1,0.2,0.2,0.1,0.4c-0.1,0.2-0.2,0.7-0.2,1.7v2.7
		c0,0.8,0,1.4,0,2.1c0,0.2-0.1,0.3-0.2,0.3h-0.8c-0.2,0-0.2-0.1-0.2-0.2c0-0.7,0-1.4,0-2.2V193.9z M376.2,196.8c0,2.5-0.6,4-1.4,5
		c-0.8,1-2.1,1.9-3.5,2.4c-0.2,0.1-0.3,0.1-0.5-0.1c-0.2-0.2-0.5-0.4-0.8-0.6c1.6-0.5,3-1.3,3.8-2.2c0.8-1,1.3-2.3,1.3-4.4v-2.8
		c0-1.6,0-2.2-0.2-2.8c0.5,0,1,0.1,1.4,0.3c0.2,0.1,0.2,0.2,0.1,0.4c-0.1,0.2-0.2,0.7-0.2,2.1V196.8z"/>
</g>
</svg>
