<?xml version="1.0" encoding="utf-8"?>
<!-- Generator: Adobe Illustrator 28.3.0, SVG Export Plug-In . SVG Version: 6.00 Build 0)  -->
<svg version="1.1" id="_レイヤー_2" xmlns="http://www.w3.org/2000/svg" xmlns:xlink="http://www.w3.org/1999/xlink" x="0px"
	 y="0px" viewBox="0 0 440.9 212" style="enable-background:new 0 0 440.9 212;" xml:space="preserve">
<style type="text/css">
	.st0{fill:#F0B30C;}
	.st1{fill:#FFFFFF;}
	.st2{fill:#333333;}
	.st3{fill:#CCCCCC;}
	.st4{fill:#CC3327;}
	.st5{fill:#1D6CD4;}
	.st6{fill:#5AB834;}
</style>
<g id="_レイヤー_1-2">
	<g>
		<g>
			<g>
				<g>
					<path class="st0" d="M8,36.7c-3,0-5.5-2.5-5.5-5.5S5,25.7,8,25.7h73c3,0,5.5,2.5,5.5,5.5S84,36.7,81,36.7H8z"/>
					<path class="st1" d="M81,27.2c2.2,0,4,1.8,4,4s-1.8,4-4,4H8c-2.2,0-4-1.8-4-4s1.8-4,4-4H81 M81,24.2H8c-3.9,0-7,3.1-7,7
						s3.1,7,7,7h73c3.9,0,7-3.1,7-7S84.9,24.2,81,24.2L81,24.2z"/>
				</g>
				<g>
					<path class="st2" d="M8,120.2c-3.3,0-6-2.7-6-6s2.7-6,6-6h67v-57c0-3.3,2.7-6,6-6s6,2.7,6,6v63c0,3.3-2.7,6-6,6H8z"/>
					<path class="st1" d="M81,47.2c2.2,0,4,1.8,4,4v63c0,2.2-1.8,4-4,4H8c-2.2,0-4-1.8-4-4s1.8-4,4-4h69v-59
						C77,49,78.8,47.2,81,47.2 M81,43.2c-4.4,0-8,3.6-8,8v55H8c-4.4,0-8,3.6-8,8s3.6,8,8,8h73c4.4,0,8-3.6,8-8v-63
						C89,46.8,85.4,43.2,81,43.2L81,43.2z"/>
				</g>
			</g>
			<g>
				<g>
					<g>
						<path class="st3" d="M16.3,61.4c-2.4,0-4.3-1.9-4.3-4.3s1.9-4.3,4.3-4.3s4.3,1.9,4.3,4.3S18.7,61.4,16.3,61.4z"/>
						<path class="st1" d="M16.3,53.3c2.1,0,3.8,1.7,3.8,3.8s-1.7,3.8-3.8,3.8s-3.8-1.7-3.8-3.8S14.2,53.3,16.3,53.3 M16.3,52.3
							c-2.6,0-4.8,2.2-4.8,4.8s2.2,4.8,4.8,4.8s4.8-2.2,4.8-4.8S18.9,52.3,16.3,52.3L16.3,52.3z"/>
					</g>
					<g>
						<path class="st3" d="M28.3,61.4c-2.4,0-4.3-1.9-4.3-4.3s1.9-4.3,4.3-4.3h30.4c2.4,0,4.3,1.9,4.3,4.3s-1.9,4.3-4.3,4.3
							C58.7,61.4,28.3,61.4,28.3,61.4z"/>
						<path class="st1" d="M58.7,53.3c2.1,0,3.8,1.7,3.8,3.8s-1.7,3.8-3.8,3.8H28.3c-2.1,0-3.8-1.7-3.8-3.8s1.7-3.8,3.8-3.8H58.7
							 M58.7,52.3H28.3c-2.6,0-4.8,2.2-4.8,4.8s2.1,4.8,4.8,4.8h30.4c2.7,0,4.8-2.2,4.8-4.8S61.3,52.3,58.7,52.3L58.7,52.3z"/>
					</g>
				</g>
				<g>
					<g>
						<path class="st3" d="M16.3,77c-2.4,0-4.3-2-4.3-4.3s1.9-4.3,4.3-4.3s4.3,1.9,4.3,4.3S18.7,77,16.3,77z"/>
						<path class="st1" d="M16.3,68.9c2.1,0,3.8,1.7,3.8,3.8s-1.7,3.8-3.8,3.8s-3.8-1.7-3.8-3.8S14.2,68.9,16.3,68.9 M16.3,67.9
							c-2.6,0-4.8,2.2-4.8,4.8s2.2,4.8,4.8,4.8s4.8-2.2,4.8-4.8S18.9,67.9,16.3,67.9L16.3,67.9z"/>
					</g>
					<g>
						<path class="st3" d="M28.3,77c-2.4,0-4.3-2-4.3-4.3s1.9-4.3,4.3-4.3h30.4c2.4,0,4.3,1.9,4.3,4.3S61.1,77,58.7,77H28.3z"/>
						<path class="st1" d="M58.7,68.9c2.1,0,3.8,1.7,3.8,3.8s-1.7,3.8-3.8,3.8H28.3c-2.1,0-3.8-1.7-3.8-3.8s1.7-3.8,3.8-3.8H58.7
							 M58.7,67.9H28.3c-2.6,0-4.8,2.2-4.8,4.8s2.1,4.8,4.8,4.8h30.4c2.7,0,4.8-2.2,4.8-4.8S61.3,67.9,58.7,67.9L58.7,67.9z"/>
					</g>
				</g>
				<g>
					<g>
						<path class="st3" d="M16.3,92.6c-2.4,0-4.3-1.9-4.3-4.3s1.9-4.3,4.3-4.3s4.3,1.9,4.3,4.3S18.7,92.6,16.3,92.6z"/>
						<path class="st1" d="M16.3,84.5c2.1,0,3.8,1.7,3.8,3.8s-1.7,3.8-3.8,3.8s-3.8-1.7-3.8-3.8S14.2,84.5,16.3,84.5 M16.3,83.5
							c-2.6,0-4.8,2.2-4.8,4.8s2.2,4.8,4.8,4.8s4.8-2.2,4.8-4.8S18.9,83.5,16.3,83.5L16.3,83.5z"/>
					</g>
					<g>
						<path class="st3" d="M28.3,92.6c-2.4,0-4.3-1.9-4.3-4.3s1.9-4.3,4.3-4.3h30.4c2.4,0,4.3,1.9,4.3,4.3s-1.9,4.3-4.3,4.3
							C58.7,92.6,28.3,92.6,28.3,92.6z"/>
						<path class="st1" d="M58.7,84.5c2.1,0,3.8,1.7,3.8,3.8s-1.7,3.8-3.8,3.8H28.3c-2.1,0-3.8-1.7-3.8-3.8s1.7-3.8,3.8-3.8H58.7
							 M58.7,83.5H28.3c-2.6,0-4.8,2.2-4.8,4.8s2.1,4.8,4.8,4.8h30.4c2.7,0,4.8-2.2,4.8-4.8S61.3,83.5,58.7,83.5L58.7,83.5z"/>
					</g>
				</g>
			</g>
			<g>
				<g>
					<path class="st2" d="M137,120.2c-3,0-5.5-2.5-5.5-5.5v-84c0-3,2.5-5.5,5.5-5.5s5.5,2.5,5.5,5.5v84
						C142.5,117.7,140,120.2,137,120.2z"/>
					<path class="st1" d="M137,26.7c2.2,0,4,1.8,4,4v84c0,2.2-1.8,4-4,4s-4-1.8-4-4v-84C133,28.5,134.8,26.7,137,26.7 M137,23.7
						c-3.9,0-7,3.1-7,7v84c0,3.9,3.1,7,7,7s7-3.1,7-7v-84C144,26.8,140.9,23.7,137,23.7L137,23.7z"/>
				</g>
				<g>
					<path class="st4" d="M157,119.7c-1.5,0-2.9-0.6-3.9-1.6s-1.6-2.4-1.6-3.9s0.6-2.8,1.6-3.9l38.1-38.1c1-1,2.4-1.6,3.9-1.6
						s2.9,0.6,3.9,1.6s1.6,2.4,1.6,3.9S200,78.9,199,80l-38.1,38C159.9,119.1,158.5,119.6,157,119.7z"/>
					<path class="st1" d="M195.1,72c1,0,2.1,0.4,2.8,1.2c1.6,1.6,1.6,4.1,0,5.7L159.8,117c-0.8,0.8-1.8,1.2-2.8,1.2
						s-2.1-0.4-2.8-1.2c-1.6-1.6-1.6-4.1,0-5.7l38.1-38.1C193.1,72.4,194.1,72,195.1,72 M195.1,69c-1.9,0-3.6,0.7-4.9,2.1
						l-38.1,38.1c-1.3,1.3-2.1,3.1-2.1,4.9s0.7,3.6,2.1,4.9s3.1,2.1,4.9,2.1s3.6-0.7,4.9-2.1l38.2-38c1.3-1.3,2.1-3.1,2.1-4.9
						s-0.7-3.6-2.1-4.9S197,69,195.1,69L195.1,69z"/>
				</g>
			</g>
			<g>
				<g>
					<circle class="st5" cx="274.8" cy="15" r="13.5"/>
					<path class="st1" d="M274.8,3c6.6,0,12,5.4,12,12s-5.4,12-12,12s-12-5.4-12-12S268.2,3,274.8,3 M274.8,0c-8.3,0-15,6.7-15,15
						s6.7,15,15,15s15-6.7,15-15S283.1,0,274.8,0L274.8,0z"/>
				</g>
				<g>
					<g>
						<path class="st2" d="M240,45.5c-3,0-5.5-2.5-5.5-5.5s2.5-5.5,5.5-5.5h74.9c3,0,5.5,2.5,5.5,5.5s-2.5,5.5-5.5,5.5H240z"/>
						<path class="st1" d="M314.9,36c2.2,0,4,1.8,4,4s-1.8,4-4,4H240c-2.2,0-4-1.8-4-4s1.8-4,4-4H314.9 M314.9,33H240
							c-3.9,0-7,3.1-7,7s3.1,7,7,7h74.9c3.9,0,7-3.1,7-7S318.7,33,314.9,33L314.9,33z"/>
					</g>
					<g>
						<path class="st2" d="M235.1,117.9c-0.8,0-1.6-0.2-2.3-0.5c-1.3-0.6-2.4-1.7-2.9-3.1s-0.5-2.9,0.1-4.2l24-52.4
							c0.9-2,2.9-3.2,5-3.2c0.8,0,1.6,0.2,2.3,0.5c2.8,1.3,4,4.5,2.7,7.3l-24,52.4C239.2,116.6,237.2,117.9,235.1,117.9L235.1,117.9
							z"/>
						<path class="st1" d="M259.1,56c0.6,0,1.1,0.1,1.7,0.4c2,0.9,2.9,3.3,2,5.3l-24,52.4c-0.7,1.5-2.1,2.3-3.6,2.3
							c-0.6,0-1.1-0.1-1.7-0.4c-2-0.9-2.9-3.3-2-5.3l24-52.4C256.1,56.9,257.6,56,259.1,56 M259.1,53L259.1,53
							c-2.7,0-5.2,1.6-6.4,4.1l-24,52.4c-0.8,1.7-0.9,3.6-0.2,5.3c0.6,1.8,1.9,3.2,3.6,3.9c0.9,0.4,1.9,0.6,2.9,0.6
							c2.7,0,5.2-1.6,6.4-4.1l24-52.4c1.6-3.5,0.1-7.7-3.5-9.3C261.1,53.2,260.1,53,259.1,53L259.1,53L259.1,53z"/>
					</g>
					<g>
						<path class="st2" d="M289.8,119.7c-0.9,0-1.9-0.2-2.7-0.7l-9-5c-2.6-1.5-3.6-4.8-2.1-7.5c1-1.8,2.8-2.8,4.8-2.8
							c0.9,0,1.9,0.2,2.7,0.7l3.2,1.8l22.9-67.9c0.8-2.2,2.9-3.7,5.2-3.7c0.6,0,1.2,0.1,1.8,0.3c1.4,0.5,2.5,1.5,3.2,2.8
							c0.6,1.3,0.8,2.8,0.3,4.2l-25.1,74c-0.5,1.6-1.7,2.8-3.2,3.4C291.1,119.5,290.5,119.7,289.8,119.7L289.8,119.7z"/>
						<path class="st1" d="M314.9,36c0.4,0,0.9,0.1,1.3,0.2c2.1,0.7,3.2,3,2.5,5.1l-25.1,74.1c-0.4,1.1-1.2,2-2.4,2.4
							c-0.5,0.2-1,0.3-1.4,0.3c-0.7,0-1.3-0.2-1.9-0.5l-9-5c-1.9-1.1-2.6-3.5-1.5-5.4c0.7-1.3,2.1-2.1,3.5-2.1
							c0.7,0,1.3,0.2,1.9,0.5l4.8,2.7l23.5-69.6C311.6,37,313.2,36,314.9,36 M314.9,33L314.9,33c-3,0-5.7,1.9-6.6,4.8L285.9,104
							l-1.7-0.9c-1-0.6-2.2-0.9-3.4-0.9c-2.5,0-4.9,1.4-6.1,3.6c-1.9,3.4-0.6,7.6,2.7,9.5l9,5c1,0.6,2.2,0.9,3.4,0.9
							c0.9,0,1.7-0.2,2.5-0.5c1.9-0.8,3.4-2.3,4.1-4.3l25.1-74.1c0.6-1.8,0.5-3.7-0.4-5.3s-2.3-2.9-4-3.5
							C316.4,33.1,315.6,33,314.9,33L314.9,33L314.9,33z"/>
					</g>
				</g>
			</g>
			<g>
				<g>
					<path class="st2" d="M354.8,58.3c-1.5,0-2.9-0.6-3.9-1.7c-1-1-1.6-2.4-1.6-3.9l0.1-12.8c0-3,2.5-5.5,5.5-5.5
						c1.5,0,2.9,0.6,3.9,1.7c1,1,1.6,2.4,1.6,3.9l-0.1,12.8C360.3,55.8,357.9,58.3,354.8,58.3L354.8,58.3L354.8,58.3z"/>
					<path class="st1" d="M355,36c2.2,0,4,1.8,4,4l-0.1,12.8c0,2.2-1.8,4-4,4l0,0c-2.2,0-4-1.8-4-4L351,40C351,37.8,352.8,36,355,36
						L355,36 M355,33L355,33c-3.9,0-7,3.1-7,6.9l-0.1,12.8c0,3.9,3.1,7,6.9,7.1h0.1c3.8,0,7-3.1,7-6.9l0.1-12.8
						C362,36.2,358.9,33,355,33L355,33L355,33z"/>
				</g>
				<g>
					<circle class="st2" cx="396.5" cy="15" r="13.5"/>
					<path class="st1" d="M396.5,3c6.6,0,12,5.4,12,12s-5.4,12-12,12s-12-5.4-12-12S389.8,3,396.5,3 M396.5,0c-8.3,0-15,6.7-15,15
						s6.7,15,15,15s15-6.7,15-15S404.7,0,396.5,0L396.5,0z"/>
				</g>
				<g>
					<g>
						<path class="st2" d="M371,45.5c-3,0-5.5-2.5-5.5-5.5s2.5-5.5,5.5-5.5h62.9c3,0,5.5,2.5,5.5,5.5s-2.5,5.5-5.5,5.5H371L371,45.5
							z"/>
						<path class="st1" d="M433.9,36c2.2,0,4,1.8,4,4s-1.8,4-4,4H371c-2.2,0-4-1.8-4-4s1.8-4,4-4H433.9 M433.9,33H371
							c-3.9,0-7,3.1-7,7s3.1,7,7,7h62.9c3.9,0,7-3.1,7-7S437.8,33,433.9,33L433.9,33L433.9,33z"/>
					</g>
					<g>
						<path class="st6" d="M390.8,119.7c-1.5,0-3-0.5-4-1.4s-1.6-2.1-1.5-3.4s0.8-2.5,2-3.3c0.2-0.1,17.7-11.8,27-23.1
							c9.2-11.2,14-30.1,14.1-30.3c0.5-2.1,2.7-3.6,5.4-3.6c0.3,0,0.6,0,0.9,0.1c1.6,0.2,3.1,1,3.9,2.2c0.6,1,0.8,2.1,0.6,3.1
							c-0.2,0.8-5.2,20.9-15.8,33.6c-10.3,12.5-28.5,24.5-29.2,25C393.3,119.3,392.1,119.7,390.8,119.7L390.8,119.7z"/>
						<path class="st1" d="M433.9,56.1c0.2,0,0.5,0,0.7,0c2.2,0.3,3.6,1.9,3.2,3.5c-0.2,0.8-5.2,20.6-15.5,33
							c-10.2,12.3-28.1,24.2-28.9,24.7s-1.7,0.8-2.6,0.8c-1.1,0-2.2-0.3-3-1c-1.5-1.3-1.3-3.2,0.4-4.3c0.2-0.1,17.8-11.8,27.4-23.4
							c9.5-11.5,14.3-30.7,14.4-30.9C430.3,57.1,432,56.1,433.9,56.1 M433.9,53.1L433.9,53.1c-3.3,0-6.1,2-6.8,4.8
							c0,0.2-4.8,18.8-13.8,29.7c-9.3,11.2-26.5,22.7-26.7,22.8c-1.6,1.1-2.6,2.7-2.7,4.4c-0.1,1.7,0.6,3.4,2,4.6
							c1.3,1.1,3.1,1.8,5,1.8c1.5,0,3.1-0.4,4.3-1.2c0.8-0.5,19.1-12.7,29.6-25.3c10.7-13,15.9-33.4,16.1-34.2
							c0.4-1.5,0.1-3-0.8-4.3c-1-1.5-2.8-2.6-4.9-2.9C434.7,53.1,434.3,53.1,433.9,53.1L433.9,53.1L433.9,53.1z"/>
					</g>
				</g>
			</g>
		</g>
		<g>
			<path d="M146.5,155.6l5.5-5.5h1l-5.6,5.6l6,6.1h-1.1l-5.5-5.5l-0.3,0.3v5.2h-0.8v-11.6h0.8L146.5,155.6L146.5,155.6z"/>
			<path d="M177.3,158.2c0,2.1-1.6,3.7-3.7,3.7s-3.7-1.6-3.7-3.7s1.6-3.7,3.7-3.7S177.3,156.1,177.3,158.2z M176.6,158.2
				c0-1.7-1.3-3.1-3-3.1s-3,1.3-3,3.1s1.3,3.1,3,3.1S176.6,160,176.6,158.2z"/>
			<path d="M196.1,154.7h0.7v0.9c0.3-0.6,0.8-1.1,1.6-1.1c0.2,0,0.5,0,0.8,0.2l-0.4,0.6c-0.1-0.1-0.2-0.1-0.5-0.1
				c-1.4,0-1.4,1.9-1.4,2.8v3.8h-0.7v-7.1H196.1z"/>
			<path d="M218.9,158.3c0,1.8,1.3,3,2.8,3c1.1,0,2-0.7,2.5-1.6l0.6,0.4c-0.4,0.8-1.4,1.9-3.1,1.9c-2.2,0-3.5-1.6-3.5-3.7
				c0-2.5,1.7-3.7,3.4-3.7c1.9,0,3.4,1.5,3.4,3.8L218.9,158.3L218.9,158.3z M224.2,157.6c-0.2-1.4-1.2-2.5-2.6-2.5s-2.5,1.1-2.7,2.5
				H224.2z"/>
			<path d="M242.5,155.6l5.5-5.5h1l-5.6,5.6l6,6.1h-1.1l-5.5-5.5l-0.3,0.3v5.2h-0.8v-11.6h0.8L242.5,155.6L242.5,155.6z"/>
			<path d="M272.3,154.7h0.7v7.1h-0.7v-1.3c-0.7,1.1-1.9,1.5-2.8,1.5c-1.9,0-3.5-1.4-3.5-3.7c0-2.2,1.4-3.7,3.5-3.7
				c1.1,0,2.1,0.4,2.8,1.4V154.7L272.3,154.7z M266.8,158.2c0,1.6,1,3.1,2.8,3.1s2.8-1.5,2.8-3.1c0-2.1-1.5-3-2.8-3
				C268.2,155.2,266.8,156.2,266.8,158.2L266.8,158.2z"/>
			<path d="M291.7,154.7v4.3c0,0.5,0,1.3,0.5,1.8c0.4,0.5,1.1,0.6,1.4,0.6s1-0.1,1.4-0.6s0.5-1.3,0.5-1.8v-4.3h0.7v4.5
				c0,0.6,0,1.3-0.5,1.9c-0.5,0.7-1.4,0.9-2,0.9s-1.5-0.2-2-0.9c-0.5-0.6-0.5-1.4-0.5-1.9v-4.5H291.7L291.7,154.7z"/>
		</g>
	</g>
</g>
<g>
	<path class="st2" d="M3.4,197.8c0.1-0.1,0.1-0.1,0.4-0.1c1.4,0.6,2.8,1.3,3.9,2.1c0.3,0.1,0.1,0.3,0.1,0.4c-0.1,0.3-0.4,0.7-0.6,1
		c-0.1,0.1-0.3,0.1-0.4,0c-1.3-1-2.7-1.7-4.2-2.2C3,198.5,3.3,198,3.4,197.8z M6.9,206.3c2.1-1.1,4-2.2,6.1-3.9
		c2-1.5,4.3-3.6,6.4-6.3c0.1,0.6,0.1,1,0.4,1.4c0.1,0.3,0,0.4-0.1,0.6c-2,2.2-3.9,3.9-6,5.6c-2,1.5-4.2,2.9-6.6,4.2
		c-0.6,0.3-0.8,0.6-1.1,0.7c-0.1,0.1-0.4,0.1-0.7,0c-0.3-0.3-0.7-1-1.1-1.5C5.3,207,5.9,206.9,6.9,206.3z M6.1,192.7
		c0.1-0.1,0.1-0.1,0.4-0.1c1.4,0.6,2.7,1.4,3.9,2.4c0.1,0.1,0.1,0.3,0,0.4c-0.1,0.3-0.4,0.7-0.7,1c-0.1,0.1-0.3,0.1-0.4,0
		c-1.1-1-2.5-2-4-2.5C5.5,193.4,5.8,192.9,6.1,192.7z"/>
	<path class="st2" d="M31.9,193.9c0.1-0.1,0.3-0.1,0.4,0c1.3,0.7,2.8,1.8,4,2.9c0.1,0.1,0.1,0.3,0,0.4c-0.1,0.3-0.6,0.8-0.7,1
		c-0.1,0.1-0.1,0.1-0.4,0c-1.4-1.3-2.8-2.5-4.3-3.4C31.4,194.5,31.6,194.2,31.9,193.9z M34,205.8c2.4-1.3,4.5-2.5,6.6-4.2
		c2.2-1.8,4.2-3.5,6.1-6c0.1,0.7,0.3,1.1,0.4,1.5c0.1,0.3,0.1,0.4-0.1,0.8c-1.5,1.8-3.5,3.6-5.4,5.2c-2,1.5-4.2,2.9-6.7,4.3
		c-0.6,0.4-1,0.7-1.3,0.8c-0.3,0.1-0.4,0.1-0.6,0c-0.3-0.4-0.7-0.8-1.1-1.5C32.5,206.5,33.2,206.2,34,205.8z"/>
	<path class="st2" d="M62.6,195.9c-1.4,0-2.5,0-3.8,0.1c-0.3,0-0.4,0-0.4-0.4c0-0.3-0.1-1-0.1-1.4c1.4,0.1,2.7,0.1,4.3,0.1h8
		c0.7,0,0.8,0,1.1-0.1c0.1-0.1,0.4-0.1,0.6,0c0.4,0.3,0.7,0.6,1,1c0.1,0.3,0.1,0.6,0,0.7s-0.3,0.4-0.6,0.7c-1.1,2.8-2.7,5.4-4.5,7.4
		c-1.8,2.1-3.9,3.9-6.7,5.4c-0.3,0.1-0.6,0.1-0.7,0c-0.3-0.3-0.7-0.6-1.1-0.7c3.5-1.7,5.4-3.4,7.3-5.6c1.7-2,3.4-4.3,4.2-7.3H62.6z
		 M77.3,192.2c0,1.3-1,2.2-2.2,2.2s-2.2-1-2.2-2.2c0-1.3,1-2.2,2.2-2.2C76.3,190,77.3,191,77.3,192.2z M73.7,192.2
		c0,0.8,0.7,1.4,1.4,1.4c0.8,0,1.4-0.7,1.4-1.4c0-0.8-0.7-1.4-1.4-1.4C74.2,190.8,73.7,191.4,73.7,192.2z"/>
	<path class="st2" d="M90.8,195c0.3,0.1,0.3,0.3,0.1,0.6c-0.1,0.3-0.1,0.8-0.3,1.8c-0.1,2.5-0.6,4.5-1.4,6.1c-0.8,1.7-2,2.9-3.2,4
		c-0.3,0.3-0.4,0.3-0.7,0.1c-0.3-0.3-0.7-0.4-1.3-0.6c1.5-1.1,2.8-2.4,3.6-4.2c0.7-1.5,1.3-3.4,1.3-5.9c0-1,0-1.5-0.1-2.4
		C89.7,194.7,90.4,194.9,90.8,195z M95.6,205.2c1.5-0.8,2.7-1.5,3.8-2.4c1.3-1,2.7-2.1,4-3.8c0,0.6,0.1,1,0.4,1.4
		c0.1,0.1,0.1,0.3-0.1,0.6c-1.1,1.1-2.4,2.2-3.5,3.2c-1.3,0.8-2.5,1.7-3.9,2.5c-0.4,0.3-0.6,0.3-0.7,0.6c-0.1,0.1-0.4,0.1-0.6,0
		c-0.3-0.3-0.7-0.6-0.8-0.8c-0.1-0.1-0.1-0.4,0-0.6c0-0.3,0.1-0.7,0.1-2.2v-6.4c0-2.1,0-3.2-0.3-3.9c0.6,0,1.4,0.1,1.8,0.3
		c0.3,0.1,0.3,0.3,0.1,0.7c-0.1,0.3-0.1,1.1-0.1,2.9v8H95.6z"/>
	<path class="st2" d="M124.2,194.7c0.1,0,0.3,0,0.3,0.1c0,0.3,0.1,0.7,0.1,1c0,0.1,0,0.3-0.1,0.3c-1.3,0.3-2.4,0.4-3.8,0.7
		c-1.3,3.5-2.9,7-4.5,9.5c-0.1,0.1-0.3,0.1-0.4,0c-0.3-0.1-0.7-0.4-0.8-0.7c-0.1-0.1-0.1-0.1,0-0.4c1.8-2.8,3.2-5.4,4.2-8.4
		c-1,0.1-1.8,0.1-2.8,0.1c-0.3,0-0.7,0-1.3,0c-0.1,0-0.3,0-0.3-0.3s-0.1-0.7-0.1-1.1c0.7,0,1.3,0.1,1.8,0.1c1,0,2,0,3.1-0.1
		c0.3-0.8,0.4-1.7,0.7-2.7c0.1-0.7,0.1-1.1,0.1-1.8c0.7,0.1,1.3,0.3,1.8,0.4c0.1,0,0.1,0.1,0.1,0.3c0,0.1,0,0.1-0.1,0.3
		c-0.1,0.1-0.1,0.3-0.3,0.7c-0.3,0.8-0.6,1.7-0.7,2.4C122.1,195.2,123.1,195,124.2,194.7z M125.6,200.2c0-0.4,0-0.8-0.1-1.4
		c0.6,0,1.1,0.1,1.5,0.3c0.1,0,0.3,0.1,0.3,0.3c0,0.1,0,0.1-0.1,0.4c-0.1,0.3-0.1,0.6-0.1,1.1c0,1.4,0.1,2.7,0.3,4.2
		c1.7,0.7,2.9,1.3,4.2,2.2c0.1,0.1,0.1,0.1,0.1,0.4c-0.1,0.3-0.4,0.7-0.6,1c-0.1,0.1-0.3,0.1-0.4,0c-1-0.8-2.2-1.5-3.5-2.1
		c0,2.2-1.1,3.5-4,3.5c-1.7,0-3.5-0.8-3.5-2.8c0-1.7,1.7-2.8,3.8-2.8c0.7,0,1.5,0.1,2.2,0.3C125.7,203.1,125.6,201.4,125.6,200.2z
		 M123.6,205.5c-1.8,0-2.7,0.7-2.7,1.5c0,1,0.8,1.5,2.4,1.5c1.8,0,2.5-1,2.5-2.1c0-0.3,0-0.4,0-0.6
		C125.2,205.6,124.3,205.5,123.6,205.5z M127.5,195.4c0.1-0.1,0.1-0.1,0.4-0.1c1.5,0.4,3.1,1.3,4.5,2.1c0.1,0.1,0.1,0.3,0,0.4
		c-0.1,0.3-0.3,0.7-0.6,0.8c-0.1,0.1-0.1,0.1-0.3,0c-1.3-1-2.9-1.8-4.6-2.2C127.1,196.1,127.3,195.7,127.5,195.4z"/>
	<path class="st2" d="M149.9,208.3c-0.3,0-0.4,0.1-0.7,0.3c-1.4,0.7-3.2,1.5-5.4,2c-0.4,0.1-0.4,0-0.7-0.3c-0.1-0.3-0.4-0.6-0.7-0.8
		c2.1-0.3,4.3-1,5.6-1.7c0.3-0.1,0.6-0.4,0.7-0.6c0.4,0.3,0.7,0.4,1,0.7c0.1,0.1,0.3,0.1,0.3,0.3
		C150.2,208.1,150.2,208.3,149.9,208.3z M161.3,194.5c0,1.1,0,1.4,0,1.5s0,0.1-0.1,0.1s-1,0-3.2,0h-11.2c-2.2,0-2.9,0-3.1,0
		c-0.1,0-0.1,0-0.1-0.1s0-0.4,0-1.5v-1.3c0-1.1,0-1.4,0-1.5s0-0.1,0.1-0.1s0.8,0,3.1,0H158c2.2,0,3.1,0,3.2,0s0.1,0,0.1,0.1
		s0,0.4,0,1.5V194.5z M149,192.7h-4.2v2.4h4.2V192.7z M159.4,204.4c0,1.7,0,2.2,0,2.4c0,0.1,0,0.1-0.1,0.1s-1,0-3.2,0h-7
		c-2.2,0-3.1,0-3.2,0s-0.1,0-0.1-0.1s0-0.7,0-2.4v-4.5c0-1.7,0-2.2,0-2.4c0-0.1,0-0.1,0.1-0.1s1,0,3.2,0h7c2.2,0,3.1,0,3.2,0
		s0.1,0,0.1,0.1s0,0.7,0,2.4V204.4z M158,198.5h-11v1.7h11V198.5z M158,201.3h-11v1.7h11V201.3z M158,204h-11v1.8h11V204z
		 M154.5,192.7h-4.2v2.4h4.2V192.7z M155.5,207.3c0.1-0.1,0.3-0.1,0.4,0c1.7,1.1,3.9,2,6.3,2.2c-0.3,0.3-0.4,0.6-0.6,0.8
		c-0.1,0.4-0.1,0.4-0.7,0.4c-2-0.4-4.5-1.5-6.1-2.7c-0.1-0.1-0.1-0.1,0.1-0.3L155.5,207.3z M160.1,192.7h-4.3v2.4h4.3V192.7z"/>
	<path class="st2" d="M176,194.2c0.1,0,0.1,0.1,0.1,0.3c0,0.1,0,0.3-0.1,0.4c-0.1,0.3-0.1,0.8-0.1,2.1c0,1.4,0,2.8,0.3,5.2
		c0.3,2.7,1.3,4.6,2.4,4.6c0.8,0,1.8-1.4,2.4-3.5c0.3,0.6,0.4,0.8,0.7,1.1c0.1,0.1,0.3,0.3,0.1,0.6c-0.7,1.8-1.8,3.5-3.4,3.5
		c-2,0-3.4-2.7-3.8-6.1c-0.3-2.2-0.4-4.7-0.4-6.3c0-0.8,0-1.4-0.1-2.1C174.9,193.8,175.6,193.9,176,194.2z M186.7,195.9
		c0.1,0,0.3-0.1,0.3,0c2.2,2,3.8,4.7,4.3,7.8c0,0.1,0,0.3-0.1,0.3c-0.3,0.3-0.7,0.4-1,0.6c-0.1,0-0.3,0-0.3-0.1
		c-0.7-3.5-2.1-5.9-4.2-7.8C186.2,196.3,186.4,196,186.7,195.9z"/>
	<path class="st2" d="M209.8,196.4c0,0.1,0,0.1-0.1,0.1s-0.6,0-2.1,0h-0.3v4.6c0.7-0.4,1.5-0.8,2.4-1.4c0,0.3,0,0.6,0,0.8
		c0,0.4,0,0.4-0.4,0.7c-0.7,0.4-1.4,0.7-2.1,1.1v4c0,2.7,0,3.9,0,4c0,0.1,0,0.1-0.1,0.1h-1c-0.1,0-0.1,0-0.1-0.1s0-1.3,0-3.9v-3.5
		c-0.7,0.3-1.3,0.6-2,0.8c-0.4,0.1-0.7,0.3-0.7,0.4c-0.1,0.1-0.3,0.1-0.3,0.1c-0.1,0-0.1,0-0.3-0.1c-0.1-0.4-0.4-0.8-0.6-1.3
		c0.6-0.1,1.3-0.3,2-0.7c0.7-0.3,1.3-0.6,2-0.7v-5.3h-2c-0.1,1-0.4,2-0.7,2.9c0,0.3-0.1,0.3-0.1,0.3c-0.1,0-0.1,0-0.4-0.1
		s-0.6-0.1-0.8-0.3c0.7-2.1,1-4,1.1-5.9c0-0.4,0-0.8,0-1.3c0.4,0,0.8,0.1,1.3,0.1c0.1,0,0.3,0.1,0.3,0.1c0,0.1,0,0.1-0.1,0.3
		c0,0.1-0.1,0.3-0.1,0.6l-0.1,1.7h1.8v-1.8c0-1.5,0-2.2-0.1-3.1c0.6,0,1,0,1.4,0.1c0.1,0,0.3,0.1,0.3,0.1c0,0.1,0,0.3-0.1,0.4
		c-0.1,0.3-0.1,0.8-0.1,2.4v1.8h0.1c1.5,0,2.1,0,2.1,0c0.1,0,0.1,0,0.1,0.1v1.4H209.8z M218.6,194.9c2,0,2.5,0,2.7,0
		c0.1,0,0.3,0,0.3,0.3c0,0.6,0,1,0,1.5c0,4.6-0.3,7.5-0.7,10.3c-0.4,2.2-1.1,3.4-2.9,3.4c-0.6,0-1.3,0-2-0.1c-0.4,0-0.4,0-0.6-0.6
		c-0.1-0.4-0.1-0.7-0.3-1c1,0.1,1.8,0.3,2.7,0.3c1.1,0,1.5-1,1.8-2.5c0.4-2.8,0.7-5.4,0.7-10.5h-1.1c-1.5,6.3-3.8,10.2-8.1,13.4
		c-0.1,0.1-0.3,0.1-0.3,0.1c-0.1,0-0.1-0.1-0.3-0.3c-0.3-0.3-0.6-0.6-0.7-0.7c4.3-2.9,6.8-6.8,8.2-12.6h-2.2
		c-1.1,3.9-2.7,6.1-5.2,8.2c-0.1,0.1-0.3,0.1-0.3,0.1c-0.1,0-0.1-0.1-0.3-0.3c-0.3-0.3-0.6-0.6-0.7-0.6c2.5-1.8,4.3-4,5.3-7.5h-2.1
		c-0.6,0.8-1.1,1.7-1.8,2.7c-0.1,0.1-0.3,0.3-0.3,0.3c-0.1,0-0.1,0-0.3-0.3c-0.3-0.3-0.4-0.4-0.7-0.6c1.8-2,2.9-3.9,3.5-6
		c0.3-0.7,0.4-1.3,0.4-2c0.6,0.1,0.8,0.1,1.3,0.3c0.1,0,0.3,0.1,0.3,0.3c0,0.1,0,0.3-0.1,0.4s-0.3,0.6-0.4,1.1
		c-0.3,0.8-0.6,1.7-1,2.5h5.2V194.9z"/>
	<path class="st2" d="M234.7,195.4c0-1.4-0.1-2.5-0.3-3.2c0.6,0,1.4,0.3,1.8,0.4c0.3,0.1,0.3,0.3,0.1,0.6c-0.1,0.3-0.3,1-0.3,2.4
		v3.8c0,1.1,0,2,0,2.9c0,0.3-0.1,0.4-0.3,0.4h-1.1c-0.3,0-0.3-0.1-0.3-0.3c0-1,0-2,0-3.1v-3.9H234.7z M244.2,199.5
		c0,3.5-0.8,5.6-2,7c-1.1,1.4-2.9,2.7-4.9,3.4c-0.3,0.1-0.4,0.1-0.7-0.1c-0.3-0.3-0.7-0.6-1.1-0.8c2.2-0.7,4.2-1.8,5.3-3.1
		c1.1-1.4,1.8-3.2,1.8-6.1v-3.9c0-2.2,0-3.1-0.3-3.9c0.7,0,1.4,0.1,2,0.4c0.3,0.1,0.3,0.3,0.1,0.6c-0.1,0.3-0.3,1-0.3,2.9
		L244.2,199.5L244.2,199.5z"/>
	<path class="st2" d="M269.2,193.9c0.7,0,1,0,1.3-0.1c0.1-0.1,0.3,0,0.4,0c0.3,0.3,0.7,0.6,1,1c0.1,0.1,0.1,0.3-0.1,0.6
		c-0.3,0.1-0.4,0.4-0.7,0.8c-1,1.7-2.1,3.4-3.4,4.9c2.4,1.7,4.5,3.5,6.4,5.6c0.1,0.1,0.1,0.3,0,0.4c-0.3,0.3-0.6,0.6-0.8,0.8
		c-0.1,0.1-0.3,0.1-0.4,0c-2-2.1-4-4-6.3-5.7c-2.5,2.7-5.3,4.7-8.1,6.3c-0.3,0.1-0.4,0.1-0.6,0c-0.3-0.3-0.7-0.6-1.1-0.8
		c3.4-1.7,6-3.8,8.2-6.1c1.4-1.5,2.9-3.5,4.3-6h-6.8c-1.3,0-2.2,0-3.2,0.1c-0.1,0-0.3,0-0.3-0.3s-0.1-1-0.1-1.4
		c1.1,0.1,2.1,0.1,3.5,0.1h6.8V193.9z"/>
	<path class="st2" d="M291.4,198c2.7,0.7,5,1.8,7.4,3.1c0.1,0.1,0.3,0.1,0.1,0.4c-0.1,0.4-0.4,0.8-0.6,1.1c-0.1,0.1-0.3,0.3-0.4,0.1
		c-2.1-1.4-4.5-2.4-6.6-3.1v5.2c0,1.4,0,3.1,0,4.6c0,0.3,0,0.3-0.3,0.3s-0.8,0-1.1,0c-0.3,0-0.3,0-0.3-0.3c0-1.4,0.1-3.2,0.1-4.6
		v-10.1c0-1.7-0.1-2.8-0.3-3.6c0.8,0,1.4,0.1,1.8,0.3c0.4,0.1,0.3,0.3,0.1,0.7c-0.1,0.4-0.1,1.1-0.1,2.5L291.4,198L291.4,198z"/>
	<path class="st2" d="M319.5,193.2c0,0.1,0,0.1-0.1,0.1c-0.1,0-0.7,0-2.4,0h-0.8c0.3,0.6,0.6,1.1,0.8,1.8c0,0.1,0,0.1-0.1,0.3
		l-0.7,0.3c-0.3,0.1-0.3,0-0.4-0.1c-0.3-0.7-0.6-1.4-0.8-2.2h-2.1c-0.6,0.8-1.1,1.5-1.8,2.1c-0.1,0.1-0.3,0.1-0.3,0.1
		c-0.1,0-0.1,0-0.3-0.1c-0.3-0.3-0.4-0.4-0.7-0.4c1.4-1.1,2.4-2.4,3.1-3.9c0.1-0.3,0.3-0.6,0.3-1c0.4,0,0.8,0.1,1.3,0.3
		c0.1,0,0.3,0.1,0.3,0.3c0,0.1,0,0.1-0.1,0.3c-0.1,0.1-0.1,0.3-0.4,0.6c-0.1,0.3-0.3,0.4-0.4,0.7h3.5c1.8,0,2.2,0,2.4,0
		c0.1,0,0.1,0,0.1,0.1v0.8H319.5z M328.6,198.2c0,1.7,0,2,0,2c0,0.1,0,0.1-0.1,0.1h-1c-0.1,0-0.1,0-0.1-0.1v-2.5h-15.4v2.5
		c0,0.1,0,0.1-0.1,0.1h-1c-0.1,0-0.1,0-0.1-0.1s0-0.4,0-2v-0.6c0-0.6,0-0.8,0-1c0-0.1,0-0.1,0.1-0.1c0.1,0,1,0,3.1,0h4.9
		c0-0.6,0-1.1-0.1-1.7c0.6,0,1.1,0,1.4,0.1c0.1,0,0.3,0.1,0.3,0.1c0,0.1,0,0.3-0.1,0.4c-0.1,0.1-0.1,0.6-0.1,1h5.3
		c2.2,0,3.1,0,3.2,0c0.1,0,0.1,0,0.1,0.1s0,0.4,0,0.8v0.7H328.6z M326.3,208.7c0,1.3,0,1.5,0,1.7c0,0.1,0,0.1-0.1,0.1h-1
		c-0.1,0-0.1,0-0.1-0.1v-0.8h-9.8v1c0,0.1,0,0.1-0.1,0.1h-1c-0.1,0-0.1,0-0.1-0.1s0-0.8,0-2.7V202c0-1.8,0-2.5,0-2.7
		c0-0.1,0-0.1,0.1-0.1c0.1,0,1.1,0,3.1,0h4.7c2.1,0,2.8,0,2.9,0c0.1,0,0.1,0,0.1,0.1s0,0.6,0,1.5v1c0,1,0,1.4,0,1.5s0,0.1-0.1,0.1
		c-0.1,0-0.8,0-2.9,0h-6.7v1.7h7.8c2.1,0,3.1,0,3.2,0c0.1,0,0.1,0,0.1,0.1c0,0.1,0,0.6,0,1.8v1.5H326.3z M323.5,200.2h-8.4v2.1h8.4
		V200.2z M325.1,206.2h-9.8v2.4h9.8V206.2z M329.3,193.2c0,0.1,0,0.1-0.1,0.1c-0.1,0-0.7,0-2.8,0h-1.5c0.3,0.6,0.7,1.1,1,1.8
		c0,0.1,0,0.1-0.1,0.3l-0.7,0.1c-0.3,0-0.3,0-0.4-0.1c-0.3-0.7-0.6-1.5-1-2.1h-2.1c-0.3,0.4-0.6,0.8-0.8,1.4
		c-0.1,0.1-0.1,0.3-0.3,0.3c0,0-0.1,0-0.4-0.1c-0.3-0.1-0.4-0.3-0.7-0.3c0.8-1.1,1.4-2.1,2-3.2c0.1-0.3,0.1-0.6,0.3-1
		c0.6,0,0.8,0.1,1.3,0.3c0.1,0,0.3,0.1,0.3,0.3c0,0.1,0,0.1-0.1,0.3c-0.1,0.1-0.1,0.3-0.3,0.6c-0.1,0.3-0.1,0.4-0.3,0.7h4.5
		c2.1,0,2.7,0,2.8,0c0.1,0,0.1,0,0.1,0.1v0.6H329.3z"/>
	<path class="st2" d="M343.6,204.4c1-0.4,2-0.8,2.8-1.4c0,0.3,0,0.6,0,0.8c0,0.4,0,0.4-0.4,0.7c-1.4,0.8-3.4,1.7-5,2.4
		c-0.4,0.1-0.7,0.3-0.8,0.4c-0.1,0-0.1,0.1-0.3,0.1c0,0-0.1,0-0.3-0.1c-0.1-0.4-0.3-0.8-0.4-1.3c0.6-0.1,1.3-0.3,2.1-0.6l1-0.4v-5.6
		h-0.4c-1.4,0-2,0-2,0c-0.1,0-0.1,0-0.1-0.1v-1c0-0.1,0-0.1,0.1-0.1c0.1,0,0.6,0,2,0h0.4v-4.9h-0.6c-1.5,0-2.1,0-2.2,0
		c-0.1,0-0.1,0-0.1-0.1v-1c0-0.1,0-0.1,0.1-0.1c0.1,0,0.6,0,2.2,0h2.2c1.5,0,2.1,0,2.1,0c0.1,0,0.1,0,0.1,0.1v1c0,0.1,0,0.1-0.1,0.1
		c-0.1,0-0.6,0-2.1,0h-0.4v4.9h0.3c1.4,0,2,0,2.1,0c0.1,0,0.1,0,0.1,0.1v1c0,0.1,0,0.1-0.1,0.1c-0.1,0-0.6,0-2.1,0h-0.3v4.9H343.6z
		 M359.7,209.4c0,0.1,0,0.1-0.1,0.1c-0.1,0-0.8,0-3.2,0h-8.2c-2.2,0-3.1,0-3.2,0c-0.1,0-0.1,0-0.1-0.1v-1c0-0.1,0-0.1,0.1-0.1
		s0.8,0,3.2,0h3.9v-2.9h-1.7c-2.1,0-2.8,0-2.9,0s-0.1,0-0.1-0.1v-1c0-0.1,0-0.1,0.1-0.1s0.8,0,2.9,0h1.7v-2.5h-1.7
		c-2.1,0-2.8,0-2.9,0s-0.1,0-0.1-0.1c0-0.1,0-0.7,0-2.5v-4.6c0-1.7,0-2.2,0-2.4c0-0.1,0-0.1,0.1-0.1s0.8,0,2.9,0h5
		c2.1,0,2.8,0,2.9,0c0.1,0,0.1,0,0.1,0.1s0,0.7,0,2.4v4.6c0,1.7,0,2.4,0,2.5c0,0.1,0,0.1-0.1,0.1c-0.1,0-0.8,0-2.9,0h-2v2.5h2.1
		c2.1,0,2.8,0,2.9,0c0.1,0,0.1,0,0.1,0.1v1c0,0.1,0,0.1-0.1,0.1c-0.1,0-0.8,0-2.9,0h-2.1v2.9h3.1c2.2,0,3.1,0,3.2,0
		c0.1,0,0.1,0,0.1,0.1v1H359.7z M351.9,192.9h-3.5v3.1h3.5V192.9z M351.9,197.1h-3.5v3.2h3.5V197.1z M356.9,192.9h-3.8v3.1h3.8
		V192.9z M356.9,197.1h-3.8v3.2h3.8V197.1z"/>
	<path class="st2" d="M374.1,194.7c-1.8,0-3.1,0.1-4.2,0.1c-0.3,0-0.3,0-0.4-0.3c-0.1-0.4-0.1-1.1-0.3-1.5c1.4,0.1,2.7,0.1,4.6,0.1
		h9.4c1.3,0,1.5,0,1.7-0.1c0.1,0,0.3-0.1,0.3-0.1c0.1,0,0.3,0,0.3,0.1c0.3,0.3,0.6,0.6,0.8,0.8c0.1,0.3,0.1,0.4-0.1,0.7
		c-0.1,0.1-0.4,0.4-0.6,0.6c-1,1.5-2.5,3.1-4.3,4.5c-0.1,0.1-0.4,0.1-0.6,0c-0.3-0.3-0.7-0.4-1.1-0.6c2-1.3,3.5-2.8,4.6-4.5h-10.1
		V194.7z M375.6,204.1c0.8-1.7,1.1-3.5,1.1-5.6c0-0.7,0-1.3-0.1-1.8c0.7,0,1.4,0.1,1.8,0.3c0.4,0.1,0.4,0.4,0.3,0.7
		c-0.1,0.1-0.1,0.4-0.1,1.1c0,2-0.4,4.2-1.3,6s-2.5,3.4-4.2,4.5c-0.3,0.1-0.4,0.1-0.7,0c-0.3-0.3-0.7-0.6-1.3-0.7
		C373.1,207.3,374.8,205.9,375.6,204.1z"/>
	<path class="st2" d="M402.3,195.9c-1.4,0-2.5,0-3.8,0.1c-0.3,0-0.4,0-0.4-0.4c0-0.3-0.1-1-0.1-1.4c1.4,0.1,2.7,0.1,4.3,0.1h8
		c0.7,0,0.8,0,1.1-0.1c0.1-0.1,0.4-0.1,0.6,0c0.4,0.3,0.7,0.6,1,1c0.1,0.3,0.1,0.6,0,0.7c-0.1,0.1-0.3,0.4-0.6,0.7
		c-1.1,2.8-2.7,5.4-4.5,7.4c-1.8,2.1-3.9,3.9-6.7,5.4c-0.3,0.1-0.6,0.1-0.7,0c-0.3-0.3-0.7-0.6-1.1-0.7c3.5-1.7,5.4-3.4,7.3-5.6
		c1.7-2,3.4-4.3,4.2-7.3H402.3z M416.9,192.2c0,1.3-1,2.2-2.2,2.2c-1.3,0-2.2-1-2.2-2.2c0-1.3,1-2.2,2.2-2.2
		C415.9,190,416.9,191,416.9,192.2z M413.3,192.2c0,0.8,0.7,1.4,1.4,1.4c0.7,0,1.4-0.7,1.4-1.4c0-0.8-0.7-1.4-1.4-1.4
		C414,190.8,413.3,191.4,413.3,192.2z"/>
	<path class="st2" d="M428.5,195.4c0-1.4-0.1-2.5-0.3-3.2c0.6,0,1.4,0.3,1.8,0.4c0.3,0.1,0.3,0.3,0.1,0.6c-0.1,0.3-0.3,1-0.3,2.4
		v3.8c0,1.1,0,2,0,2.9c0,0.3-0.1,0.4-0.3,0.4h-1.1c-0.3,0-0.3-0.1-0.3-0.3c0-1,0-2,0-3.1v-3.9H428.5z M437.9,199.5
		c0,3.5-0.8,5.6-2,7c-1.1,1.4-2.9,2.7-4.9,3.4c-0.3,0.1-0.4,0.1-0.7-0.1c-0.3-0.3-0.7-0.6-1.1-0.8c2.2-0.7,4.2-1.8,5.3-3.1
		c1.1-1.4,1.8-3.2,1.8-6.1v-3.9c0-2.2,0-3.1-0.3-3.9c0.7,0,1.4,0.1,2,0.4c0.3,0.1,0.3,0.3,0.1,0.6c-0.1,0.3-0.3,1-0.3,2.9
		L437.9,199.5L437.9,199.5z"/>
</g>
</svg>
