<?xml version="1.0" encoding="UTF-8"?>
<svg id="_レイヤー_2" data-name="レイヤー 2" xmlns="http://www.w3.org/2000/svg" viewBox="0 0 440.9 222.07">
  <defs>
    <style>
      .cls-1 {
        fill: #333;
      }

      .cls-1, .cls-2, .cls-3, .cls-4, .cls-5, .cls-6, .cls-7, .cls-8 {
        stroke-width: 0px;
      }

      .cls-2 {
        fill: #cc3327;
      }

      .cls-3 {
        fill: #f0b30c;
      }

      .cls-4 {
        fill: #1d6cd4;
      }

      .cls-5 {
        fill: #000;
      }

      .cls-6 {
        fill: #5ab834;
      }

      .cls-7 {
        fill: #ccc;
      }

      .cls-8 {
        fill: #fff;
      }
    </style>
  </defs>
  <g id="_レイヤー_1-2" data-name="レイヤー 1">
    <g>
      <g>
        <g>
          <g>
            <path class="cls-3" d="M8,36.67c-3.03,0-5.5-2.47-5.5-5.5s2.47-5.5,5.5-5.5h73c3.03,0,5.5,2.47,5.5,5.5s-2.47,5.5-5.5,5.5H8Z"/>
            <path class="cls-8" d="M81,27.17c2.21,0,4,1.79,4,4s-1.79,4-4,4H8c-2.21,0-4-1.79-4-4s1.79-4,4-4h73M81,24.17H8c-3.86,0-7,3.14-7,7s3.14,7,7,7h73c3.86,0,7-3.14,7-7s-3.14-7-7-7h0Z"/>
          </g>
          <g>
            <path class="cls-1" d="M8,120.15c-3.31,0-6-2.69-6-6s2.69-6,6-6h67v-56.97c0-3.31,2.69-6,6-6s6,2.69,6,6v62.97c0,3.31-2.69,6-6,6H8Z"/>
            <path class="cls-8" d="M81,47.17c2.21,0,4,1.79,4,4v62.97c0,2.21-1.79,4-4,4H8c-2.21,0-4-1.79-4-4s1.79-4,4-4h69v-58.97c0-2.21,1.79-4,4-4M81,43.17c-4.41,0-8,3.59-8,8v54.97H8c-4.41,0-8,3.59-8,8s3.59,8,8,8h73c4.41,0,8-3.59,8-8v-62.97c0-4.41-3.59-8-8-8h0Z"/>
          </g>
        </g>
        <g>
          <g>
            <g>
              <path class="cls-7" d="M16.3,61.36c-2.37,0-4.3-1.93-4.3-4.3s1.93-4.3,4.3-4.3,4.3,1.93,4.3,4.3-1.93,4.3-4.3,4.3Z"/>
              <path class="cls-8" d="M16.3,53.26c2.1,0,3.8,1.7,3.8,3.8s-1.7,3.8-3.8,3.8-3.8-1.7-3.8-3.8,1.7-3.8,3.8-3.8M16.3,52.26c-2.65,0-4.8,2.15-4.8,4.8s2.15,4.8,4.8,4.8,4.8-2.15,4.8-4.8-2.15-4.8-4.8-4.8h0Z"/>
            </g>
            <g>
              <path class="cls-7" d="M28.31,61.36c-2.37,0-4.3-1.93-4.3-4.3s1.93-4.3,4.3-4.3h30.39c2.37,0,4.3,1.93,4.3,4.3s-1.93,4.3-4.3,4.3h-30.39Z"/>
              <path class="cls-8" d="M58.7,53.26c2.1,0,3.8,1.7,3.8,3.8s-1.7,3.8-3.8,3.8h-30.39c-2.1,0-3.8-1.7-3.8-3.8s1.7-3.8,3.8-3.8h30.39M58.7,52.26h-30.39c-2.65,0-4.8,2.15-4.8,4.8s2.15,4.8,4.8,4.8h30.39c2.65,0,4.8-2.15,4.8-4.8s-2.15-4.8-4.8-4.8h0Z"/>
            </g>
          </g>
          <g>
            <g>
              <path class="cls-7" d="M16.3,76.96c-2.37,0-4.3-1.93-4.3-4.3s1.93-4.3,4.3-4.3,4.3,1.93,4.3,4.3-1.93,4.3-4.3,4.3Z"/>
              <path class="cls-8" d="M16.3,68.86c2.1,0,3.8,1.7,3.8,3.8s-1.7,3.8-3.8,3.8-3.8-1.7-3.8-3.8,1.7-3.8,3.8-3.8M16.3,67.86c-2.65,0-4.8,2.15-4.8,4.8s2.15,4.8,4.8,4.8,4.8-2.15,4.8-4.8-2.15-4.8-4.8-4.8h0Z"/>
            </g>
            <g>
              <path class="cls-7" d="M28.31,76.96c-2.37,0-4.3-1.93-4.3-4.3s1.93-4.3,4.3-4.3h30.39c2.37,0,4.3,1.93,4.3,4.3s-1.93,4.3-4.3,4.3h-30.39Z"/>
              <path class="cls-8" d="M58.7,68.86c2.1,0,3.8,1.7,3.8,3.8s-1.7,3.8-3.8,3.8h-30.39c-2.1,0-3.8-1.7-3.8-3.8s1.7-3.8,3.8-3.8h30.39M58.7,67.86h-30.39c-2.65,0-4.8,2.15-4.8,4.8s2.15,4.8,4.8,4.8h30.39c2.65,0,4.8-2.15,4.8-4.8s-2.15-4.8-4.8-4.8h0Z"/>
            </g>
          </g>
          <g>
            <g>
              <path class="cls-7" d="M16.3,92.56c-2.37,0-4.3-1.93-4.3-4.3s1.93-4.3,4.3-4.3,4.3,1.93,4.3,4.3-1.93,4.3-4.3,4.3Z"/>
              <path class="cls-8" d="M16.3,84.46c2.1,0,3.8,1.7,3.8,3.8s-1.7,3.8-3.8,3.8-3.8-1.7-3.8-3.8,1.7-3.8,3.8-3.8M16.3,83.46c-2.65,0-4.8,2.15-4.8,4.8s2.15,4.8,4.8,4.8,4.8-2.15,4.8-4.8-2.15-4.8-4.8-4.8h0Z"/>
            </g>
            <g>
              <path class="cls-7" d="M28.31,92.56c-2.37,0-4.3-1.93-4.3-4.3s1.93-4.3,4.3-4.3h30.39c2.37,0,4.3,1.93,4.3,4.3s-1.93,4.3-4.3,4.3h-30.39Z"/>
              <path class="cls-8" d="M58.7,84.46c2.1,0,3.8,1.7,3.8,3.8s-1.7,3.8-3.8,3.8h-30.39c-2.1,0-3.8-1.7-3.8-3.8s1.7-3.8,3.8-3.8h30.39M58.7,83.46h-30.39c-2.65,0-4.8,2.15-4.8,4.8s2.15,4.8,4.8,4.8h30.39c2.65,0,4.8-2.15,4.8-4.8s-2.15-4.8-4.8-4.8h0Z"/>
            </g>
          </g>
        </g>
        <g>
          <g>
            <path class="cls-1" d="M137,120.18c-3.03,0-5.5-2.47-5.5-5.5V30.7c0-3.03,2.47-5.5,5.5-5.5s5.5,2.47,5.5,5.5v83.98c0,3.03-2.47,5.5-5.5,5.5Z"/>
            <path class="cls-8" d="M137,26.7c2.21,0,4,1.79,4,4v83.98c0,2.21-1.79,4-4,4s-4-1.79-4-4V30.7c0-2.21,1.79-4,4-4M137,23.7c-3.86,0-7,3.14-7,7v83.98c0,3.86,3.14,7,7,7s7-3.14,7-7V30.7c0-3.86-3.14-7-7-7h0Z"/>
          </g>
          <g>
            <path class="cls-2" d="M157,119.65c-1.47,0-2.85-.57-3.89-1.61-1.04-1.04-1.61-2.42-1.61-3.89s.57-2.85,1.61-3.89l38.12-38.12c1.04-1.04,2.42-1.61,3.89-1.61s2.85.57,3.89,1.61c1.04,1.04,1.61,2.42,1.61,3.89s-.57,2.85-1.61,3.89l-38.12,38.12c-1.04,1.04-2.42,1.61-3.89,1.61Z"/>
            <path class="cls-8" d="M195.12,72.03c1.02,0,2.05.39,2.83,1.17,1.56,1.56,1.56,4.09,0,5.66l-38.12,38.12c-.78.78-1.8,1.17-2.83,1.17s-2.05-.39-2.83-1.17c-1.56-1.56-1.56-4.09,0-5.66l38.12-38.12c.78-.78,1.8-1.17,2.83-1.17M195.12,69.03c-1.87,0-3.63.73-4.95,2.05l-38.12,38.12c-1.32,1.32-2.05,3.08-2.05,4.95s.73,3.63,2.05,4.95c1.32,1.32,3.08,2.05,4.95,2.05s3.63-.73,4.95-2.05l38.12-38.12c1.32-1.32,2.05-3.08,2.05-4.95s-.73-3.63-2.05-4.95c-1.32-1.32-3.08-2.05-4.95-2.05h0Z"/>
          </g>
        </g>
        <g>
          <g>
            <path class="cls-4" d="M274.8,28.5c-7.44,0-13.5-6.06-13.5-13.5s6.06-13.5,13.5-13.5,13.5,6.06,13.5,13.5-6.06,13.5-13.5,13.5Z"/>
            <path class="cls-8" d="M274.8,3c6.63,0,12,5.37,12,12s-5.37,12-12,12-12-5.37-12-12,5.37-12,12-12M274.8,0c-8.27,0-15,6.73-15,15s6.73,15,15,15,15-6.73,15-15-6.73-15-15-15h0Z"/>
          </g>
          <g>
            <g>
              <path class="cls-1" d="M239.99,45.5c-3.03,0-5.5-2.47-5.5-5.5s2.47-5.5,5.5-5.5h74.86c3.03,0,5.5,2.47,5.5,5.5s-2.47,5.5-5.5,5.5h-74.86Z"/>
              <path class="cls-8" d="M314.85,36c2.21,0,4,1.79,4,4s-1.79,4-4,4h-74.86c-2.21,0-4-1.79-4-4s1.79-4,4-4h74.86M314.85,33h-74.86c-3.86,0-7,3.14-7,7s3.14,7,7,7h74.86c3.86,0,7-3.14,7-7s-3.14-7-7-7h0Z"/>
            </g>
            <g>
              <path class="cls-1" d="M235.12,117.9c-.79,0-1.56-.17-2.29-.5-1.34-.61-2.35-1.71-2.87-3.08-.51-1.38-.46-2.87.15-4.21l23.99-52.4c.89-1.95,2.86-3.21,5-3.21.79,0,1.56.17,2.29.5,2.76,1.26,3.97,4.53,2.71,7.29l-23.99,52.4c-.89,1.95-2.86,3.21-5,3.21Z"/>
              <path class="cls-8" d="M259.11,56c.56,0,1.12.12,1.66.36,2.01.92,2.89,3.29,1.97,5.3l-23.99,52.4c-.67,1.47-2.12,2.34-3.64,2.34-.56,0-1.12-.12-1.66-.36-2.01-.92-2.89-3.29-1.97-5.3l23.99-52.4c.67-1.47,2.12-2.34,3.64-2.34M259.11,53h0c-2.73,0-5.23,1.6-6.37,4.09l-23.99,52.4c-.78,1.7-.85,3.6-.2,5.35.65,1.75,1.95,3.15,3.65,3.92.92.42,1.9.64,2.91.64,2.73,0,5.23-1.6,6.37-4.09l23.99-52.4c1.61-3.51.06-7.67-3.45-9.28-.92-.42-1.9-.64-2.91-.64h0Z"/>
            </g>
            <g>
              <path class="cls-1" d="M289.8,119.65c-.93,0-1.86-.24-2.67-.69l-9-5c-2.65-1.47-3.61-4.83-2.14-7.48.97-1.75,2.81-2.83,4.81-2.83.93,0,1.85.24,2.67.69l3.23,1.8,22.94-67.89c.76-2.24,2.85-3.74,5.21-3.74.6,0,1.19.1,1.76.29,1.39.47,2.52,1.45,3.17,2.77.65,1.32.75,2.81.28,4.2l-25.06,74.14c-.52,1.55-1.7,2.78-3.23,3.37-.63.25-1.3.37-1.98.37Z"/>
              <path class="cls-8" d="M314.85,36c.42,0,.86.07,1.28.21,2.09.71,3.22,2.98,2.51,5.07l-25.06,74.14c-.38,1.12-1.24,2.02-2.35,2.45-.47.18-.96.27-1.44.27-.67,0-1.34-.17-1.94-.5l-9-5c-1.93-1.07-2.63-3.51-1.55-5.44.73-1.32,2.09-2.06,3.5-2.06.66,0,1.32.16,1.94.5l4.8,2.67,23.52-69.6c.56-1.67,2.12-2.72,3.79-2.72M314.85,33h0c-3,0-5.67,1.91-6.63,4.76l-22.37,66.19-1.66-.92c-1.04-.58-2.21-.88-3.4-.88-2.54,0-4.89,1.38-6.12,3.6-1.87,3.37-.65,7.64,2.72,9.52l9,5c1.04.58,2.21.88,3.4.88.87,0,1.72-.16,2.53-.47,1.94-.75,3.44-2.31,4.1-4.29l25.06-74.14c.6-1.77.47-3.67-.36-5.35-.83-1.68-2.26-2.93-4.03-3.53-.72-.25-1.48-.37-2.24-.37h0Z"/>
            </g>
          </g>
        </g>
        <g>
          <g>
            <path class="cls-1" d="M354.82,58.29c-1.48-.01-2.86-.6-3.89-1.65-1.03-1.05-1.59-2.44-1.57-3.9l.12-12.78c.03-3,2.5-5.45,5.5-5.45,1.52.01,2.9.6,3.93,1.65,1.03,1.05,1.59,2.44,1.57,3.9l-.12,12.78c-.03,3-2.5,5.45-5.5,5.45h-.04Z"/>
            <path class="cls-8" d="M355.02,36c2.21.02,3.98,1.83,3.96,4.04l-.12,12.78c-.02,2.2-1.81,3.96-4,3.96h-.04c-2.21-.02-3.98-1.83-3.96-4.04l.12-12.78c.02-2.2,1.81-3.96,4-3.96h.04M355.02,33h-.04c-3.82,0-6.96,3.11-7,6.93l-.12,12.78c-.04,3.86,3.07,7.03,6.93,7.07,0,0,.06,0,.07,0,3.82,0,6.96-3.11,7-6.93l.12-12.78c.04-3.86-3.07-7.03-6.93-7.07,0,0-.02,0-.03,0h0Z"/>
          </g>
          <g>
            <path class="cls-1" d="M396.46,28.5c-7.44,0-13.5-6.06-13.5-13.5s6.06-13.5,13.5-13.5,13.5,6.06,13.5,13.5-6.06,13.5-13.5,13.5Z"/>
            <path class="cls-8" d="M396.46,3c6.63,0,12,5.37,12,12s-5.37,12-12,12-12-5.37-12-12,5.37-12,12-12M396.46,0c-8.27,0-15,6.73-15,15s6.73,15,15,15,15-6.73,15-15S404.74,0,396.46,0h0Z"/>
          </g>
          <g>
            <g>
              <path class="cls-1" d="M370.98,45.5c-3.03,0-5.5-2.47-5.5-5.5s2.47-5.5,5.5-5.5h62.92c3.03,0,5.5,2.47,5.5,5.5s-2.47,5.5-5.5,5.5h-62.92Z"/>
              <path class="cls-8" d="M433.9,36c2.21,0,4,1.79,4,4s-1.79,4-4,4h-62.92c-2.21,0-4-1.79-4-4s1.79-4,4-4h62.92M433.9,33h-62.92c-3.86,0-7,3.14-7,7s3.14,7,7,7h62.92c3.86,0,7-3.14,7-7s-3.14-7-7-7h0Z"/>
            </g>
            <g>
              <path class="cls-6" d="M390.84,119.65c-1.51,0-2.97-.51-4-1.4-1.03-.89-1.58-2.12-1.5-3.37.08-1.29.83-2.48,2.03-3.28.18-.12,17.7-11.77,27.05-23.08,9.25-11.18,14.03-30.14,14.08-30.33.52-2.12,2.74-3.61,5.39-3.61.31,0,.63.02.94.07,1.65.23,3.06,1.05,3.86,2.25.64.95.84,2.06.58,3.13-.21.85-5.24,20.91-15.76,33.62-10.31,12.46-28.46,24.51-29.23,25.02-.97.64-2.2.99-3.45.99Z"/>
              <path class="cls-8" d="M433.9,56.07c.24,0,.49.02.73.05,2.17.31,3.6,1.89,3.2,3.53-.21.83-5.17,20.59-15.46,33.02-10.2,12.33-28.14,24.22-28.9,24.73-.76.5-1.7.75-2.63.75-1.12,0-2.22-.35-3.02-1.04-1.45-1.26-1.28-3.17.38-4.26.18-.12,17.82-11.82,27.38-23.37,9.49-11.47,14.33-30.74,14.38-30.93.36-1.45,2.05-2.47,3.93-2.47M433.9,53.07h0c-3.34,0-6.15,1.95-6.84,4.75-.05.18-4.77,18.85-13.78,29.74-9.29,11.23-26.54,22.67-26.71,22.78-1.61,1.06-2.59,2.68-2.71,4.44-.11,1.72.62,3.39,2.01,4.6,1.32,1.14,3.08,1.77,4.98,1.77,1.55,0,3.07-.44,4.28-1.24.77-.51,19.08-12.65,29.56-25.32,10.73-12.97,15.85-33.36,16.06-34.22.37-1.49.09-3.02-.79-4.33-1.04-1.55-2.83-2.6-4.9-2.89-.38-.05-.77-.08-1.15-.08h0Z"/>
            </g>
          </g>
        </g>
      </g>
      <g>
        <path class="cls-5" d="M108.01,158.45l8.33-8.3h1.53l-8.54,8.44,9.04,9.2h-1.59l-8.3-8.41-.48.45v7.96h-1.16v-17.64h1.16v8.3Z"/>
        <path class="cls-5" d="M154.69,162.42c0,3.2-2.46,5.66-5.66,5.66s-5.66-2.46-5.66-5.66,2.46-5.66,5.66-5.66,5.66,2.46,5.66,5.66ZM153.58,162.42c0-2.62-1.96-4.65-4.55-4.65s-4.55,2.04-4.55,4.65,1.96,4.65,4.55,4.65,4.55-2.03,4.55-4.65Z"/>
        <path class="cls-5" d="M183.17,156.99h1.06v1.4c.4-.93,1.22-1.64,2.38-1.64.29,0,.74.05,1.14.26l-.53.95c-.11-.08-.32-.21-.79-.21-2.17,0-2.19,2.88-2.19,4.23v5.79h-1.06v-10.79Z"/>
        <path class="cls-5" d="M217.83,162.52c0,2.75,2.01,4.55,4.28,4.55,1.74,0,3.07-1.03,3.75-2.46l.9.53c-.64,1.22-2.06,2.93-4.73,2.93-3.36,0-5.31-2.48-5.31-5.63,0-3.75,2.59-5.68,5.23-5.68,2.91,0,5.1,2.33,5.1,5.76h-9.23ZM225.94,161.52c-.26-2.14-1.85-3.75-3.99-3.75s-3.75,1.67-4.05,3.75h8.04Z"/>
        <path class="cls-5" d="M253.71,158.45l8.33-8.3h1.53l-8.54,8.44,9.04,9.2h-1.59l-8.3-8.41-.48.45v7.96h-1.16v-17.64h1.16v8.3Z"/>
        <path class="cls-5" d="M298.94,156.99h1.06v10.79h-1.06v-1.93c-1.08,1.67-2.8,2.22-4.2,2.22-2.83,0-5.26-2.14-5.26-5.68,0-3.33,2.12-5.63,5.26-5.63,1.69,0,3.17.66,4.2,2.11v-1.88ZM290.59,162.31c0,2.43,1.51,4.76,4.23,4.76s4.18-2.27,4.18-4.76c0-3.2-2.35-4.55-4.2-4.55-2.14,0-4.2,1.61-4.2,4.55Z"/>
        <path class="cls-5" d="M328.33,156.99v6.5c0,.77.03,1.91.69,2.7.66.79,1.64.87,2.14.87s1.48-.08,2.14-.87c.66-.79.69-1.93.69-2.7v-6.5h1.06v6.8c0,.87-.08,2.01-.82,2.96-.82,1.06-2.12,1.32-3.07,1.32s-2.25-.26-3.07-1.32c-.74-.95-.82-2.09-.82-2.96v-6.8h1.06Z"/>
      </g>
      <g>
        <path class="cls-1" d="M7.35,208.36c.09-.17.21-.22.4-.17,1.55.57,2.91,1.29,4.19,2.17.24.17.21.31.12.5-.17.33-.4.74-.62,1.02-.14.19-.26.22-.45.05-1.31-1.02-2.81-1.81-4.38-2.4.31-.45.57-.93.74-1.17ZM11.04,217.48c2.19-1.14,4.31-2.38,6.55-4.1,2.05-1.6,4.64-3.9,6.79-6.6.09.62.21,1,.45,1.55.12.24.07.43-.12.64-2,2.33-4.07,4.14-6.29,5.83-2.12,1.64-4.45,3.05-6.95,4.45-.52.28-.9.55-1.14.81-.21.22-.45.17-.67-.07-.31-.36-.76-1.02-1.12-1.59.83-.19,1.57-.45,2.5-.93ZM10.16,202.93c.14-.22.21-.22.43-.12,1.48.62,2.86,1.5,4.14,2.48.21.16.19.26.07.47-.19.31-.45.76-.69,1.02-.14.17-.24.12-.43-.05-1.17-1.07-2.71-2.02-4.26-2.69.24-.33.5-.79.74-1.12Z"/>
        <path class="cls-1" d="M36.19,204.22c.17-.17.29-.14.43-.05,1.33.74,2.9,1.86,4.29,3.17.17.17.19.26.07.45-.19.28-.62.83-.81,1.02-.14.17-.21.19-.38.02-1.4-1.38-2.98-2.59-4.52-3.52.31-.38.67-.81.93-1.1ZM38.34,216.84c2.57-1.36,4.67-2.64,6.88-4.43,2.4-1.98,4.38-3.74,6.43-6.41.1.67.24,1.12.41,1.57.14.31.12.5-.17.83-1.6,1.88-3.69,3.79-5.79,5.48-2.02,1.62-4.4,3.14-7.14,4.64-.64.38-1.1.74-1.31.93-.24.21-.43.21-.64-.02-.36-.38-.79-.95-1.17-1.62.93-.26,1.64-.55,2.5-.98Z"/>
        <path class="cls-1" d="M66.83,206.29c-1.4,0-2.71.05-4,.14-.29.02-.38-.07-.43-.38-.02-.33-.1-1.07-.12-1.48,1.48.14,2.81.19,4.57.19h8.43c.69,0,.93-.07,1.19-.21.19-.12.43-.09.62.02.4.28.79.64,1.07.98.19.26.17.52-.07.74-.21.19-.36.43-.52.81-1.14,3.02-2.81,5.71-4.67,7.81-1.93,2.17-4.12,4.12-7.07,5.74-.29.19-.6.19-.81-.05-.29-.28-.74-.6-1.24-.81,3.64-1.81,5.69-3.6,7.69-5.88,1.79-2,3.48-4.64,4.48-7.62h-9.12ZM82.38,202.48c0,1.33-1.07,2.41-2.4,2.41s-2.4-1.07-2.4-2.41,1.07-2.4,2.4-2.4,2.4,1.07,2.4,2.4ZM78.47,202.48c0,.83.67,1.5,1.5,1.5s1.5-.67,1.5-1.5-.67-1.5-1.5-1.5-1.5.67-1.5,1.5Z"/>
        <path class="cls-1" d="M95.2,205.43c.26.09.28.31.17.6-.14.33-.21.91-.24,1.86-.09,2.71-.6,4.76-1.48,6.52-.86,1.79-2,3.05-3.4,4.24-.26.24-.48.26-.67.09-.36-.28-.76-.45-1.26-.6,1.62-1.17,2.98-2.57,3.83-4.43.79-1.67,1.29-3.59,1.29-6.17,0-1.05-.02-1.67-.21-2.48.83.07,1.57.22,1.98.36ZM100.15,216.24c1.57-.83,2.79-1.6,4.05-2.52,1.38-.98,2.81-2.29,4.21-3.98.05.52.17,1.05.41,1.5.09.21.12.36-.14.62-1.19,1.21-2.48,2.38-3.76,3.33-1.29.93-2.62,1.81-4.12,2.67-.45.26-.6.33-.79.52-.21.19-.45.19-.64.03-.33-.26-.69-.6-.93-.93-.14-.22-.09-.38-.05-.6.07-.29.09-.74.09-2.36v-6.76c0-2.29-.07-3.4-.24-4.17.64.07,1.55.19,1.98.31.36.12.29.36.14.69-.14.33-.21,1.22-.21,3.14v8.5Z"/>
        <path class="cls-1" d="M126.93,205.12c.21-.05.28,0,.31.14.05.29.09.72.12,1.02.02.22-.02.26-.21.29-1.29.26-2.57.47-3.98.69-1.38,3.74-3.1,7.33-4.79,10.05-.12.19-.24.17-.38.07-.36-.21-.74-.5-.95-.71-.14-.12-.14-.22-.02-.41,1.98-2.98,3.33-5.78,4.48-8.86-1.02.09-1.98.17-3,.17-.36,0-.71,0-1.26-.05-.21-.02-.24-.05-.29-.28-.07-.31-.12-.74-.14-1.19.76.07,1.38.09,1.88.09,1.1,0,2.07-.07,3.24-.19.29-.9.5-1.79.71-2.78.14-.69.21-1.17.19-1.86.69.12,1.38.28,1.86.47.14.05.21.14.21.26s-.05.22-.19.36c-.12.14-.19.31-.33.74-.26.86-.52,1.74-.76,2.57,1.07-.14,2.1-.31,3.31-.6ZM128.38,210.88c0-.48-.02-.91-.14-1.52.64.07,1.12.14,1.62.31.17.05.26.14.26.29,0,.09-.05.21-.14.43-.1.26-.1.64-.1,1.12,0,1.43.12,2.86.29,4.38,1.74.69,3.07,1.38,4.5,2.38.19.12.17.19.1.38-.12.31-.38.74-.57,1.05-.12.17-.24.14-.38.02-1.07-.95-2.36-1.69-3.62-2.26.02,2.41-1.19,3.71-4.26,3.71-1.81,0-3.69-.93-3.69-2.9,0-1.79,1.71-3,4.05-3,.71,0,1.64.12,2.38.29-.14-1.48-.26-3.38-.29-4.67ZM126.36,216.57c-1.9,0-2.76.74-2.76,1.62,0,1.1.88,1.6,2.45,1.6,1.95,0,2.67-1.02,2.67-2.24,0-.31,0-.45-.02-.57-.74-.24-1.57-.41-2.33-.41ZM130.41,205.91c.12-.19.19-.22.4-.14,1.6.5,3.31,1.26,4.67,2.24.17.14.17.24.05.43-.14.31-.36.69-.55.95-.12.17-.19.14-.33.05-1.38-1.05-3.14-1.9-4.86-2.43.24-.41.43-.81.62-1.1Z"/>
        <path class="cls-1" d="M151.02,219.48c-.24.05-.45.17-.74.31-1.4.76-3.45,1.6-5.74,2.12-.45.09-.45.07-.67-.36-.17-.31-.41-.62-.67-.83,2.21-.31,4.6-1.07,5.98-1.83.31-.17.6-.38.81-.64.43.24.79.45,1.05.66.17.14.24.19.24.31,0,.09-.09.24-.26.26ZM163.11,204.84c0,1.14.05,1.45.05,1.57,0,.17-.02.19-.19.19-.14,0-.98-.05-3.33-.05h-11.86c-2.36,0-3.17.05-3.31.05-.17,0-.19-.02-.19-.19,0-.12.05-.43.05-1.57v-1.33c0-1.14-.05-1.48-.05-1.59,0-.17.02-.19.19-.19.14,0,.95.05,3.31.05h11.86c2.36,0,3.19-.05,3.33-.05.17,0,.19.03.19.19,0,.12-.05.45-.05,1.59v1.33ZM150.09,202.88h-4.36v2.55h4.36v-2.55ZM160.95,215.34c0,1.74.05,2.38.05,2.52s-.02.17-.19.17c-.14,0-.98-.05-3.36-.05h-7.45c-2.36,0-3.19.05-3.33.05-.17,0-.19-.02-.19-.17s.05-.79.05-2.52v-4.67c0-1.74-.05-2.36-.05-2.5,0-.17.02-.19.19-.19.14,0,.98.05,3.33.05h7.45c2.38,0,3.21-.05,3.36-.05.17,0,.19.03.19.19,0,.12-.05.76-.05,2.5v4.67ZM159.52,209.19h-11.59v1.76h11.59v-1.76ZM159.52,212.05h-11.59v1.79h11.59v-1.79ZM159.52,214.93h-11.59v1.88h11.59v-1.88ZM155.78,202.88h-4.36v2.55h4.36v-2.55ZM156.8,218.38c.21-.17.26-.12.38-.05,1.83,1.21,4.17,2.02,6.64,2.4-.24.26-.45.6-.57.88-.19.45-.21.48-.67.38-2.05-.45-4.76-1.62-6.48-2.79-.14-.09-.12-.14.14-.36l.55-.48ZM161.71,202.88h-4.59v2.55h4.59v-2.55Z"/>
        <path class="cls-1" d="M174.67,204.55c.14.07.21.17.21.26,0,.12-.05.26-.09.43-.1.28-.19.95-.19,2.19,0,1.52.02,2.98.33,5.41.36,2.81,1.38,4.86,2.52,4.86.95,0,1.86-1.52,2.55-3.74.26.62.48.91.79,1.19.19.17.26.36.19.6-.67,1.93-1.95,3.74-3.55,3.74-2,0-3.5-2.76-4.02-6.5-.33-2.38-.43-5.07-.43-6.64,0-.91-.02-1.48-.19-2.29.67.07,1.43.28,1.88.5ZM186.03,206.38c.14-.07.26-.09.36,0,2.43,2.12,4.05,5.05,4.64,8.24.02.17-.05.24-.17.31-.36.24-.69.41-1.1.55-.17.05-.28-.02-.31-.19-.67-3.64-2.17-6.17-4.48-8.26.45-.31.81-.52,1.05-.64Z"/>
        <path class="cls-1" d="M206.59,206.93c0,.17-.02.19-.19.19-.12,0-.62-.05-2.29-.05h-.12v4.88c.81-.41,1.64-.86,2.55-1.4-.02.33-.02.6.02.95.07.48.05.48-.38.71-.71.38-1.43.76-2.19,1.14v4.33c0,2.83.05,4.09.05,4.21,0,.17-.02.17-.19.17h-1.1c-.17,0-.19,0-.19-.17,0-.14.05-1.38.05-4.19v-3.69c-.69.31-1.38.64-2.12.95-.48.22-.69.36-.81.48-.09.09-.24.19-.33.19s-.19-.05-.26-.19c-.21-.41-.41-.83-.6-1.36.62-.14,1.31-.36,2.12-.67.67-.26,1.33-.52,2-.81v-5.55h-2.07c-.17,1.05-.38,2.12-.69,3.07-.07.26-.09.36-.19.36s-.19-.05-.38-.14c-.24-.09-.62-.19-.86-.24.81-2.17,1.1-4.33,1.19-6.17.05-.48.02-.91-.02-1.33.4.05.93.12,1.29.19.21.05.29.14.29.22,0,.12-.02.17-.1.31-.07.17-.12.36-.14.64l-.19,1.83h1.88v-1.93c0-1.69-.02-2.33-.17-3.26.6.03,1.05.05,1.52.12.17.02.26.09.26.21,0,.14-.05.24-.09.43-.09.29-.14.88-.14,2.45v1.98h.12c1.67,0,2.17-.05,2.29-.05.17,0,.19.02.19.17v1ZM215.98,205.36c2,0,2.64-.05,2.76-.05.19,0,.24.07.24.24-.02.55-.05,1.1-.05,1.62-.05,4.83-.26,7.9-.76,11-.38,2.36-1.14,3.62-3.05,3.62-.55,0-1.36-.05-2.12-.12q-.45-.05-.55-.55c-.09-.45-.19-.76-.36-1.07,1.1.19,1.95.28,2.81.28,1.21,0,1.67-1.07,1.9-2.62.45-2.93.71-5.76.76-11.12h-1.24c-1.57,6.67-4,10.83-8.52,14.14-.17.12-.29.19-.36.19-.09,0-.19-.09-.33-.28-.26-.33-.52-.55-.81-.71,4.64-3.14,7.26-7.19,8.64-13.33h-2.31c-1.24,4.19-2.86,6.52-5.45,8.69-.17.14-.26.21-.33.21-.09,0-.19-.09-.33-.26-.24-.28-.55-.52-.81-.64,2.6-1.86,4.55-4.36,5.55-8h-2.19c-.55.93-1.19,1.83-1.98,2.76-.17.19-.24.28-.33.28s-.17-.07-.33-.24c-.26-.26-.48-.41-.76-.52,1.95-2.05,3.07-4.19,3.74-6.29.24-.76.38-1.36.43-2,.55.09.93.19,1.38.31.17.05.26.12.26.24,0,.14-.07.24-.19.38-.17.19-.29.57-.48,1.12-.31.91-.64,1.81-1.1,2.71h6.26Z"/>
        <path class="cls-1" d="M231.56,205.86c0-1.5-.09-2.59-.26-3.45.64.07,1.48.24,1.95.38.31.09.31.36.21.57-.17.31-.24,1-.24,2.5v4.02c0,1.24.02,2.12.07,3.14,0,.28-.09.38-.36.38h-1.12c-.24,0-.33-.09-.31-.36.02-1.02.05-2.1.05-3.26v-3.93ZM241.54,210.15c0,3.69-.86,5.86-2.07,7.4-1.14,1.41-3.1,2.74-5.21,3.5-.26.09-.43.09-.67-.12-.33-.36-.69-.62-1.19-.88,2.43-.72,4.4-1.91,5.55-3.26,1.17-1.43,1.9-3.38,1.9-6.5v-4.1c0-2.33-.07-3.31-.26-4.17.71.07,1.5.22,2.02.38.29.1.29.36.17.6-.17.33-.24,1.05-.24,3.12v4.02Z"/>
        <path class="cls-1" d="M267.58,204.34c.81,0,1.07-.02,1.36-.19.14-.09.31-.05.48.07.33.26.69.62.98.98.14.19.1.36-.12.55-.24.19-.45.48-.69.88-1.05,1.79-2.26,3.55-3.52,5.12,2.45,1.79,4.67,3.69,6.83,5.97.21.19.21.26.02.5-.26.31-.57.6-.86.86-.17.14-.26.14-.43-.05-2-2.29-4.26-4.31-6.57-6.05-2.71,2.81-5.57,5.03-8.5,6.64-.26.14-.41.17-.6-.05-.31-.36-.74-.6-1.24-.86,3.6-1.79,6.41-3.98,8.76-6.45,1.55-1.64,3.12-3.76,4.52-6.38h-7.17c-1.33,0-2.36.07-3.43.14-.21,0-.24-.07-.29-.26-.07-.33-.14-1.05-.14-1.52,1.17.09,2.21.09,3.69.09h6.9Z"/>
        <path class="cls-1" d="M290.71,208.57c2.74.79,5.38,1.91,7.76,3.31.19.1.24.22.17.38-.17.43-.38.86-.57,1.17-.14.19-.24.24-.45.09-2.21-1.45-4.76-2.57-6.93-3.19v5.52c0,1.45.05,3.31.07,4.86.02.24-.05.31-.31.31-.36.03-.83.03-1.21,0-.26,0-.33-.07-.33-.33.07-1.52.09-3.38.09-4.83v-10.59c0-1.79-.09-3-.26-3.81.83.07,1.55.17,1.98.31.38.09.29.36.17.71-.14.41-.17,1.12-.17,2.64v3.45Z"/>
        <path class="cls-1" d="M319.44,203.53c0,.17-.03.19-.19.19-.14,0-.72-.05-2.57-.05h-.83c.33.57.62,1.22.91,1.93.05.14,0,.19-.22.26l-.74.24c-.29.09-.33.07-.38-.12-.24-.74-.55-1.55-.95-2.31h-2.17c-.57.83-1.21,1.57-1.98,2.29-.17.14-.26.22-.33.22-.09,0-.19-.07-.36-.22-.26-.24-.5-.38-.76-.47,1.48-1.24,2.45-2.48,3.21-4.1.14-.28.24-.62.28-.98.5.07.91.17,1.31.28.17.05.24.14.24.24,0,.12-.07.22-.14.28-.14.14-.22.26-.38.6-.12.26-.26.48-.38.72h3.67c1.86,0,2.43-.05,2.57-.05.16,0,.19.03.19.19v.86ZM329.08,208.88c0,1.74.05,2,.05,2.12,0,.17-.02.19-.19.19h-1.07c-.17,0-.19-.02-.19-.19v-2.69h-16.26v2.69c0,.17-.02.19-.19.19h-1.07c-.17,0-.19-.02-.19-.19,0-.14.05-.38.05-2.12v-.62c0-.6-.05-.88-.05-1,0-.17.02-.19.19-.19.14,0,.98.05,3.31.05h5.14c0-.64-.02-1.21-.17-1.79.57,0,1.12.05,1.5.12.19.03.28.1.28.19,0,.14-.05.24-.14.43-.09.21-.09.6-.09,1.05h5.62c2.36,0,3.19-.05,3.33-.05.17,0,.19.02.19.19,0,.12-.05.41-.05.91v.71ZM326.7,219.98c0,1.31.05,1.69.05,1.81,0,.17-.02.19-.19.19h-1.05c-.16,0-.19-.03-.19-.19v-.98h-10.4v1c0,.14-.02.17-.19.17h-1.05c-.17,0-.19-.03-.19-.17s.05-.83.05-2.81v-6.24c0-1.98-.05-2.69-.05-2.83,0-.17.03-.19.19-.19.14,0,1.12.05,3.31.05h4.95c2.14,0,2.98-.05,3.1-.05.17,0,.19.02.19.19,0,.14-.05.53-.05,1.57v1.05c0,1.05.05,1.45.05,1.6s-.02.17-.19.17c-.12,0-.95-.05-3.1-.05h-7.02v1.81h8.24c2.26,0,3.26-.05,3.4-.05.17,0,.19.03.19.19,0,.14-.05.57-.05,1.86v1.9ZM323.8,210.93h-8.88v2.19h8.88v-2.19ZM325.32,217.19h-10.4v2.48h10.4v-2.48ZM329.87,203.53c0,.17-.02.19-.19.19-.12,0-.81-.05-2.95-.05h-1.64c.36.57.67,1.19,1,1.93.07.14.03.22-.21.29l-.69.19c-.26.07-.31.05-.38-.12-.28-.79-.62-1.57-1.05-2.29h-2.26c-.26.48-.57.93-.91,1.41-.14.17-.21.26-.31.26-.07,0-.19-.07-.38-.21-.26-.17-.5-.26-.81-.33.95-1.17,1.52-2.17,2-3.41.09-.24.19-.62.26-1.02.52.07.95.17,1.29.26.17.05.29.12.29.26,0,.12-.07.19-.19.29-.14.12-.22.31-.36.64-.09.24-.19.5-.31.72h4.67c2.14,0,2.83-.05,2.95-.05.17,0,.19.03.19.19v.86Z"/>
        <path class="cls-1" d="M341.17,215.41c1.05-.45,2.02-.95,2.98-1.5-.05.26-.07.6-.07.91q.03.5-.38.74c-1.52.86-3.55,1.79-5.31,2.48-.5.19-.76.31-.86.38-.09.07-.19.14-.31.14-.07,0-.17-.05-.24-.21-.17-.41-.31-.86-.43-1.36.64-.09,1.33-.29,2.19-.6l1.02-.38v-5.95h-.38c-1.55,0-2,.05-2.12.05-.17,0-.19-.02-.19-.19v-1c0-.17.02-.19.19-.19.12,0,.57.05,2.12.05h.38v-5.1h-.55c-1.67,0-2.17.05-2.31.05s-.17-.02-.17-.19v-1.02c0-.17.02-.19.17-.19s.64.05,2.31.05h2.43c1.69,0,2.17-.05,2.29-.05.17,0,.19.03.19.19v1.02c0,.17-.02.19-.19.19-.12,0-.6-.05-2.29-.05h-.48v5.1h.26c1.55,0,2-.05,2.14-.05.17,0,.17.02.17.19v1c0,.17,0,.19-.17.19-.14,0-.6-.05-2.14-.05h-.26v5.36ZM358.14,220.6c0,.17-.03.19-.17.19-.12,0-.95-.05-3.38-.05h-8.71c-2.43,0-3.26.05-3.38.05-.17,0-.19-.03-.19-.19v-1.05c0-.17.02-.19.19-.19.12,0,.95.05,3.38.05h4.07v-3.09h-1.83c-2.24,0-2.98.05-3.12.05-.17,0-.19-.02-.19-.19v-1.02c0-.17.02-.19.19-.19.14,0,.88.05,3.12.05h1.83v-2.71h-1.83c-2.21,0-3,.05-3.12.05-.19,0-.21-.02-.21-.17s.05-.81.05-2.62v-4.81c0-1.79-.05-2.43-.05-2.57,0-.17.02-.19.21-.19.12,0,.91.05,3.12.05h5.29c2.21,0,2.98-.05,3.12-.05.17,0,.19.03.19.19,0,.12-.05.79-.05,2.57v4.81c0,1.81.05,2.48.05,2.62s-.03.17-.19.17c-.14,0-.9-.05-3.12-.05h-2.07v2.71h2.21c2.24,0,2.98-.05,3.12-.05.17,0,.19.02.19.19v1.02c0,.17-.02.19-.19.19-.14,0-.88-.05-3.12-.05h-2.21v3.09h3.26c2.43,0,3.26-.05,3.38-.05.14,0,.17.02.17.19v1.05ZM349.95,203.27h-3.76v3.24h3.76v-3.24ZM349.95,207.69h-3.76v3.36h3.76v-3.36ZM355.29,203.27h-3.95v3.24h3.95v-3.24ZM355.29,207.69h-3.95v3.36h3.95v-3.36Z"/>
        <path class="cls-1" d="M370.97,205.15c-1.88,0-3.29.09-4.43.21-.26.03-.36-.07-.4-.26-.1-.4-.22-1.14-.26-1.64,1.45.14,2.86.17,4.9.17h9.9c1.33,0,1.57-.07,1.79-.14.12-.05.26-.09.36-.09.12,0,.24.07.36.17.33.28.62.57.88.93.19.24.17.5-.12.69-.22.12-.38.38-.52.6-1.1,1.64-2.71,3.31-4.55,4.69-.19.14-.43.14-.62-.03-.36-.28-.74-.45-1.24-.6,2.05-1.31,3.69-2.88,4.83-4.69h-10.88ZM372.54,215c.88-1.83,1.19-3.74,1.19-5.86,0-.79-.07-1.33-.21-1.98.69.05,1.43.17,1.88.33.38.14.38.4.24.69-.12.21-.19.5-.19,1.17,0,2.02-.38,4.38-1.36,6.33-.93,1.86-2.59,3.52-4.47,4.71-.24.14-.5.19-.72,0-.33-.31-.76-.55-1.29-.74,2.33-1.21,4.02-2.76,4.93-4.67Z"/>
        <path class="cls-1" d="M398.44,206.29c-1.41,0-2.71.05-4,.14-.28.02-.38-.07-.43-.38-.02-.33-.09-1.07-.12-1.48,1.48.14,2.81.19,4.57.19h8.43c.69,0,.93-.07,1.19-.21.19-.12.43-.09.62.02.41.28.79.64,1.07.98.19.26.16.52-.07.74-.22.19-.36.43-.52.81-1.14,3.02-2.81,5.71-4.67,7.81-1.93,2.17-4.12,4.12-7.07,5.74-.29.19-.6.19-.81-.05-.28-.28-.74-.6-1.24-.81,3.64-1.81,5.69-3.6,7.69-5.88,1.79-2,3.48-4.64,4.47-7.62h-9.12ZM413.98,202.48c0,1.33-1.07,2.41-2.4,2.41s-2.4-1.07-2.4-2.41,1.07-2.4,2.4-2.4,2.4,1.07,2.4,2.4ZM410.08,202.48c0,.83.67,1.5,1.5,1.5s1.5-.67,1.5-1.5-.67-1.5-1.5-1.5-1.5.67-1.5,1.5Z"/>
        <path class="cls-1" d="M425,205.86c0-1.5-.09-2.59-.26-3.45.64.07,1.48.24,1.95.38.31.09.31.36.21.57-.16.31-.24,1-.24,2.5v4.02c0,1.24.02,2.12.07,3.14,0,.28-.1.38-.36.38h-1.12c-.24,0-.33-.09-.31-.36.03-1.02.05-2.1.05-3.26v-3.93ZM434.97,210.15c0,3.69-.86,5.86-2.07,7.4-1.14,1.41-3.09,2.74-5.21,3.5-.26.09-.43.09-.67-.12-.33-.36-.69-.62-1.19-.88,2.43-.72,4.4-1.91,5.55-3.26,1.17-1.43,1.91-3.38,1.91-6.5v-4.1c0-2.33-.07-3.31-.26-4.17.71.07,1.5.22,2.02.38.28.1.28.36.17.6-.17.33-.24,1.05-.24,3.12v4.02Z"/>
      </g>
    </g>
  </g>
</svg>