<?xml version="1.0" encoding="UTF-8"?>
<svg id="_レイヤー_2" data-name="レイヤー 2" xmlns="http://www.w3.org/2000/svg" viewBox="0 0 440.9 161.96">
  <defs>
    <style>
      .cls-1, .cls-2, .cls-3, .cls-4, .cls-5, .cls-6, .cls-7, .cls-8 {
        stroke-width: 0px;
      }

      .cls-2 {
        fill: #5ab834;
      }

      .cls-3 {
        fill: #1d6cd4;
      }

      .cls-4 {
        fill: #cc3327;
      }

      .cls-5 {
        fill: #ccc;
      }

      .cls-6 {
        fill: #333;
      }

      .cls-7 {
        fill: #fff;
      }

      .cls-8 {
        fill: #f0b30c;
      }
    </style>
  </defs>
  <g id="_レイヤー_1-2" data-name="レイヤー 1">
    <g>
      <g>
        <g>
          <g>
            <path class="cls-8" d="M8,36.67c-3.03,0-5.5-2.47-5.5-5.5s2.47-5.5,5.5-5.5h73c3.03,0,5.5,2.47,5.5,5.5s-2.47,5.5-5.5,5.5H8Z"/>
            <path class="cls-7" d="M81,27.17c2.21,0,4,1.79,4,4s-1.79,4-4,4H8c-2.21,0-4-1.79-4-4s1.79-4,4-4h73M81,24.17H8c-3.86,0-7,3.14-7,7s3.14,7,7,7h73c3.86,0,7-3.14,7-7s-3.14-7-7-7h0Z"/>
          </g>
          <g>
            <path class="cls-6" d="M8,120.15c-3.31,0-6-2.69-6-6s2.69-6,6-6h67v-56.97c0-3.31,2.69-6,6-6s6,2.69,6,6v62.97c0,3.31-2.69,6-6,6H8Z"/>
            <path class="cls-7" d="M81,47.17c2.21,0,4,1.79,4,4v62.97c0,2.21-1.79,4-4,4H8c-2.21,0-4-1.79-4-4s1.79-4,4-4h69v-58.97c0-2.21,1.79-4,4-4M81,43.17c-4.41,0-8,3.59-8,8v54.97H8c-4.41,0-8,3.59-8,8s3.59,8,8,8h73c4.41,0,8-3.59,8-8v-62.97c0-4.41-3.59-8-8-8h0Z"/>
          </g>
        </g>
        <g>
          <g>
            <g>
              <path class="cls-5" d="M16.3,61.36c-2.37,0-4.3-1.93-4.3-4.3s1.93-4.3,4.3-4.3,4.3,1.93,4.3,4.3-1.93,4.3-4.3,4.3Z"/>
              <path class="cls-7" d="M16.3,53.26c2.1,0,3.8,1.7,3.8,3.8s-1.7,3.8-3.8,3.8-3.8-1.7-3.8-3.8,1.7-3.8,3.8-3.8M16.3,52.26c-2.65,0-4.8,2.15-4.8,4.8s2.15,4.8,4.8,4.8,4.8-2.15,4.8-4.8-2.15-4.8-4.8-4.8h0Z"/>
            </g>
            <g>
              <path class="cls-5" d="M28.31,61.36c-2.37,0-4.3-1.93-4.3-4.3s1.93-4.3,4.3-4.3h30.39c2.37,0,4.3,1.93,4.3,4.3s-1.93,4.3-4.3,4.3h-30.39Z"/>
              <path class="cls-7" d="M58.7,53.26c2.1,0,3.8,1.7,3.8,3.8s-1.7,3.8-3.8,3.8h-30.39c-2.1,0-3.8-1.7-3.8-3.8s1.7-3.8,3.8-3.8h30.39M58.7,52.26h-30.39c-2.65,0-4.8,2.15-4.8,4.8s2.15,4.8,4.8,4.8h30.39c2.65,0,4.8-2.15,4.8-4.8s-2.15-4.8-4.8-4.8h0Z"/>
            </g>
          </g>
          <g>
            <g>
              <path class="cls-5" d="M16.3,76.96c-2.37,0-4.3-1.93-4.3-4.3s1.93-4.3,4.3-4.3,4.3,1.93,4.3,4.3-1.93,4.3-4.3,4.3Z"/>
              <path class="cls-7" d="M16.3,68.86c2.1,0,3.8,1.7,3.8,3.8s-1.7,3.8-3.8,3.8-3.8-1.7-3.8-3.8,1.7-3.8,3.8-3.8M16.3,67.86c-2.65,0-4.8,2.15-4.8,4.8s2.15,4.8,4.8,4.8,4.8-2.15,4.8-4.8-2.15-4.8-4.8-4.8h0Z"/>
            </g>
            <g>
              <path class="cls-5" d="M28.31,76.96c-2.37,0-4.3-1.93-4.3-4.3s1.93-4.3,4.3-4.3h30.39c2.37,0,4.3,1.93,4.3,4.3s-1.93,4.3-4.3,4.3h-30.39Z"/>
              <path class="cls-7" d="M58.7,68.86c2.1,0,3.8,1.7,3.8,3.8s-1.7,3.8-3.8,3.8h-30.39c-2.1,0-3.8-1.7-3.8-3.8s1.7-3.8,3.8-3.8h30.39M58.7,67.86h-30.39c-2.65,0-4.8,2.15-4.8,4.8s2.15,4.8,4.8,4.8h30.39c2.65,0,4.8-2.15,4.8-4.8s-2.15-4.8-4.8-4.8h0Z"/>
            </g>
          </g>
          <g>
            <g>
              <path class="cls-5" d="M16.3,92.56c-2.37,0-4.3-1.93-4.3-4.3s1.93-4.3,4.3-4.3,4.3,1.93,4.3,4.3-1.93,4.3-4.3,4.3Z"/>
              <path class="cls-7" d="M16.3,84.46c2.1,0,3.8,1.7,3.8,3.8s-1.7,3.8-3.8,3.8-3.8-1.7-3.8-3.8,1.7-3.8,3.8-3.8M16.3,83.46c-2.65,0-4.8,2.15-4.8,4.8s2.15,4.8,4.8,4.8,4.8-2.15,4.8-4.8-2.15-4.8-4.8-4.8h0Z"/>
            </g>
            <g>
              <path class="cls-5" d="M28.31,92.56c-2.37,0-4.3-1.93-4.3-4.3s1.93-4.3,4.3-4.3h30.39c2.37,0,4.3,1.93,4.3,4.3s-1.93,4.3-4.3,4.3h-30.39Z"/>
              <path class="cls-7" d="M58.7,84.46c2.1,0,3.8,1.7,3.8,3.8s-1.7,3.8-3.8,3.8h-30.39c-2.1,0-3.8-1.7-3.8-3.8s1.7-3.8,3.8-3.8h30.39M58.7,83.46h-30.39c-2.65,0-4.8,2.15-4.8,4.8s2.15,4.8,4.8,4.8h30.39c2.65,0,4.8-2.15,4.8-4.8s-2.15-4.8-4.8-4.8h0Z"/>
            </g>
          </g>
        </g>
        <g>
          <g>
            <path class="cls-6" d="M137,120.18c-3.03,0-5.5-2.47-5.5-5.5V30.7c0-3.03,2.47-5.5,5.5-5.5s5.5,2.47,5.5,5.5v83.98c0,3.03-2.47,5.5-5.5,5.5Z"/>
            <path class="cls-7" d="M137,26.7c2.21,0,4,1.79,4,4v83.98c0,2.21-1.79,4-4,4s-4-1.79-4-4V30.7c0-2.21,1.79-4,4-4M137,23.7c-3.86,0-7,3.14-7,7v83.98c0,3.86,3.14,7,7,7s7-3.14,7-7V30.7c0-3.86-3.14-7-7-7h0Z"/>
          </g>
          <g>
            <path class="cls-4" d="M157,119.65c-1.47,0-2.85-.57-3.89-1.61-1.04-1.04-1.61-2.42-1.61-3.89s.57-2.85,1.61-3.89l38.12-38.12c1.04-1.04,2.42-1.61,3.89-1.61s2.85.57,3.89,1.61c1.04,1.04,1.61,2.42,1.61,3.89s-.57,2.85-1.61,3.89l-38.12,38.12c-1.04,1.04-2.42,1.61-3.89,1.61Z"/>
            <path class="cls-7" d="M195.12,72.03c1.02,0,2.05.39,2.83,1.17,1.56,1.56,1.56,4.09,0,5.66l-38.12,38.12c-.78.78-1.8,1.17-2.83,1.17s-2.05-.39-2.83-1.17c-1.56-1.56-1.56-4.09,0-5.66l38.12-38.12c.78-.78,1.8-1.17,2.83-1.17M195.12,69.03c-1.87,0-3.63.73-4.95,2.05l-38.12,38.12c-1.32,1.32-2.05,3.08-2.05,4.95s.73,3.63,2.05,4.95c1.32,1.32,3.08,2.05,4.95,2.05s3.63-.73,4.95-2.05l38.12-38.12c1.32-1.32,2.05-3.08,2.05-4.95s-.73-3.63-2.05-4.95c-1.32-1.32-3.08-2.05-4.95-2.05h0Z"/>
          </g>
        </g>
        <g>
          <g>
            <circle class="cls-3" cx="274.8" cy="15" r="13.5"/>
            <path class="cls-7" d="M274.8,3c6.63,0,12,5.37,12,12s-5.37,12-12,12-12-5.37-12-12,5.37-12,12-12M274.8,0c-8.27,0-15,6.73-15,15s6.73,15,15,15,15-6.73,15-15-6.73-15-15-15h0Z"/>
          </g>
          <g>
            <g>
              <path class="cls-6" d="M239.99,45.5c-3.03,0-5.5-2.47-5.5-5.5s2.47-5.5,5.5-5.5h74.86c3.03,0,5.5,2.47,5.5,5.5s-2.47,5.5-5.5,5.5h-74.86Z"/>
              <path class="cls-7" d="M314.85,36c2.21,0,4,1.79,4,4s-1.79,4-4,4h-74.86c-2.21,0-4-1.79-4-4s1.79-4,4-4h74.86M314.85,33h-74.86c-3.86,0-7,3.14-7,7s3.14,7,7,7h74.86c3.86,0,7-3.14,7-7s-3.14-7-7-7h0Z"/>
            </g>
            <g>
              <path class="cls-6" d="M235.12,117.9c-.79,0-1.56-.17-2.29-.5-1.34-.61-2.35-1.71-2.87-3.08-.51-1.38-.46-2.87.15-4.21l23.99-52.4c.89-1.95,2.86-3.21,5-3.21.79,0,1.56.17,2.29.5,2.76,1.26,3.97,4.53,2.71,7.29l-23.99,52.4c-.89,1.95-2.86,3.21-5,3.21Z"/>
              <path class="cls-7" d="M259.11,56c.56,0,1.12.12,1.66.36,2.01.92,2.89,3.29,1.97,5.3l-23.99,52.4c-.67,1.47-2.12,2.34-3.64,2.34-.56,0-1.12-.12-1.66-.36-2.01-.92-2.89-3.29-1.97-5.3l23.99-52.4c.67-1.47,2.12-2.34,3.64-2.34M259.11,53h0c-2.73,0-5.23,1.6-6.37,4.09l-23.99,52.4c-.78,1.7-.85,3.6-.2,5.35.65,1.75,1.95,3.15,3.65,3.92.92.42,1.9.64,2.91.64,2.73,0,5.23-1.6,6.37-4.09l23.99-52.4c1.61-3.51.06-7.67-3.45-9.28-.92-.42-1.9-.64-2.91-.64h0Z"/>
            </g>
            <g>
              <path class="cls-6" d="M289.8,119.65c-.93,0-1.86-.24-2.67-.69l-9-5c-2.65-1.47-3.61-4.83-2.14-7.48.97-1.75,2.81-2.83,4.81-2.83.93,0,1.85.24,2.67.69l3.23,1.8,22.94-67.89c.76-2.24,2.85-3.74,5.21-3.74.6,0,1.19.1,1.76.29,1.39.47,2.52,1.45,3.17,2.77.65,1.32.75,2.81.28,4.2l-25.06,74.14c-.52,1.55-1.7,2.78-3.23,3.37-.63.25-1.3.37-1.98.37Z"/>
              <path class="cls-7" d="M314.85,36c.42,0,.86.07,1.28.21,2.09.71,3.22,2.98,2.51,5.07l-25.06,74.14c-.38,1.12-1.24,2.02-2.35,2.45-.47.18-.96.27-1.44.27-.67,0-1.34-.17-1.94-.5l-9-5c-1.93-1.07-2.63-3.51-1.55-5.44.73-1.32,2.09-2.06,3.5-2.06.66,0,1.32.16,1.94.5l4.8,2.67,23.52-69.6c.56-1.67,2.12-2.72,3.79-2.72M314.85,33h0c-3,0-5.67,1.91-6.63,4.76l-22.37,66.19-1.66-.92c-1.04-.58-2.21-.88-3.4-.88-2.54,0-4.89,1.38-6.12,3.6-1.87,3.37-.65,7.64,2.72,9.52l9,5c1.04.58,2.21.88,3.4.88.87,0,1.72-.16,2.53-.47,1.94-.75,3.44-2.31,4.1-4.29l25.06-74.14c.6-1.77.47-3.67-.36-5.35-.83-1.68-2.26-2.93-4.03-3.53-.72-.25-1.48-.37-2.24-.37h0Z"/>
            </g>
          </g>
        </g>
        <g>
          <g>
            <path class="cls-6" d="M354.82,58.29c-1.48-.01-2.86-.6-3.89-1.65-1.03-1.05-1.59-2.44-1.57-3.9l.12-12.78c.03-3,2.5-5.45,5.5-5.45,1.52.01,2.9.6,3.93,1.65,1.03,1.05,1.59,2.44,1.57,3.9l-.12,12.78c-.03,3-2.5,5.45-5.5,5.45h-.04Z"/>
            <path class="cls-7" d="M355.02,36c2.21.02,3.98,1.83,3.96,4.04l-.12,12.78c-.02,2.2-1.81,3.96-4,3.96h-.04c-2.21-.02-3.98-1.83-3.96-4.04l.12-12.78c.02-2.2,1.81-3.96,4-3.96h.04M355.02,33h-.04c-3.82,0-6.96,3.11-7,6.93l-.12,12.78c-.04,3.86,3.07,7.03,6.93,7.07,0,0,.06,0,.07,0,3.82,0,6.96-3.11,7-6.93l.12-12.78c.04-3.86-3.07-7.03-6.93-7.07,0,0-.02,0-.03,0h0Z"/>
          </g>
          <g>
            <circle class="cls-6" cx="396.46" cy="15" r="13.5"/>
            <path class="cls-7" d="M396.46,3c6.63,0,12,5.37,12,12s-5.37,12-12,12-12-5.37-12-12,5.37-12,12-12M396.46,0c-8.27,0-15,6.73-15,15s6.73,15,15,15,15-6.73,15-15S404.74,0,396.46,0h0Z"/>
          </g>
          <g>
            <g>
              <path class="cls-6" d="M370.98,45.5c-3.03,0-5.5-2.47-5.5-5.5s2.47-5.5,5.5-5.5h62.92c3.03,0,5.5,2.47,5.5,5.5s-2.47,5.5-5.5,5.5h-62.92Z"/>
              <path class="cls-7" d="M433.9,36c2.21,0,4,1.79,4,4s-1.79,4-4,4h-62.92c-2.21,0-4-1.79-4-4s1.79-4,4-4h62.92M433.9,33h-62.92c-3.86,0-7,3.14-7,7s3.14,7,7,7h62.92c3.86,0,7-3.14,7-7s-3.14-7-7-7h0Z"/>
            </g>
            <g>
              <path class="cls-2" d="M390.84,119.65c-1.51,0-2.97-.51-4-1.4-1.03-.89-1.58-2.12-1.5-3.37.08-1.29.83-2.48,2.03-3.28.18-.12,17.7-11.77,27.05-23.08,9.25-11.18,14.03-30.14,14.08-30.33.52-2.12,2.74-3.61,5.39-3.61.31,0,.63.02.94.07,1.65.23,3.06,1.05,3.86,2.25.64.95.84,2.06.58,3.13-.21.85-5.24,20.91-15.76,33.62-10.31,12.46-28.46,24.51-29.23,25.02-.97.64-2.2.99-3.45.99Z"/>
              <path class="cls-7" d="M433.9,56.07c.24,0,.49.02.73.05,2.17.31,3.6,1.89,3.2,3.53-.21.83-5.17,20.59-15.46,33.02-10.2,12.33-28.14,24.22-28.9,24.73-.76.5-1.7.75-2.63.75-1.12,0-2.22-.35-3.02-1.04-1.45-1.26-1.28-3.17.38-4.26.18-.12,17.82-11.82,27.38-23.37,9.49-11.47,14.33-30.74,14.38-30.93.36-1.45,2.05-2.47,3.93-2.47M433.9,53.07h0c-3.34,0-6.15,1.95-6.84,4.75-.05.18-4.77,18.85-13.78,29.74-9.29,11.23-26.54,22.67-26.71,22.78-1.61,1.06-2.59,2.68-2.71,4.44-.11,1.72.62,3.39,2.01,4.6,1.32,1.14,3.08,1.77,4.98,1.77,1.55,0,3.07-.44,4.28-1.24.77-.51,19.08-12.65,29.56-25.32,10.73-12.97,15.85-33.36,16.06-34.22.37-1.49.09-3.02-.79-4.33-1.04-1.55-2.83-2.6-4.9-2.89-.38-.05-.77-.08-1.15-.08h0Z"/>
            </g>
          </g>
        </g>
      </g>
      <g>
        <path class="cls-1" d="M146.53,155.62l5.49-5.47h1.01l-5.63,5.56,5.96,6.06h-1.05l-5.47-5.54-.31.3v5.24h-.77v-11.62h.77v5.47Z"/>
        <path class="cls-1" d="M177.29,158.23c0,2.11-1.62,3.73-3.73,3.73s-3.73-1.62-3.73-3.73,1.62-3.73,3.73-3.73,3.73,1.62,3.73,3.73ZM176.56,158.23c0-1.72-1.29-3.07-3-3.07s-3,1.34-3,3.07,1.29,3.07,3,3.07,3-1.34,3-3.07Z"/>
        <path class="cls-1" d="M196.06,154.66h.7v.92c.26-.61.8-1.08,1.57-1.08.19,0,.49.03.75.17l-.35.63c-.07-.05-.21-.14-.52-.14-1.43,0-1.45,1.9-1.45,2.79v3.82h-.7v-7.11Z"/>
        <path class="cls-1" d="M218.89,158.3c0,1.81,1.32,3,2.82,3,1.15,0,2.02-.68,2.47-1.62l.59.35c-.42.8-1.36,1.93-3.12,1.93-2.21,0-3.5-1.64-3.5-3.71,0-2.47,1.71-3.74,3.45-3.74,1.92,0,3.36,1.53,3.36,3.8h-6.08ZM224.24,157.64c-.17-1.41-1.22-2.47-2.63-2.47s-2.47,1.1-2.67,2.47h5.3Z"/>
        <path class="cls-1" d="M242.53,155.62l5.49-5.47h1.01l-5.63,5.56,5.96,6.06h-1.05l-5.47-5.54-.31.3v5.24h-.77v-11.62h.77v5.47Z"/>
        <path class="cls-1" d="M272.34,154.66h.7v7.11h-.7v-1.27c-.71,1.1-1.85,1.46-2.77,1.46-1.86,0-3.47-1.41-3.47-3.74,0-2.2,1.39-3.71,3.47-3.71,1.11,0,2.09.44,2.77,1.39v-1.24ZM266.83,158.16c0,1.6.99,3.13,2.79,3.13s2.75-1.5,2.75-3.13c0-2.11-1.55-3-2.77-3-1.41,0-2.77,1.06-2.77,3Z"/>
        <path class="cls-1" d="M291.7,154.66v4.29c0,.51.02,1.26.45,1.78.44.52,1.08.57,1.41.57s.98-.05,1.41-.57c.44-.52.45-1.27.45-1.78v-4.29h.7v4.48c0,.57-.05,1.32-.54,1.95-.54.7-1.39.87-2.02.87s-1.48-.17-2.02-.87c-.49-.63-.54-1.38-.54-1.95v-4.48h.7Z"/>
      </g>
    </g>
  </g>
</svg>